<?xml version="1.0" encoding="UTF-8"?> <svg xmlns="http://www.w3.org/2000/svg" width="30" height="21" viewBox="0 0 30 21" fill="none"> <path fill-rule="evenodd" clip-rule="evenodd" d="M2.69727 0.444409C2.63603 0.458328 2.46377 0.508712 2.31451 0.556425L2.04315 0.643165L5.04253 3.64683C10.0957 8.70714 13.3596 11.8939 13.6591 12.0599C14.4032 12.4722 15.3208 12.4722 16.065 12.0599C16.3644 11.8939 19.6283 8.70714 24.6809 3.64738L27.6797 0.64439L27.4089 0.539556C27.1469 0.438118 26.7425 0.434444 14.9734 0.426928C8.28275 0.422696 2.75851 0.430547 2.69727 0.444409ZM0.740385 2.11763C0.642065 2.37106 0.636665 2.74686 0.622412 10.2612C0.607492 18.1358 0.613337 18.427 0.794723 18.8555L0.862367 19.0153L5.17592 14.7259L9.48948 10.4364L7.03983 7.97903C5.69252 6.62749 3.74716 4.696 2.71681 3.68686L0.843493 1.85201L0.740385 2.11763ZM24.545 6.13768L20.2345 10.4282L24.545 14.7187C27.7483 17.9071 28.8671 18.9886 28.9004 18.929C28.9251 18.8848 28.9834 18.7025 29.03 18.5239C29.1037 18.2409 29.1145 17.2004 29.1145 10.4282C29.1145 3.65601 29.1037 2.61547 29.03 2.33242C28.9834 2.15382 28.9251 1.97154 28.9004 1.92739C28.8671 1.86777 27.7483 2.94923 24.545 6.13768ZM6.33689 15.9311L2.03091 20.2091L2.33622 20.3154C2.63313 20.4187 2.9812 20.4216 14.862 20.4216C26.6593 20.4216 27.0928 20.418 27.3816 20.3174L27.6808 20.2133L25.2382 17.7668C23.8947 16.4212 21.9499 14.492 20.9163 13.4797L19.037 11.6391L18.2712 12.3837C17.85 12.7933 17.3571 13.2266 17.1758 13.3467C15.7835 14.2695 13.9405 14.2695 12.5482 13.3467C12.3669 13.2266 11.8773 12.7964 11.46 12.3907C11.0427 11.9849 10.6881 11.653 10.672 11.653C10.656 11.653 8.70515 13.5782 6.33689 15.9311Z" fill="#525252"></path> </svg> 