<?xml version="1.0" encoding="UTF-8"?> <svg xmlns="http://www.w3.org/2000/svg" width="2172" height="2498" viewBox="0 0 2172 2498" fill="none"> <g opacity="0.1"> <path fill-rule="evenodd" clip-rule="evenodd" d="M1500.95 1466.34C1489.04 1485.66 1485.17 1492.15 1479.06 1503.1C1462.6 1532.57 1452.67 1556.2 1447.26 1578.72C1438.7 1614.41 1441.91 1643.91 1456.42 1663.04C1464 1673.03 1475.54 1681.21 1487.77 1685.25C1496.06 1687.98 1507.54 1689.22 1518.49 1688.57C1524.35 1688.22 1540.48 1685.03 1547.38 1682.87C1568.15 1676.35 1589.06 1666.36 1612.23 1651.87C1621.54 1646.05 1624.93 1643.8 1787.23 1535.66C1989.88 1400.64 2048.38 1361.59 2047.27 1362.04C2046.21 1362.49 2042.21 1364.39 1834.17 1463.15C1695.58 1528.94 1641.78 1554.47 1616.45 1566.44C1604.38 1572.15 1596.25 1575.33 1584.32 1579C1582.19 1579.66 1577 1580.78 1570.97 1581.88C1560.09 1583.88 1555.65 1584.23 1547.82 1583.73C1536.97 1583.02 1528.96 1580.4 1520.36 1574.74C1508.36 1566.84 1500.91 1556.17 1496.79 1540.97C1493.67 1529.47 1493.24 1513.38 1495.63 1497.68C1497.39 1486.17 1501.47 1470.58 1505.56 1459.79C1505.8 1459.15 1505.92 1458.64 1505.83 1458.65C1505.74 1458.67 1503.54 1462.13 1500.95 1466.34Z" fill="white"></path> <path fill-rule="evenodd" clip-rule="evenodd" d="M441.902 1623.83L403.902 1656.79L433.435 1691.59C449.678 1710.72 485.254 1752.63 512.492 1784.72L562.015 1843.06L619.878 1832.47C651.703 1826.65 677.723 1821.79 677.699 1821.66C677.587 1821.05 480.884 1591 480.427 1590.94C480.138 1590.9 462.802 1605.7 441.902 1623.83ZM359.631 1733.08C338.55 1750.85 321.388 1765.59 321.492 1765.83C321.596 1766.08 341.616 1789.92 365.979 1818.83L410.277 1871.38L414.674 1870.39L419.85 1869.43L425.026 1868.47L429.915 1867.56L432.845 1867.32L435.031 1866.91L480.467 1858.48C505.457 1853.85 525.885 1849.95 525.863 1849.84C525.682 1848.86 399.381 1700.67 398.765 1700.71C398.322 1700.74 380.712 1715.31 359.631 1733.08ZM275.22 1840.27C254.672 1857.94 237.667 1872.67 237.431 1873.01C237.171 1873.39 241.197 1878.72 247.643 1886.52L258.286 1899.4L316.191 1888.81L374.097 1878.22L372.717 1876.48C367.08 1869.38 313.621 1807.93 313.162 1808.03C312.841 1808.1 295.768 1822.61 275.22 1840.27Z" fill="white"></path> <path fill-rule="evenodd" clip-rule="evenodd" d="M1017.05 1457.69C1014.15 1458.74 1010.84 1461.35 1008.8 1464.19C1003.41 1471.7 1004.52 1480.74 1012.06 1490.74C1013.55 1492.72 1015.39 1495.64 1016.15 1497.23C1017.74 1500.58 1017.78 1501.04 1017.25 1510.76C1017.01 1515.13 1016.79 1516.56 1016.29 1517.11C1015.81 1517.63 1015.48 1519.42 1015.03 1523.98C1014.69 1527.38 1014.54 1530.69 1014.69 1531.35C1014.88 1532.16 1014.66 1533.6 1014.02 1535.77C1013.15 1538.72 1013.11 1539.27 1013.48 1542.66C1013.79 1545.38 1013.76 1547.1 1013.38 1549.29C1013.1 1550.91 1012.68 1554.48 1012.45 1557.23L1012.02 1562.21L1010.31 1564.37C1009.37 1565.55 1008.27 1567.48 1007.87 1568.64C1007.17 1570.69 1007.13 1570.74 1006.73 1569.9C1006.5 1569.42 1005.91 1568.67 1005.42 1568.24C1004.92 1567.8 1004.43 1566.95 1004.32 1566.32C1004.2 1565.69 1003.82 1564.98 1003.48 1564.75C1002.94 1564.38 1000.68 1563.98 999.911 1564.12C999.78 1564.14 999.163 1563.85 998.54 1563.47C997.917 1563.1 996.319 1562.12 994.99 1561.32C992.074 1559.55 990.233 1558.97 987.377 1558.94C984.723 1558.91 982.032 1559.86 979.516 1561.71C976.984 1563.58 973.871 1568.26 973.021 1571.48C972.389 1573.87 972.388 1574.31 973.011 1577.69C973.865 1582.31 974.749 1583.59 979.21 1586.68L982.42 1588.9L982.053 1591.09C981.552 1594.07 979.044 1597.75 976.816 1598.77C974.734 1599.72 972.887 1601.36 972.062 1602.99C970.993 1605.1 968.064 1613.07 966.974 1616.84C966.428 1618.72 965.451 1621.16 964.803 1622.25C963.43 1624.56 962.403 1627.62 962.043 1630.47C961.872 1631.83 961.29 1633.33 960.256 1635.09C955.661 1642.91 952.035 1652.17 949.826 1661.73C949.068 1665.02 948.709 1665.78 945.683 1670.54C942.585 1675.42 942.154 1675.93 939.075 1678.39C935.666 1681.1 935.379 1681.24 927.178 1684.02C923.563 1685.24 925.351 1686.37 930.444 1686.07C933.329 1685.91 934.218 1685.72 936.454 1684.82C937.896 1684.24 939.329 1683.61 939.637 1683.41C940.037 1683.16 940.227 1683.22 940.303 1683.64C940.374 1684.02 939.621 1684.77 938.091 1685.86C935.382 1687.77 934.828 1688.51 935.611 1689.17C936.473 1689.89 938.709 1689.22 942.61 1687.08C944.619 1685.98 946.383 1685.16 946.53 1685.26C946.677 1685.36 946.585 1686.22 946.325 1687.17C945.768 1689.2 946.075 1689.91 947.395 1689.65C948.835 1689.36 949.592 1688.57 950.924 1685.97C951.589 1684.66 952.351 1683.36 952.617 1683.06C953.43 1682.16 954.886 1682.1 955.683 1682.93C957.709 1685.05 963.964 1684.8 964.24 1682.59C964.382 1681.44 963.472 1680.72 961.74 1680.61C959.352 1680.46 958.979 1679.89 958.174 1675.15C957.542 1671.43 957.542 1670.95 958.19 1667.91C958.57 1666.11 959.514 1663.16 960.286 1661.36C961.554 1658.39 962.004 1657.76 964.92 1654.87C971.049 1648.81 973.751 1644.24 975.982 1636.17C976.686 1633.62 977.265 1632.22 977.708 1632C979.536 1631.06 980.493 1630.06 981.053 1628.51C981.593 1627.01 981.794 1626.81 982.927 1626.6C984.162 1626.37 984.285 1626.46 987.613 1629.89C989.839 1632.18 991.093 1633.75 991.21 1634.38C991.465 1635.76 992.158 1636.77 993.626 1637.93C994.536 1638.64 995.176 1639.59 995.849 1641.22C996.368 1642.48 997.291 1644.45 997.899 1645.6C998.508 1646.75 998.929 1647.88 998.835 1648.12C998.741 1648.36 998.16 1649.55 997.542 1650.76C996.627 1652.56 996.152 1653.09 994.977 1653.63C994.184 1653.99 993.145 1654.77 992.668 1655.35C991.15 1657.19 991.014 1658.96 991.943 1664.78C992.399 1667.64 992.683 1670.46 992.572 1671.04C992.305 1672.45 989.824 1675.24 988.109 1676.06C985.932 1677.1 985.134 1677.88 984.424 1679.65C984.06 1680.56 983.081 1681.99 982.249 1682.82C976.773 1688.31 969.771 1698.64 966.625 1705.88C965.413 1708.67 965.333 1708.76 963.714 1709.29C961.362 1710.05 958.48 1712.35 957.079 1714.58C956.196 1715.99 955.137 1717 953.028 1718.47C938.811 1728.33 929.271 1738.09 919.114 1753.16C914.731 1759.66 914.422 1760.23 914.904 1760.92C915.364 1761.57 915.303 1761.79 914.375 1762.82L913.326 1763.98L912.199 1763.43C910.158 1762.43 909.546 1762.91 908.457 1766.34C908.037 1767.67 906.734 1768.34 905.914 1767.66C905.644 1767.44 905.117 1766.46 904.743 1765.5C903.963 1763.5 903.058 1762.16 902.428 1762.07C902.189 1762.04 901.801 1762.48 901.564 1763.04C901.161 1764 901.188 1764.16 902.013 1765.57C902.496 1766.4 902.966 1767.49 903.057 1767.98C903.149 1768.48 903.561 1769.48 903.974 1770.19C904.855 1771.72 904.777 1771.95 903.368 1771.93C901.952 1771.91 900.557 1773.76 900.829 1775.3C900.999 1776.26 900.837 1776.48 899.043 1777.71C897.957 1778.46 896.806 1779.11 896.484 1779.17C896.162 1779.23 894.602 1780 893.018 1780.87C890.791 1782.11 884.352 1784.63 882.594 1784.96C881.886 1785.09 878.606 1788.77 878.153 1789.93C877.433 1791.79 877.994 1793.17 880.405 1795.48C884.846 1799.73 888.278 1801.17 892.302 1800.47C894.259 1800.13 894.936 1799.81 897.233 1798.15C900.086 1796.09 901.411 1795.67 905.711 1795.49C906.813 1795.44 908.263 1795.19 908.934 1794.93C910.359 1794.38 912.249 1792.08 912.59 1790.47C912.72 1789.86 913.017 1789.32 913.251 1789.28C913.484 1789.24 914.008 1788.35 914.413 1787.31C914.96 1785.92 915.42 1785.31 916.189 1784.99C917.637 1784.38 918.897 1782.72 919.516 1780.61C920.01 1778.93 921.485 1776.67 922.175 1776.55C922.346 1776.51 922.634 1775.99 922.817 1775.39C923.182 1774.18 925.568 1772 927.042 1771.52C927.557 1771.35 928.771 1770.4 929.739 1769.42C931.334 1767.79 931.631 1767.62 932.884 1767.64C934.801 1767.66 935.004 1767.54 936.835 1765.26C939.396 1762.07 950.243 1750.53 951.632 1749.52C958.534 1744.47 968.822 1735.2 974.903 1728.54C977.221 1726 979.036 1724.39 981.149 1723.01C984.887 1720.56 996.162 1712.41 998.846 1710.21C999.955 1709.31 1002.6 1707.09 1004.72 1705.28C1006.84 1703.48 1011.38 1699.85 1014.8 1697.22C1021.8 1691.84 1022.6 1691.49 1025.5 1692.54C1028.21 1693.52 1032.14 1694.24 1037.04 1694.65C1041.3 1695 1052.58 1697.17 1063.37 1699.7C1068.9 1700.99 1071.77 1701.33 1077.07 1701.31C1085.71 1701.26 1088.29 1701.56 1093.51 1703.18C1098.37 1704.7 1107.72 1708.96 1117.07 1713.92C1122.11 1716.6 1125 1717.74 1126.73 1717.72C1127.62 1717.71 1130.14 1718.77 1134.88 1721.13C1143.74 1725.53 1144.35 1725.76 1146.65 1725.44C1148.32 1725.2 1148.76 1725.31 1150.71 1726.44C1151.91 1727.13 1153.31 1728.1 1153.82 1728.6C1154.34 1729.09 1155.85 1730.11 1157.19 1730.86C1158.53 1731.61 1160.19 1732.84 1160.88 1733.58C1161.58 1734.33 1163.34 1735.79 1164.81 1736.82C1166.27 1737.85 1167.5 1738.88 1167.54 1739.1C1167.65 1739.7 1171.69 1744.97 1172.75 1745.9C1173.24 1746.33 1173.99 1746.62 1174.4 1746.54C1175.42 1746.34 1177.51 1744.35 1179.75 1741.45C1182.26 1738.19 1185.19 1735.14 1189.17 1731.65C1191 1730.04 1193.65 1727.39 1195.04 1725.77C1198.28 1722.02 1205.24 1712.47 1205.63 1711.25C1205.9 1710.4 1205.82 1710.23 1204.72 1709.42C1201.51 1707.07 1198.79 1707.78 1194.01 1712.24C1193.09 1713.11 1191.82 1714.08 1191.2 1714.41C1189.38 1715.37 1185.04 1716.37 1179.09 1717.18L1173.58 1717.93L1174.63 1715.59C1176.25 1711.99 1177.26 1710.64 1179.43 1709.12C1181.85 1707.43 1181.77 1706.74 1179.22 1707.28C1177.25 1707.7 1175.36 1709.12 1174 1711.21C1173.46 1712.04 1172.96 1712.44 1172.53 1712.39C1172.1 1712.33 1171.64 1712.68 1171.2 1713.36C1170.19 1714.96 1168.74 1715.55 1167.04 1715.05C1166.27 1714.82 1165.37 1714.41 1165.06 1714.15C1164.65 1713.81 1164.18 1713.78 1163.45 1714.07C1162.63 1714.38 1162.13 1714.31 1161.03 1713.69C1159.7 1712.94 1159.66 1712.87 1159.86 1711.65C1159.98 1710.95 1160.04 1710.2 1160 1709.98C1159.96 1709.77 1158.83 1709.11 1157.49 1708.53C1156.16 1707.94 1152.63 1706.05 1149.65 1704.32C1140.24 1698.84 1132.14 1694.57 1120.54 1688.98C1116.06 1686.82 1110.36 1684.33 1104.43 1681.93C1099.38 1679.89 1098.07 1679.51 1095.83 1679.43C1093.68 1679.36 1093.02 1679.18 1092.29 1678.47C1090.67 1676.9 1080.9 1671.33 1076.27 1669.33C1073.72 1668.23 1068.31 1666.41 1063.88 1665.18C1059.56 1663.97 1055.96 1662.94 1055.87 1662.89C1055.79 1662.84 1055.86 1662.12 1056.03 1661.29C1056.19 1660.47 1056.24 1659.32 1056.13 1658.74C1055.68 1656.33 1052.84 1654 1048.61 1652.6C1046.38 1651.86 1046.22 1651.74 1044.55 1649.24C1043.59 1647.81 1042.76 1646.35 1042.69 1646.01C1042.63 1645.66 1042.62 1643.52 1042.68 1641.25C1042.85 1634.58 1042.34 1629.95 1040.43 1620.95C1037.8 1608.6 1037.98 1609.02 1031.99 1601.23C1029.11 1597.5 1026.81 1592.21 1025.88 1587.18C1025.15 1583.24 1025.15 1583.17 1026.03 1578.89C1027.27 1572.82 1027.46 1569.7 1026.87 1564.75C1026.59 1562.39 1026.42 1559.41 1026.49 1558.11C1026.56 1556.82 1026.58 1554.73 1026.54 1553.46C1026.49 1552.19 1026.71 1549.49 1027.03 1547.47C1027.36 1545.44 1027.66 1541.69 1027.72 1539.13C1027.8 1535.18 1027.93 1534.31 1028.61 1533.4C1029.64 1532.01 1029.86 1529.62 1029.52 1523.75C1029.3 1520.1 1029.11 1518.79 1028.69 1518.2C1028.27 1517.6 1028.02 1516.06 1027.64 1511.88C1027.02 1504.91 1026.83 1501.05 1027.04 1499.88C1027.29 1498.47 1026.65 1495.62 1025.83 1494.57C1024.85 1493.31 1025.27 1492.58 1027.16 1492.22C1029.36 1491.8 1032.63 1490.24 1034.65 1488.62C1038.39 1485.65 1040.69 1481.54 1041.3 1476.78C1041.59 1474.52 1041.52 1473.66 1040.78 1470.41C1039.96 1466.83 1039.82 1466.52 1037.94 1464.01C1035.32 1460.52 1032.38 1458.49 1028.29 1457.35C1024.08 1456.18 1020.98 1456.28 1017.05 1457.69Z" fill="white"></path> <path fill-rule="evenodd" clip-rule="evenodd" d="M1543.52 10.1182C1540 10.8319 1532.22 12.5001 1530.04 13.0083C1528.76 13.3072 1525.96 13.9562 1523.82 14.4506C1516.32 16.1822 1505.26 19.0942 1498.4 21.1395C1492.97 22.7603 1487.52 24.4322 1485.03 25.2413C1480.61 26.6766 1479.19 27.1449 1476.13 28.1761C1473.14 29.1841 1470.01 30.2645 1466.76 31.4149C1465.76 31.7704 1463.82 32.5014 1461.02 33.5821C1455.86 35.5749 1440.5 41.8019 1437.85 42.9758C1436.17 43.7198 1434.34 44.5066 1433.77 44.7243C1432.31 45.2862 1431.69 45.6187 1431.1 46.1462C1430.82 46.3998 1429.09 48.2649 1427.26 50.291C1425.43 52.3171 1423.15 54.823 1422.21 55.8598C1417.42 61.1033 1412.51 66.4624 1402.95 76.8864C1389.36 91.6973 1390.23 90.7358 1389.53 91.6964L1388.93 92.5291L1390.84 92.1779C1391.88 91.9847 1393.44 91.6484 1394.29 91.4305C1395.14 91.2127 1399.1 90.37 1403.1 89.5581C1424.13 85.2804 1447.19 82.3502 1468.82 81.2064C1475.17 80.8705 1482.33 80.6292 1487.46 80.5779C1491.5 80.5374 1491.79 80.5355 1493.37 80.5367C1496.65 80.5392 1497.34 80.544 1500.16 80.5842C1509.65 80.7194 1517.59 81.0727 1526.51 81.7564C1528.64 81.9197 1535.8 82.5693 1536.94 82.7035C1537.33 82.7492 1538.21 82.8425 1538.89 82.9108C1543.53 83.3752 1550.49 84.1873 1553.46 84.6095C1556.75 85.0767 1558.29 85.3104 1563.66 86.159C1564.84 86.3458 1567.09 86.7004 1568.67 86.9471C1571.84 87.4443 1572.07 87.4852 1577.97 88.6633C1589.46 90.9569 1598.03 92.8406 1603.2 94.2074C1604.03 94.4267 1604.73 94.6032 1604.74 94.5996C1605.01 94.5511 1619.24 98.5157 1623.74 99.8917C1637.76 104.177 1648.22 107.777 1660.13 112.427C1663.07 113.574 1664.23 114.041 1668.3 115.708C1677.41 119.44 1689.86 125.14 1700.06 130.249C1717.35 138.909 1732.78 147.747 1748.55 158.014C1752.57 160.633 1766.59 170.316 1770.35 173.075C1778.25 178.871 1785.49 184.445 1792.61 190.23C1794.05 191.396 1796.03 193.009 1797.02 193.814C1799.31 195.672 1803.64 199.335 1805.69 201.138C1809.22 204.25 1810.79 205.667 1817.1 211.43C1819.31 213.442 1823.68 217.588 1826.11 219.965C1826.85 220.689 1828.53 222.335 1829.84 223.622C1834.57 228.255 1838.3 231.866 1838.32 231.828C1838.33 231.806 1839.28 229.605 1840.43 226.935C1841.58 224.266 1843.25 220.38 1844.15 218.299C1845.05 216.219 1847.42 210.717 1849.42 206.072C1858.67 184.547 1865.71 168.198 1867.24 164.724C1869.15 160.389 1870.37 157.46 1870.42 157.124C1870.47 156.792 1870.42 156.666 1869.97 156.064C1869.55 155.49 1865.14 150.9 1862.73 148.512C1862.34 148.136 1861.81 147.609 1861.54 147.34C1849.28 135.163 1835.08 122.714 1823.05 113.597C1822.14 112.905 1820.57 111.709 1819.56 110.94C1817.25 109.179 1813.42 106.311 1811.67 105.028C1808.76 102.903 1797.37 95.163 1793.83 92.9078C1783.32 86.2119 1774.61 81.0961 1764.76 75.8225C1739.65 62.3781 1713.79 51.8498 1687.55 44.3909C1676.99 41.3885 1669.2 39.4981 1658.83 37.4177C1657.47 37.1436 1656.25 36.8774 1656.12 36.8261C1655.43 36.5532 1671.2 34.5006 1682.1 33.4433C1687.47 32.9228 1690.75 32.6477 1697.05 32.1898C1708.91 31.328 1723.91 30.8123 1736.25 30.8421C1742.9 30.8581 1752.09 31.0299 1756.9 31.2279C1757.76 31.2636 1758.81 31.3027 1759.23 31.3149C1763.01 31.4248 1777.13 32.2653 1781.55 32.6435C1784.52 32.8976 1788.32 33.1368 1789 33.1123L1789.51 33.0937L1788.91 32.6555C1788.58 32.4145 1787.07 31.4493 1785.55 30.5106C1782.95 28.9042 1773.9 23.2796 1771.02 21.478C1770.3 21.0271 1768.26 19.7583 1766.5 18.6584C1764.73 17.5585 1761.76 15.6867 1759.9 14.4989C1756.13 12.1026 1755.31 11.6711 1753.71 11.2388C1752.04 10.7878 1743.01 9.02499 1738.02 8.17305C1737.33 8.05527 1736.3 7.87921 1735.74 7.78185C1730.64 6.89434 1725.81 6.14411 1719.4 5.24235C1714.57 4.56449 1713.77 4.45831 1709.12 3.89138C1703.27 3.17717 1693.96 2.23322 1688.75 1.8261C1687.62 1.73776 1686.35 1.63348 1685.92 1.59453C1684.76 1.48722 1680.36 1.1921 1676.95 0.992803C1675.27 0.895 1673.72 0.799213 1673.49 0.779905C1673.01 0.739194 1669.56 0.571603 1667.73 0.500515C1667.04 0.473591 1665.89 0.427741 1665.16 0.398702C1658.67 0.137525 1650.08 -0.0263535 1644.2 -0.000816726C1644.01 6.43703e-05 1642.73 0.00428803 1641.36 0.00853496C1632.93 0.0351205 1623.61 0.360217 1612.46 1.01722C1608.48 1.25203 1599.25 2.00011 1594.71 2.45632C1577.35 4.20078 1559.62 6.85529 1543.52 10.1182ZM1456.49 185.575C1456.4 185.79 1443.82 233.251 1443.03 236.351C1442.94 236.686 1441.92 240.554 1440.76 244.948C1439.6 249.341 1438.57 253.265 1438.47 253.666C1438.37 254.068 1437.63 256.893 1436.82 259.945C1436.02 262.996 1435.25 265.904 1435.12 266.407C1434.99 266.909 1434.24 269.79 1433.44 272.808C1432.65 275.825 1431.38 280.654 1430.63 283.537C1429.87 286.42 1428.75 290.672 1428.15 292.985C1427.54 295.299 1426.95 297.548 1426.84 297.983C1426.73 298.418 1426.06 300.961 1425.36 303.634C1424.65 306.307 1424.08 308.532 1424.09 308.578C1424.12 308.759 1426.69 308.332 1436.27 306.556L1446.22 304.711L1446.58 303.339C1446.77 302.585 1447.29 300.466 1447.73 298.63C1448.82 294.1 1449.52 291.313 1450.02 289.595L1450.43 288.155L1459.7 286.436C1464.8 285.491 1469.47 284.658 1470.08 284.587L1471.18 284.456L1471.35 285.713C1471.52 287.02 1472.34 293.844 1472.76 297.434C1472.89 298.572 1473.05 299.535 1473.1 299.574C1473.24 299.669 1495.44 295.547 1495.54 295.408C1495.58 295.349 1495.45 294.249 1495.26 292.965C1495.07 291.681 1494.54 288.013 1494.07 284.814C1493.15 278.454 1493.15 278.481 1491.89 269.908C1491.42 266.648 1490.75 262.075 1490.41 259.745C1490.07 257.416 1489.48 253.402 1489.1 250.825C1488.72 248.249 1488.12 244.21 1487.78 241.85C1487.44 239.49 1487.04 236.796 1486.91 235.865C1486.77 234.934 1486.41 232.418 1486.1 230.273C1485.79 228.129 1485.43 225.613 1485.29 224.682C1485.16 223.751 1484.79 221.184 1484.47 218.978C1484.15 216.772 1483.6 212.935 1483.23 210.451C1482.87 207.967 1482.3 204.054 1481.97 201.755C1480.85 194.071 1479.11 182.34 1478.96 181.466L1478.9 181.157L1467.76 183.225L1456.61 185.292L1456.49 185.575ZM1505.64 177.443C1505.59 178.137 1505.49 179.71 1505.41 180.937C1505 187.02 1504.68 191.751 1504.52 194.033C1504.42 195.423 1504.27 197.696 1504.17 199.085C1504.08 200.474 1503.93 202.641 1503.84 203.901C1503.43 209.838 1503.21 213.195 1502.68 221.63C1502.36 226.633 1502.04 231.651 1501.96 232.782C1501.88 233.913 1501.77 235.525 1501.72 236.365C1501.66 237.205 1501.49 239.663 1501.33 241.829C1501.18 243.994 1500.99 246.771 1500.9 247.999C1500.81 249.227 1500.63 251.713 1500.5 253.524C1500.37 255.334 1500.13 258.693 1499.97 260.988C1499.81 263.282 1499.57 266.535 1499.45 268.216C1498.78 277.683 1497.73 294.536 1497.8 294.908L1497.84 295.14L1508.86 293.063C1514.92 291.92 1519.91 290.946 1519.94 290.897C1519.98 290.848 1520.12 288.968 1520.27 286.72C1520.41 284.471 1520.68 280.412 1520.85 277.7C1522.06 259.214 1522.07 259.046 1522.52 252.513C1522.93 246.444 1523.95 233.261 1524.03 232.863C1524.07 232.676 1524.4 233.558 1525.14 235.847C1525.37 236.569 1525.98 238.414 1526.48 239.947C1526.98 241.481 1527.58 243.301 1527.8 243.993C1528.03 244.686 1528.52 246.186 1528.89 247.328C1529.66 249.655 1530.59 252.483 1531.56 255.417C1531.91 256.499 1532.5 258.295 1532.87 259.407C1533.23 260.519 1533.89 262.511 1534.32 263.834C1534.76 265.157 1535.54 267.518 1536.05 269.081C1537.36 273.04 1539.25 278.829 1540.35 282.201C1540.86 283.765 1541.41 285.445 1541.57 285.935L1541.86 286.825L1544.14 286.481C1545.39 286.291 1550.41 285.377 1555.31 284.45L1564.2 282.763L1564.23 282.179C1564.24 281.857 1564.39 279.612 1564.56 277.188C1565.04 270.308 1565.07 269.857 1565.22 267.642C1565.3 266.495 1565.43 264.618 1565.5 263.472C1565.58 262.325 1565.69 260.699 1565.75 259.859C1565.81 259.019 1566.37 250.799 1567 241.593C1567.62 232.387 1568.21 223.85 1568.29 222.622C1568.51 219.443 1568.69 216.723 1568.99 212.287C1569.13 210.155 1569.33 207.09 1569.44 205.475C1569.55 203.86 1569.73 201.164 1569.85 199.485C1569.96 197.806 1570.11 195.533 1570.19 194.435C1570.26 193.336 1570.41 191.169 1570.51 189.619C1570.61 188.069 1570.75 186.114 1570.8 185.273C1570.86 184.433 1571.04 181.87 1571.19 179.577C1571.6 173.342 1571.84 169.81 1572.05 166.736C1572.16 165.214 1572.24 163.941 1572.23 163.907C1572.22 163.872 1567.09 164.796 1560.82 165.959L1549.42 168.075L1549.35 169.16C1549.31 169.757 1549.22 171.145 1549.14 172.243C1549.03 173.842 1547.73 193.067 1547.03 203.37C1546.95 204.532 1546.83 206.356 1546.75 207.422C1546.68 208.489 1546.55 210.339 1546.48 211.534C1546.4 212.729 1546.27 214.578 1546.2 215.645C1546.12 216.711 1546 218.561 1545.92 219.756C1545.84 220.951 1545.71 222.801 1545.64 223.867C1545.51 225.735 1545.24 229.669 1545.18 230.603C1545.17 230.851 1545.13 231.04 1545.11 231.023C1545.06 230.985 1542.75 224.182 1541.02 218.983C1539.49 214.365 1537.7 208.923 1536.63 205.647C1536.34 204.745 1535.79 203.072 1535.42 201.929C1533.93 197.39 1533.67 196.589 1532.88 194.165C1530.95 188.251 1527.88 178.989 1526.5 174.936L1525.68 172.536L1515.7 174.358L1505.72 176.18L1505.64 177.443ZM1577.24 163.348C1577.22 163.591 1577.12 165.057 1577.02 166.607C1576.83 169.388 1576.71 171.201 1576.46 174.772C1576.02 181.082 1575.64 187.894 1575.7 188.246C1575.73 188.422 1576.07 188.383 1579.7 187.779C1581.88 187.417 1586.55 186.585 1590.08 185.93C1596.15 184.805 1596.5 184.75 1596.48 184.946C1596.47 185.06 1596.29 187.794 1596.09 191.021C1595.64 198.086 1595.18 205.231 1594.74 211.626C1594.67 212.627 1594.55 214.477 1594.46 215.737C1594.23 219.195 1594.01 222.452 1593.9 223.96C1593.23 233.586 1592.19 248.854 1591.49 259.608C1591.2 263.99 1590.35 277.829 1590.37 277.905C1590.38 277.991 1608.46 274.625 1610.67 274.125L1612.51 273.707L1612.88 267.829C1613.25 261.762 1613.53 257.662 1613.94 251.672C1614.08 249.766 1614.26 247.175 1614.34 245.915C1614.43 244.656 1614.55 242.832 1614.62 241.863C1614.69 240.893 1614.81 239.043 1614.9 237.751C1614.99 236.459 1615.11 234.609 1615.18 233.64C1615.25 232.671 1615.37 230.821 1615.46 229.529C1615.55 228.237 1615.67 226.386 1615.74 225.417C1615.81 224.448 1615.93 222.598 1616.02 221.306C1616.11 220.014 1616.23 218.15 1616.3 217.165C1616.37 216.18 1616.48 214.567 1616.55 213.582C1616.62 212.596 1616.74 210.733 1616.83 209.441C1616.92 208.149 1617.05 206.299 1617.11 205.33C1617.18 204.361 1617.3 202.51 1617.39 201.218C1617.48 199.926 1617.61 198.076 1617.67 197.107C1617.74 196.138 1617.86 194.288 1617.95 192.996C1618.04 191.704 1618.17 189.853 1618.23 188.884C1618.3 187.915 1618.44 185.854 1618.54 184.304C1618.8 180.369 1618.7 180.778 1619.44 180.537C1619.78 180.425 1624.1 179.593 1629.03 178.688C1633.96 177.783 1638.17 176.979 1638.39 176.902C1638.68 176.801 1638.8 176.689 1638.81 176.504C1638.86 175.997 1639.26 170.171 1639.55 165.966C1639.78 162.507 1640.39 152.56 1640.43 151.449L1640.45 151.187L1608.86 157.047L1577.27 162.908L1577.24 163.348ZM1650.32 150.063C1650.14 150.485 1649.95 151.122 1649.89 151.479C1649.78 152.071 1649.49 153.294 1648.8 155.958C1648.66 156.493 1647.32 161.57 1645.82 167.238C1643.33 176.647 1642.38 180.264 1641.09 185.282C1640.84 186.254 1640.28 188.314 1639.85 189.86C1638.77 193.769 1637.58 198.184 1637 200.422C1636.73 201.46 1636.07 204.01 1635.53 206.087C1635 208.165 1634.05 211.81 1633.44 214.189C1632.1 219.406 1630.72 224.607 1629.83 227.893C1629.46 229.228 1629.17 230.334 1629.17 230.35C1629.17 230.367 1628.88 231.472 1628.51 232.806C1627.83 235.303 1627.03 238.359 1625.2 245.351C1624.62 247.563 1623.9 250.333 1623.59 251.506C1623.28 252.68 1622.62 255.257 1622.11 257.233C1621.59 259.21 1620.71 262.609 1620.14 264.788C1618.48 271.164 1618.12 272.599 1618.14 272.708C1618.16 272.822 1638.8 269.027 1639.71 268.74L1640.26 268.569L1640.52 267.576C1640.67 267.031 1641.42 264.014 1642.19 260.872C1642.96 257.73 1643.78 254.452 1644.01 253.587L1644.43 252.014L1645.13 251.959C1645.52 251.928 1650.19 251.095 1655.51 250.108L1665.19 248.313L1665.32 249.418C1665.4 250.026 1665.59 251.621 1665.75 252.964C1666.35 258.08 1666.92 262.671 1667.01 263.189L1667.11 263.729L1677.61 261.766C1683.39 260.687 1688.46 259.707 1688.88 259.588L1689.66 259.373L1689.53 258.527C1689.46 258.061 1689.01 255.013 1688.53 251.753C1688.05 248.492 1687.46 244.428 1687.2 242.72C1686.36 236.992 1685.44 230.739 1684.6 224.936C1684.14 221.768 1683.47 217.194 1683.12 214.772C1682.25 208.781 1681.79 205.609 1680.8 198.848C1679.21 187.863 1678.7 184.363 1677.83 178.465C1677.35 175.206 1676.89 172.003 1676.8 171.349C1676.71 170.696 1676.32 168.002 1675.93 165.365C1675.53 162.727 1675.05 159.424 1674.85 158.025C1673.7 149.882 1673 145.479 1672.84 145.344C1672.7 145.226 1671.15 145.491 1661.65 147.252L1650.63 149.297L1650.32 150.063ZM1658.91 186.401C1659.22 189.088 1660.14 199.156 1661.1 210.39C1662 220.782 1662.16 222.788 1662.21 223.754L1662.27 224.788L1655.85 225.969C1652.32 226.618 1649.4 227.127 1649.36 227.101C1649.3 227.057 1651 218.99 1652.26 213.306C1652.75 211.103 1653.47 207.84 1654.23 204.417C1654.45 203.386 1654.73 202.135 1654.84 201.636C1655.16 200.188 1657.41 189.735 1657.68 188.409C1658.06 186.543 1658.58 184.46 1658.64 184.504C1658.67 184.526 1658.79 185.379 1658.91 186.401ZM1464.78 221.499C1465.29 226.362 1466.18 235.894 1466.74 242.391C1466.91 244.384 1467.16 247.278 1468.03 257.518C1468.14 258.805 1468.25 260.082 1468.26 260.355L1468.29 260.852L1461.92 261.996C1458.41 262.626 1455.5 263.112 1455.45 263.077C1455.3 262.976 1455.92 259.733 1457 254.867C1459 245.909 1459.67 242.883 1461.14 236.064C1461.96 232.243 1462.97 227.646 1463.38 225.848C1463.79 224.049 1464.23 222.128 1464.35 221.579C1464.48 221.03 1464.6 220.576 1464.63 220.57C1464.66 220.565 1464.73 220.983 1464.78 221.499Z" fill="white"></path> <path fill-rule="evenodd" clip-rule="evenodd" d="M484.908 208.336C481.671 210.641 477.244 215.59 473.359 221.246C467.943 229.128 466.53 232.381 463.303 244.38C461.239 252.06 458.373 262.714 456.936 268.055C454.024 278.872 447.148 290.186 440.559 294.999C431.946 301.291 418.706 302.351 402.863 298.018C391.278 294.849 381.766 290.531 366.443 281.485C333.994 262.328 308.817 252.749 289.771 252.311C285.216 252.207 281.743 251.511 280.888 250.532C280.116 249.647 278.49 248.048 277.274 246.977L275.066 245.031L272.412 248.705L269.759 252.379L266.43 249.815L263.101 247.251L261.731 250.18C260.977 251.792 258.309 256.132 255.802 259.824C253.296 263.516 251.381 267.274 251.547 268.174C251.714 269.074 250.688 271.588 249.267 273.76C247.846 275.933 246.776 278.211 246.89 278.823C247.004 279.436 250.336 281.977 254.295 284.472L261.493 289.006L268.707 287.668C276.443 286.233 280.577 287.589 281.362 291.819C282.012 295.328 279.809 296.662 272.225 297.349C259.29 298.521 249.728 304.934 249.237 312.767C249.01 316.393 252.594 320.261 257.433 321.613C261.771 322.826 264.618 321.003 264.673 316.977C264.699 315.145 265.315 313.281 266.044 312.834C266.771 312.388 273.46 313.288 280.906 314.834C292.666 317.277 295.452 317.465 302.109 316.261C309.056 315.004 310.172 314.465 314.059 310.486C316.418 308.073 318.614 306.048 318.942 305.987C319.269 305.926 324.827 309.084 331.293 313.003C337.759 316.922 345.361 320.964 348.187 321.985C357.318 325.284 369.451 326.325 383.244 324.993C399.793 323.396 404.023 323.753 411.333 327.368C416.605 329.977 418.577 332.013 428.293 344.888C434.34 352.901 441.395 361.537 443.97 364.081C449.195 369.243 461.138 377.759 469.399 382.215L474.827 385.142L477.52 395.573C479.132 401.818 481.161 407.224 482.576 409.044C485.912 413.337 490.811 415.61 495.036 414.826C498.619 414.161 499.007 413.345 497.895 408.802C497.686 407.946 497.514 404.604 497.511 401.373C497.508 396.118 497.12 394.962 493.832 390.413C491.809 387.617 489.421 383.102 488.522 380.379C487.143 376.198 486.062 374.962 481.561 372.429C472.985 367.6 470.984 364.359 467.471 349.619C463.532 333.086 459.498 323.316 452.99 314.546L447.753 307.488L450.757 303.949C456.447 297.245 460.02 291.088 461.481 285.463C470.902 249.213 473.048 244.794 486.784 233.344C497.077 224.765 500.241 221.013 501.292 216.138C502.457 210.733 501.699 208.226 498.168 205.801C494.251 203.11 491.503 203.635 484.908 208.336ZM336.449 363.487C334.355 364.313 331.946 365.822 331.097 366.84C327.221 371.488 327.422 373.241 338.969 435.48L349.985 494.855L367.65 491.275L385.316 487.694L382.622 472.164L379.929 456.633L385.48 455.27L391.031 453.905L394.016 469.993L397 486.079L414.635 482.808L432.269 479.536L421.111 419.42C410.396 361.68 409.846 359.183 407.233 356.269C402.075 350.517 400.574 350.528 368.878 356.549C353.138 359.538 338.545 362.662 336.449 363.487ZM12.3188 490.839L24.64 555.714L42.0618 552.786L59.4835 549.858L56.6431 534.548C54.6984 524.066 54.1318 518.759 54.8473 517.718C55.575 516.659 61.2111 515.211 73.4151 512.946C92.4196 509.421 95.5615 507.996 96.9909 502.258C97.4458 500.431 95.1944 486.109 90.3413 459.95C82.2898 416.551 82.0352 415.775 75.1633 413.695C72.2923 412.826 65.8294 413.75 35.8627 419.31L-0.0013019 425.963L12.3188 490.839ZM93.8411 409.291C93.5214 409.754 98.1617 436.554 104.152 468.844C116.044 532.94 115.727 531.818 122.871 535.279C125.961 536.776 128.129 536.535 156.88 531.504C191.159 525.506 193.377 524.721 196.092 517.615C197.562 513.769 197.331 512.27 186.226 453.876L174.854 394.076L157.433 397.004L140.011 399.932L150.183 454.762C159.069 502.657 160.201 509.931 159.132 512.275C157.614 515.607 154.545 516.272 151.222 513.989C148.753 512.293 148.423 510.823 138.476 457.207L128.265 402.167L111.343 405.306C102.035 407.033 94.1595 408.826 93.8411 409.291ZM193.063 392.336C187.528 397.299 187.465 396.649 199.798 461.384L211.073 520.574L228.156 517.404L245.238 514.235L235.17 459.967C226.378 412.579 225.256 405.358 226.325 403.015C227.895 399.569 233.148 398.407 235.254 401.039C236.225 402.253 240.268 421.901 246.869 457.477L256.994 512.054L274.619 508.784L292.243 505.514L282.281 450.271L272.318 395.026L274.839 392.3L277.359 389.572L280.512 391.596L283.665 393.622L293.842 448.475L304.019 503.33L321.157 500.15L338.297 496.97L326.573 435.485L314.85 374.001L310.781 371.53L306.712 369.06L251.422 379.322C198.255 389.189 196.014 389.689 193.063 392.336ZM373.903 374.007C376.493 375.432 376.614 375.915 381.989 406.502L387.444 437.55L382.1 438.542L376.757 439.533L370.741 408.695C365.365 381.13 364.877 377.612 366.146 375.552C367.928 372.661 370.517 372.145 373.903 374.007ZM48.869 436.076C50.664 437.951 51.7483 442.658 56.0915 467.421L61.2032 496.558L58.7315 498.765C57.1551 500.172 55.1871 500.904 53.3024 500.786L50.3452 500.601L44.4337 468.738C41.1823 451.212 38.7831 436.493 39.1028 436.029C39.4212 435.564 41.2747 434.889 43.2209 434.527C45.7549 434.057 47.3578 434.497 48.869 436.076Z" fill="white"></path> <path fill-rule="evenodd" clip-rule="evenodd" d="M838.125 141.917C837.913 142.461 836.733 146.297 835.504 150.443C832.8 159.566 831.095 164.287 830.461 164.404C829.871 164.514 828.167 162.415 820.626 152.287C819.263 150.457 818.054 149.203 817.714 149.266C816.63 149.467 812.996 151.534 810.845 153.173L808.706 154.804L809.829 161.461L810.952 168.117L808.461 168.353C807.092 168.482 804.59 168.549 802.902 168.501C793.621 168.24 794.066 168.084 790.843 172.708C789.348 174.854 788.172 176.866 788.23 177.181C788.289 177.495 789.466 178.658 790.847 179.766C795.052 183.138 805.598 191.426 808.288 193.472C809.921 194.714 810.713 195.562 810.514 195.852C810.343 196.101 808.915 196.645 807.339 197.062L804.475 197.82L799.016 193.627C788.099 185.243 785.092 182.998 784.846 183.043C784.198 183.163 781.994 187.444 782.149 188.281C782.197 188.539 785.084 191.118 788.564 194.012C792.045 196.905 794.96 199.539 795.044 199.865C795.209 200.513 794.3 200.845 785.933 203.194C783.38 203.911 780.251 204.82 778.981 205.214L776.672 205.93L776.118 209.759C775.136 216.56 775.027 219.721 775.524 227.106C775.813 231.41 777.9 242.646 779.069 246.19C780.553 250.695 782.178 254.86 783.289 257.008C783.869 258.132 784.591 259.555 784.892 260.171C788.33 267.2 793.114 273.746 798.736 279.111C801.535 281.782 800.309 281.8 808.945 278.962C818.749 275.742 825.34 274.158 838.951 271.754C846.321 270.451 855.485 268.998 859.315 268.525C863.145 268.051 869.763 267.194 874.022 266.618C878.281 266.043 885.033 265.182 889.028 264.706C896.419 263.825 904.203 262.238 913.252 259.766C918.278 258.393 926.064 255.958 927.487 255.313C927.9 255.126 929.513 254.44 931.071 253.787C932.629 253.135 934.078 252.393 934.291 252.139C935.691 250.468 938.814 238.697 939.388 232.933C940.3 223.773 940.302 222.439 939.412 212.937C938.666 204.957 935.478 193.815 932.144 187.53C931.515 186.345 931.417 186.312 929.889 186.77C929.011 187.032 927.021 187.86 925.468 188.608C923.915 189.356 921.793 190.258 920.751 190.612C919.711 190.965 918.705 191.413 918.517 191.606C918.329 191.8 916.992 192.492 915.546 193.145C911.233 195.093 910.388 195.492 908.255 196.594C907.133 197.173 905.443 197.936 904.498 198.289C903.553 198.643 901.483 199.549 899.897 200.304C898.311 201.058 895.936 202.08 894.62 202.575C893.303 203.069 891.845 203.644 891.38 203.851C890.748 204.133 890.502 204.055 890.407 203.544C890.217 202.522 892.759 195.918 893.878 194.524C894.217 194.103 896.282 193.034 898.469 192.149C909.585 187.646 911.801 186.538 916.931 182.91C917.735 182.341 918.609 181.836 918.873 181.787C919.137 181.738 920.11 181.124 921.035 180.424C921.961 179.723 923.386 178.795 924.201 178.363C926.248 177.276 926.385 176.987 925.519 175.59C924.113 173.32 922.55 171.335 922.217 171.397C922.034 171.431 920.618 172.263 919.071 173.247C917.523 174.23 915.028 175.815 913.526 176.768C912.024 177.722 909.903 179.122 908.814 179.879C907.724 180.635 906.228 181.455 905.488 181.7C904.749 181.945 903.728 182.375 903.22 182.655C902.713 182.936 900.975 183.73 899.359 184.42C895.335 186.138 895.086 185.881 896.609 181.571C897.27 179.697 898.074 177.383 898.394 176.428C898.715 175.473 899.395 173.576 899.908 172.214L900.839 169.736L904.233 168.872C906.099 168.397 909.019 167.564 910.721 167.022C912.423 166.48 914.559 165.898 915.468 165.73C916.376 165.561 917.101 165.322 917.078 165.198C916.967 164.602 914.32 161.92 912.932 160.998L911.369 159.96L901.803 161.475C894.643 162.608 892.105 162.879 891.713 162.553C891.116 162.055 891.32 161.415 894.36 154.258C895.423 151.754 896.265 149.583 896.23 149.433C895.997 148.435 892.578 146.916 891.732 147.434C891.451 147.606 889.204 152.034 886.737 157.275C884.271 162.516 881.903 167.51 881.475 168.373C881.047 169.235 880.381 170.686 879.994 171.596C878.875 174.229 878.681 174.092 875.545 168.455C874.755 167.034 873.563 164.968 872.895 163.864C872.228 162.76 871.627 161.56 871.56 161.199C871.493 160.837 872.228 159.615 873.194 158.484C874.159 157.353 875.162 156.095 875.423 155.688C875.683 155.282 877.781 152.525 880.086 149.561C882.391 146.598 884.251 144.036 884.22 143.868C884.189 143.701 883.324 143.3 882.298 142.978L880.432 142.392L873.464 148.061C869.631 151.178 866.253 153.685 865.957 153.63C865.662 153.575 863.821 151.563 861.867 149.158C859.913 146.754 857.503 143.838 856.512 142.678C855.521 141.519 854.441 140.227 854.113 139.807C853.785 139.387 852.964 139.035 852.288 139.026C850.39 139 847.608 139.604 847.687 140.027C847.772 140.488 849.744 143.707 851.218 145.793C851.811 146.632 852.316 147.424 852.339 147.552C852.386 147.805 854.964 151.671 857.397 155.137C858.232 156.327 859.133 157.717 859.399 158.225C859.665 158.733 860.076 159.318 860.314 159.524C860.985 160.106 860.106 160.857 857.914 161.572L855.939 162.216L854.897 160.835C850.629 155.181 840.051 141.565 839.663 141.225C838.968 140.617 838.562 140.8 838.125 141.917ZM930.013 139.793C927.129 141.117 925.571 143.45 925.136 147.096C924.959 148.58 925.078 149.087 926.009 150.801C928.027 154.52 930.66 155.734 934.996 154.949C937.571 154.482 937.942 154.302 939.08 152.969C940.774 150.986 941.43 149.552 941.521 147.635C941.805 141.643 935.436 137.303 930.013 139.793ZM935.725 140.419C939.908 141.66 941.736 147.37 939.206 151.295C936.775 155.065 931.512 155.404 928.175 152.006C926.826 150.634 925.95 146.925 926.528 145.035C927.731 141.092 931.543 139.179 935.725 140.419ZM843.521 157.068C843.559 157.27 844.331 158.479 845.237 159.757C846.143 161.034 847.882 163.631 849.1 165.527L851.316 168.974L851.641 175.99C852.007 183.898 852.283 183.033 847.986 187.449C846.786 188.682 845.59 189.651 845.328 189.603C845.066 189.554 843.066 186.056 840.883 181.828L836.915 174.142L838.033 170.604C838.648 168.658 839.868 164.781 840.745 161.987C841.632 159.161 842.586 156.863 842.896 156.806C843.203 156.749 843.484 156.867 843.521 157.068ZM820.967 165.907C822.304 167.756 823.434 169.47 823.48 169.715C823.585 170.282 822.101 170.564 820.393 170.303L819.074 170.1L818.436 166.663C817.869 163.605 817.857 162.672 818.382 162.575C818.468 162.559 819.631 164.059 820.967 165.907ZM929.548 143.709C929.338 144.845 931.1 151.973 931.608 152.043C931.937 152.088 932.028 151.46 931.876 150.195C931.666 148.448 931.733 148.262 932.629 148.095C933.374 147.957 933.984 148.312 935.139 149.556C935.978 150.459 936.887 151.161 937.158 151.115C937.847 150.997 937.754 150.805 936.254 149.252L934.933 147.884L935.948 146.508C937.129 144.909 937.067 143.912 935.723 142.917C934.924 142.325 934.328 142.285 932.206 142.679C930.452 143.004 929.619 143.327 929.548 143.709ZM934.851 143.782C936.106 144.74 935.528 145.966 933.51 146.628C932.615 146.921 931.725 147.101 931.533 147.026C931.111 146.862 930.62 144.44 930.92 144.003C931.392 143.315 934.044 143.166 934.851 143.782ZM802.414 175.742C804.01 175.897 806.847 176.135 808.72 176.271L812.124 176.519L813.095 181.752C813.628 184.63 813.919 187.012 813.74 187.045C813.561 187.078 811.725 185.82 809.66 184.25C807.594 182.679 804.423 180.319 802.612 179.005C799.539 176.777 798.411 175.626 799.186 175.51C799.366 175.483 800.818 175.588 802.414 175.742ZM865.114 168.595C865.32 169.25 865.07 170.006 864.285 171.112C863.032 172.877 862.157 172.988 861.559 171.456C861.228 170.609 861.388 170.209 862.546 168.992C864.116 167.342 864.694 167.252 865.114 168.595ZM825.029 179.272C825.273 179.44 825.757 179.524 826.105 179.459C826.454 179.394 827.074 179.509 827.484 179.712C828.144 180.041 828.191 180.228 827.897 181.365C827.348 183.487 826.48 187.189 825.949 189.664C825.46 191.95 824.807 193.464 824.435 193.177C824.332 193.098 823.57 189.887 822.742 186.043L821.236 179.053L822.911 179.01C823.833 178.987 824.786 179.105 825.029 179.272ZM892.09 172.407C892.217 172.551 891.066 176.016 889.533 180.107L886.745 187.544L883.905 188.191C881.657 188.704 881.086 188.721 881.169 188.274C881.226 187.963 882.011 185.932 882.912 183.76C883.814 181.587 884.733 179.279 884.957 178.63C885.18 177.982 885.78 176.553 886.29 175.455C887.137 173.635 887.382 173.415 889.084 172.96C890.11 172.685 891.154 172.389 891.405 172.302C891.655 172.216 891.964 172.263 892.09 172.407ZM872.457 180.051C873.824 182.64 874.107 183.486 873.98 184.592C873.807 186.099 865.144 203.091 864.466 203.255C864.177 203.324 863.505 200.911 862.398 195.826L860.758 188.295L862.268 186.413C865.294 182.643 870.201 176.977 870.486 176.924C870.646 176.894 871.533 178.301 872.457 180.051ZM838.153 196.661C841.302 203.883 841.575 204.684 840.916 204.76C840.179 204.846 833.477 199.467 833.33 198.671C833.144 197.673 834.928 191.662 835.438 191.567C835.703 191.518 836.847 193.665 838.153 196.661ZM853.254 196.366C853.407 197.186 853.668 199.233 853.835 200.915C854.171 204.296 853.898 204.631 851.414 203.879C850.299 203.542 850.115 203.261 849.403 200.816C848.971 199.336 848.701 197.913 848.801 197.654C849.054 197.003 852.245 194.594 852.649 194.749C852.83 194.818 853.102 195.546 853.254 196.366ZM813.952 202.952L819.567 202.39L821.997 203.961C823.333 204.826 824.463 205.728 824.507 205.968C824.596 206.449 816.517 216.785 815.801 217.106C815.122 217.41 802.808 214.877 802.531 214.376C802.399 214.137 803.263 211.668 804.451 208.888C806.112 205.005 806.812 203.798 807.475 203.675C807.95 203.587 810.865 203.262 813.952 202.952ZM795.109 207.699C795.241 208.44 793.016 213.766 792.607 213.69C789.417 213.092 782.282 210.941 782.21 210.554C782.14 210.176 783.077 209.824 785.731 209.234C794.504 207.28 795.02 207.196 795.109 207.699ZM883.416 198.773C883.479 199.113 883.169 200.224 882.728 201.242C882.287 202.259 881.455 204.423 880.88 206.049C879.762 209.214 879.771 209.206 875.884 210.286C873.9 210.837 873.445 210.852 873.356 210.37C873.27 209.908 876.442 201.062 877.02 200.152C877.181 199.898 880.257 198.851 882.032 198.446C882.947 198.236 883.333 198.328 883.416 198.773ZM835.613 211.946C836.997 212.842 838.18 213.858 838.243 214.206C838.345 214.778 832.958 219.769 824.439 226.995C823.037 228.185 821.911 229.275 821.938 229.419C821.964 229.562 825.459 228.979 829.704 228.122L837.422 226.563L841.246 223.233C843.349 221.401 845.203 219.878 845.364 219.848C845.715 219.783 848.472 222.354 850.443 224.583L851.851 226.175L854.579 240.844C856.913 253.387 857.23 255.561 856.771 255.842C856.476 256.023 854.555 256.287 852.504 256.428C850.452 256.57 844.797 256.969 839.936 257.316C835.074 257.662 829.734 258.004 828.068 258.075C823.041 258.291 809.046 259.965 803.17 261.055C796.806 262.235 796.267 262.136 794.466 259.466C792.46 256.491 788.155 244.448 787.051 238.72C786.358 235.126 786.563 234.827 790.184 234.155C792.881 233.655 792.87 233.668 796.202 226.825C797.248 224.676 798.394 222.863 798.749 222.797C799.891 222.585 808.767 224.219 809.83 224.837C810.357 225.143 809.911 226.38 808.119 229.578C807.282 231.073 806.611 232.371 806.627 232.461C806.644 232.553 807.399 232.424 808.304 232.176C809.21 231.928 811.28 231.37 812.903 230.936L815.856 230.148L820.989 224.057C823.813 220.707 827.549 216.276 829.293 214.21C831.036 212.144 832.605 210.423 832.78 210.386C832.954 210.349 834.229 211.051 835.613 211.946ZM786.183 219.788C786.423 219.94 787.337 220.155 788.213 220.266C789.135 220.383 789.765 220.679 789.711 220.97C789.534 221.927 786.233 228.376 785.888 228.44C785.373 228.535 784.262 222.028 784.577 220.764C784.856 219.645 785.416 219.304 786.183 219.788ZM927.325 198.738C930.547 203.096 933.182 213.933 932.93 221.784C932.606 231.906 929.101 247.406 926.457 250.415C925.467 251.543 926.322 251.397 909.017 253.394C896.246 254.869 889.11 255.391 875.971 255.812C875.026 255.843 874.223 255.592 873.877 255.16C872.889 253.926 867.214 233.026 866.537 228.131L866.126 225.154L868.52 223.798C869.837 223.051 872.341 221.737 874.084 220.877C875.827 220.017 880.185 217.834 883.767 216.025C887.35 214.217 890.566 212.684 890.915 212.619C891.264 212.554 892.696 213.564 894.097 214.864C895.499 216.164 896.783 217.276 896.952 217.335C897.334 217.467 902.057 216 902.277 215.681C902.365 215.553 901.573 214.312 900.517 212.923C899.462 211.535 898.582 210.313 898.563 210.208C898.524 209.999 899.531 209.519 904.803 207.235C910.36 204.827 909.953 204.759 915.056 208.953L919.5 212.606L923.302 211.901C925.393 211.513 927.184 211.08 927.281 210.938C927.379 210.796 925.817 208.685 923.812 206.246C921.805 203.807 920.167 201.53 920.171 201.185C920.178 200.583 925.233 197.635 926.159 197.693C926.386 197.707 926.91 198.178 927.325 198.738ZM928.67 258.397C927.927 258.614 926.643 259.1 925.817 259.477C922.855 260.83 912.947 263.489 903.328 265.514C893.602 267.561 888.581 268.299 868.062 270.696C860.686 271.558 852.661 272.841 840.192 275.152C822.791 278.377 818.321 279.455 807.659 283.002C806.183 283.492 804.755 283.941 804.486 283.998C803.701 284.166 804.036 284.782 805.567 285.987C806.985 287.104 807.029 287.108 811.273 286.578C816.803 285.886 824.394 285.164 827.973 284.988C829.526 284.912 834.244 284.669 838.456 284.448C842.669 284.226 846.456 284.085 846.871 284.133C847.286 284.181 850.571 284.113 854.17 283.981C857.769 283.848 861.629 283.739 862.748 283.737C863.867 283.735 866.415 283.649 868.411 283.547C870.407 283.444 873.502 283.343 875.289 283.321C878.964 283.278 890.115 282.597 896.42 282.03C898.732 281.822 901.895 281.591 903.448 281.517C905.001 281.443 908.79 280.927 911.866 280.369L917.46 279.356L919.594 277.047C923.326 273.011 932.444 258.991 932.198 257.668C932.161 257.471 931.069 257.697 928.67 258.397ZM811.595 289.952C811.687 290.449 816.314 293.632 818.594 294.768C819.457 295.197 820.273 295.647 820.408 295.768C820.682 296.014 825.678 298.165 830.464 300.097C835.016 301.935 843.502 303.974 847.833 304.27C857.329 304.921 860.633 304.876 867.645 304.004C873.285 303.302 883.148 301.038 885.489 299.906C886.208 299.559 887.279 299.184 887.868 299.073C888.984 298.864 897.215 295.082 898.474 294.201C898.87 293.923 900.303 293.064 901.659 292.291C903.014 291.519 904.515 290.512 904.995 290.053C905.474 289.594 905.989 289.196 906.14 289.168C906.291 289.14 907.681 288.021 909.228 286.681C911.968 284.308 912.01 284.243 910.836 284.181C910.172 284.146 906.477 284.403 902.623 284.752C898.77 285.101 893.992 285.508 892.004 285.657C876.954 286.784 876.649 286.799 869.225 286.835C867.323 286.844 864.231 286.961 862.353 287.096C860.475 287.23 858.111 287.324 857.1 287.304C855.169 287.266 849.65 287.376 844.528 287.556C842.86 287.615 839.853 287.699 837.847 287.743C831.131 287.892 828.978 288.011 822.536 288.593C819.013 288.911 815.093 289.251 813.823 289.349C812.284 289.467 811.542 289.668 811.595 289.952ZM705.031 338.112C704.431 338.796 703.41 339.62 702.761 339.944C702.112 340.268 692.399 342.25 681.177 344.348L660.773 348.164L659.094 347.233C656.187 345.623 654.125 346.774 653.855 350.157C653.689 352.241 653.221 369.618 653.234 373.204C653.242 375.295 653.411 376.224 653.965 377.234C655.884 380.728 660.857 380.548 662.646 376.921C663.023 376.157 663.811 373.427 664.396 370.856C665.993 363.834 666.757 361.473 668.103 359.405C669.439 357.352 670.875 356.757 672.514 357.576C673.396 358.017 673.534 358.658 680.721 395.801C685.725 421.662 687.99 434.083 687.903 435.178C687.762 436.941 687.191 437.909 685.474 439.295C684.506 440.076 684.387 440.4 684.688 441.439C684.973 442.421 685.385 442.768 686.77 443.194C688.375 443.687 689.232 443.596 698.945 441.9C709.671 440.028 713.497 438.984 715.257 437.449C716.143 436.677 716.274 436.667 717.435 437.275C718.628 437.901 719.017 437.859 729.057 435.996C740.091 433.949 741.591 433.445 742.182 431.587C742.671 430.049 742.242 429.191 740.702 428.629C737.858 427.593 737.902 427.75 732.09 398.06C727.587 375.06 726.787 371.396 726.157 370.897C725.057 370.024 721.628 370.782 719.511 372.367C718.584 373.061 715.468 375.039 712.587 376.763C707.311 379.92 705.926 381.056 705.422 382.64C705.183 383.39 705.527 383.742 708.054 385.343L710.96 387.185L714.977 407.987C718.713 427.331 718.965 428.902 718.567 430.4C718.169 431.897 716.56 433.832 715.556 434.022C714.848 434.155 712.269 432.888 711.172 431.867C710.167 430.93 710.05 430.395 702.615 392.749C694.352 350.91 694.62 352.834 696.984 352.395C697.618 352.277 698.578 352.292 699.117 352.427C700.372 352.741 703.338 355.509 705.224 358.124C712.765 368.586 713.193 368.977 716.48 368.418C717.978 368.164 718.433 367.871 719.361 366.564C719.967 365.71 720.479 364.527 720.498 363.935C720.546 362.492 714.791 348.4 710.46 339.353C709.638 337.635 708.132 336.486 706.99 336.703C706.512 336.795 705.631 337.429 705.031 338.112ZM1094.23 268.785C1091.35 270.754 1088.11 273.019 1087.02 273.819C1085.94 274.619 1084.03 275.595 1082.77 275.987C1080.23 276.777 1079.58 277.567 1079.92 279.429C1080.07 280.233 1080.57 280.811 1081.59 281.383C1082.39 281.83 1083.73 282.646 1084.57 283.195L1086.1 284.194L1087.97 294.267C1090.08 305.642 1090.13 305.299 1086.66 303.547C1084.29 302.348 1081.77 302.345 1078.73 303.539C1075.66 304.746 1073.92 306.491 1072.05 310.244C1067.47 319.456 1066.74 329.374 1069.52 344.746C1071.07 353.344 1072.1 356.289 1075.17 360.997C1079.24 367.237 1085.47 370.682 1091.77 370.182C1095.56 369.88 1096.74 369.245 1098.95 366.305C1100.02 364.873 1101.12 363.732 1101.4 363.769C1101.67 363.806 1102.13 364.599 1102.41 365.532C1103.14 367.907 1104.2 368.026 1107.85 366.143C1112.06 363.973 1118.04 360.408 1120.74 358.464C1123.32 356.599 1123.61 355.96 1122.91 353.532C1122.59 352.435 1122.32 352.215 1121.15 352.104C1120.39 352.032 1119.47 351.649 1119.1 351.252C1118.56 350.674 1116.8 342.286 1110.32 309.291C1105.87 286.609 1101.99 267.562 1101.7 266.965C1100.62 264.704 1099.97 264.863 1094.23 268.785ZM817.531 318.898C816.795 319.628 814.295 321.346 811.974 322.716C807.024 325.637 805.236 326.961 804.011 328.61C802.868 330.15 803.102 331.346 804.831 332.803C808.26 335.691 807.367 332.258 815.79 374.926C819.969 396.091 823.347 413.644 823.298 413.933C823.164 414.723 822.661 414.674 821.129 413.724C819.443 412.679 818.475 410.401 817.5 405.184C815.293 393.378 807.473 370.872 803.401 364.606C801.758 362.077 798.974 359.626 796.909 358.891C794.59 358.066 790.792 358.04 788.236 358.832C786.197 359.463 783.317 361.324 783.43 361.936C783.462 362.109 782.992 363.109 782.386 364.157C780.918 366.695 780.07 366.77 777.592 364.581C775.257 362.517 773.46 361.962 769.509 362.082C764.293 362.24 760.691 364.362 758.678 368.462C757.5 370.863 756.105 371.388 755.134 369.795C754.797 369.242 754.527 368.293 754.535 367.686C754.569 365.08 750.284 364.836 747.058 367.261C746.131 367.957 743.725 369.52 741.711 370.732C735.161 374.678 734.248 375.324 733.398 376.621C732.278 378.328 732.823 379.393 735.376 380.482C736.622 381.014 737.588 381.751 737.952 382.447C738.737 383.948 746.091 421.936 746.031 424.182C745.995 425.555 745.634 426.372 744.4 427.876C743.139 429.414 742.889 429.994 743.173 430.721C743.927 432.651 744.865 432.795 751.364 431.969C757.292 431.217 765.159 429.58 767.657 428.58C768.778 428.131 770.088 426.093 769.906 425.082C769.879 424.931 768.838 424.117 767.592 423.272L765.328 421.736L761.444 402.308C758.904 389.596 757.614 382.398 757.713 381.486C757.927 379.528 759.226 377.138 760.632 376.116C762.007 375.117 763.628 375.248 765.291 376.491C766.208 377.177 766.36 377.841 770.243 398.03C774.127 418.224 774.234 418.912 773.75 420.561C773.476 421.496 772.774 422.649 772.19 423.122C770.72 424.314 771.056 426.314 772.877 427.212C774.083 427.806 774.592 427.752 783.725 426.057C792.844 424.366 793.355 424.229 794.266 423.247C795.722 421.679 795.441 420.186 793.487 419.103C792.613 418.618 791.609 417.682 791.257 417.023C790.882 416.32 788.999 407.734 786.71 396.29C783.028 377.885 782.83 376.673 783.27 375.301C783.774 373.731 785.194 372.257 786.422 372.03C788.078 371.722 790.268 374.582 792.153 379.515C793.941 384.194 797.352 395.84 799.522 404.68C801.18 411.433 801.377 412.616 801.175 414.636C801.007 416.321 800.641 417.265 799.799 418.196C799.168 418.893 798.595 419.765 798.527 420.133C798.363 421.023 799.741 422.419 801.012 422.65C801.572 422.752 806.375 422.055 811.687 421.103C820.945 419.442 821.397 419.324 822.634 418.247L823.924 417.123L825.046 417.958C826.486 419.029 827.746 418.782 829.945 416.997C831.359 415.849 831.812 415.135 832.303 413.275C833.256 409.669 835.016 408.937 836.979 411.329C838.161 412.77 842.024 414.432 845.219 414.875C847.517 415.194 848.6 415.1 852.49 414.249C856.81 413.304 857.183 413.15 859.296 411.45C864.568 407.206 866.691 399.812 865.66 389.283C865.488 387.524 865.426 385.838 865.522 385.536C865.618 385.235 866.434 386.641 867.334 388.66C871.862 398.819 877.426 404.667 884.457 406.658C887.658 407.565 887.796 407.566 893.027 406.727C897.634 405.989 898.679 405.695 900.848 404.525C905.949 401.775 907.976 398.659 908.79 392.323C909.256 388.691 908.609 384.57 907.371 383.275C906.349 382.208 903.215 381.298 901.597 381.598C900.035 381.888 899.405 382.993 899.333 385.569C899.254 388.405 898.165 389.968 895.987 390.372C893.292 390.872 889.426 390.109 887.605 388.716C885.479 387.091 882.378 382.329 882.183 380.39L882.034 378.918L888.596 374.792C892.204 372.523 896.833 369.571 898.882 368.233C902.527 365.851 902.609 365.764 902.74 364.119C902.815 363.174 902.479 360.727 901.972 358.532C900.481 352.072 897.824 348.367 891.389 343.771C886.786 340.483 884.928 340.118 878.692 341.275C874.914 341.976 874.613 342.101 872.027 344.036C865.269 349.096 862.218 358.656 863.192 371.729C863.286 372.998 863.243 374.059 863.097 374.086C862.95 374.114 861.995 371.955 860.975 369.29C857.365 359.859 853.839 354.673 848.619 351.12C846.145 349.435 845.029 348.955 842.833 348.627C838.493 347.979 834.947 348.998 833.15 351.408C832.187 352.7 831.22 353.006 830.713 352.178C830.518 351.86 829.029 344.434 827.404 335.676C824.912 322.242 824.324 319.589 823.643 318.712C822.08 316.702 819.669 316.775 817.531 318.898ZM947.838 295.675C947.005 296.489 944.727 298.032 942.776 299.105C936.951 302.307 932.992 305.829 933.307 307.528C933.372 307.874 934.358 308.846 935.5 309.688C937.184 310.93 937.735 311.633 938.415 313.405C939.249 315.579 942.49 331.569 942.186 332.011C942.099 332.138 941.449 331.961 940.743 331.617C938.91 330.724 934.517 330.912 932.105 331.986C929.081 333.333 925.698 337.557 923.868 342.272C923.544 343.107 922.963 343.849 922.576 343.92C921.705 344.082 921.08 342.491 920.232 337.954C919.67 334.947 919.549 334.685 918.535 334.26C916.738 333.507 914.266 334.549 906.896 339.162C900.191 343.359 897.614 345.512 897.839 346.727C897.947 347.308 899.023 348.103 902.031 349.822L903.448 350.632L907.534 372.652C912.047 396.979 911.886 394.985 909.478 396.806C907.789 398.082 908.222 400.438 910.35 401.554C911.418 402.114 912.109 402.035 921.567 400.278C932.754 398.2 934.246 397.695 934.823 395.787C935.372 393.975 935.067 393.028 933.747 392.443C930.451 390.981 930.911 392.248 928.03 376.694C925.21 361.468 925.149 360.549 926.616 355.473C928.375 349.385 933.491 344.256 934.824 347.245C936.192 350.314 938.899 352.285 941.173 351.866C943.428 351.451 944.592 348.651 943.953 345.178C943.634 343.443 943.79 342.349 944.326 342.557C944.55 342.644 946.46 352.096 948.761 364.496L952.803 386.282L952.066 387.581C951.66 388.296 950.914 389.212 950.408 389.617C949.694 390.188 949.543 390.654 949.736 391.69C950.078 393.534 950.878 394.404 952.565 394.768C954.637 395.215 972.789 391.847 974.563 390.687C977.073 389.045 976.845 386.389 974.036 384.561C972.382 383.484 972.06 383.046 971.318 380.862C970.855 379.499 966.861 359.683 962.443 336.826C954.463 295.546 954.403 295.263 953.445 294.605C951.853 293.512 949.617 293.938 947.838 295.675ZM1062.1 277.637C1059.65 279.489 1059.07 282.691 1060.78 284.886C1062.16 286.659 1063.72 287.206 1066.12 286.76C1068.1 286.392 1068.38 286.212 1069.52 284.549C1070.57 283.024 1070.72 282.478 1070.46 281.098C1070.05 278.854 1068.85 277.46 1066.84 276.862C1064.76 276.245 1063.7 276.417 1062.1 277.637ZM1068 278.251C1071.12 280.665 1069.77 285.676 1065.8 286.412C1064.25 286.7 1062.03 285.4 1061.22 283.733C1059.15 279.482 1064.26 275.355 1068 278.251ZM1063.34 282.188C1063.66 283.893 1064.05 285.109 1064.28 285.066C1064.5 285.026 1064.56 284.374 1064.42 283.616C1064.08 281.792 1064.94 281.655 1066.37 283.305C1066.98 284.004 1067.57 284.451 1067.67 284.298C1067.77 284.146 1067.45 283.596 1066.96 283.077C1066.34 282.426 1066.19 282.06 1066.48 281.895C1067.28 281.458 1067.49 280.058 1066.87 279.294C1066.44 278.747 1065.9 278.66 1064.55 278.911L1062.79 279.237L1063.34 282.188ZM1066.12 279.637C1066.93 280.305 1066.32 281.432 1065.03 281.672C1064.25 281.816 1064.05 281.646 1063.87 280.665C1063.69 279.684 1063.81 279.455 1064.59 279.311C1065.1 279.215 1065.79 279.362 1066.12 279.637ZM1038.26 311.882C1037.55 312.447 1036.67 313.47 1036.32 314.157C1034.36 317.982 1034.59 317.731 1033.78 317.005C1033.37 316.645 1032.97 315.942 1032.87 315.442C1032.45 313.166 1028.67 312.81 1026.12 314.805C1025.5 315.294 1022.46 317.398 1019.38 319.479C1013.96 323.141 1012.2 324.685 1012.38 325.631C1012.42 325.879 1013.76 326.914 1015.35 327.93L1018.23 329.779L1022.14 350.074C1024.29 361.237 1026.05 370.993 1026.05 371.755C1026.04 373.43 1024.75 375.846 1023.76 376.03C1023.21 376.131 1022.85 375.701 1022.24 374.245C1021.07 371.428 1020.59 370.985 1018.93 371.15C1016.3 371.41 1016 370.817 1013.57 360.418C1009.68 343.825 1006.25 333.29 1003.03 327.989C1001.24 325.043 997.801 322.681 994.402 322.059C990.954 321.428 979.952 323.079 975.613 324.879C968.51 327.826 964.535 333.236 965.531 338.603C966.728 345.055 971.461 348.173 976.893 346.089C979.92 344.928 981.104 343.85 981.614 341.794C982.439 338.459 981.313 335.284 978.804 333.873C976.554 332.608 977.036 331.77 980.328 331.219C984.401 330.536 985.247 330.666 986.829 332.214C989.338 334.67 991.028 339.305 990.66 342.717C990.494 344.249 990.373 344.367 986.781 346.489C980.607 350.136 978.137 352.256 974.663 356.885C972.39 359.914 971.389 362.221 970.918 365.514C970.575 367.906 970.667 368.815 971.761 373.872C973.271 380.85 974.34 382.826 978.146 385.662C982.782 389.117 988.95 390.211 993.899 388.456C996.846 387.411 1000.18 385.077 1002.07 382.726C1002.83 381.787 1003.67 380.977 1003.95 380.926C1004.23 380.875 1005.58 381.423 1006.96 382.145C1011.4 384.466 1012.26 384.673 1015.2 384.128C1018.38 383.541 1020.14 382.486 1021.75 380.202L1022.93 378.531L1024.36 379.636L1025.79 380.741L1033.01 379.544C1042.91 377.903 1046.38 376.928 1047.45 375.486C1048.63 373.9 1048.29 372.995 1045.9 371.376C1043.9 370.024 1043.78 369.852 1043.35 367.657C1043.1 366.391 1041.23 357.148 1039.18 347.117C1035.23 327.682 1035.12 326.692 1036.78 325.802C1038.52 324.874 1040.99 326.852 1042.95 330.747C1048.37 341.492 1052.35 352.305 1054 360.772C1055.09 366.378 1054.92 368.388 1053.23 369.951C1051.4 371.65 1051.73 373.782 1053.97 374.764C1055.06 375.24 1056.11 375.117 1065.03 373.462C1073.86 371.823 1074.98 371.539 1075.83 370.723C1077.71 368.926 1077.35 366.844 1075.04 366.109C1073.31 365.558 1072.4 363.771 1070.88 357.944C1067.59 345.287 1060.98 325.94 1058.4 321.379C1054.2 313.953 1047.21 309.372 1041.71 310.439C1040.37 310.699 1039.07 311.244 1038.26 311.882ZM879.076 350.133C880.369 351.095 884.305 356.3 885.303 358.366C887.118 362.126 886.949 366.654 884.914 368.758C883.552 370.167 880.22 372.529 879.363 372.693C878.332 372.89 877.293 371.229 876.004 367.317C874.698 363.357 873.549 355.959 873.93 353.963C874.339 351.817 875.911 349.836 877.504 349.459C877.783 349.393 878.49 349.696 879.076 350.133ZM840.079 359.124C841.581 360.68 844.912 367.779 846.549 372.912C848.22 378.155 849.369 386.543 848.963 390.549C848.39 396.205 846.865 399.893 844.953 400.248C843.946 400.434 842.027 398.835 840.759 396.752C837.706 391.737 834.667 380.203 834.521 373.079C834.347 364.615 835.918 358.369 838.333 357.921C838.606 357.871 839.392 358.412 840.079 359.124ZM1087.46 313.635C1091.05 316.139 1094.55 324.25 1096.44 334.459C1097.71 341.282 1097.8 344.409 1096.88 349.439C1096.24 352.891 1095.82 353.706 1094.53 353.945C1090.87 354.624 1085.71 345.743 1083.81 335.486C1083.32 332.831 1082.88 328.926 1082.83 326.808C1082.75 323.355 1082.81 321.51 1083.17 316.52C1083.3 314.718 1084.29 312.697 1085.13 312.542C1085.46 312.48 1086.51 312.972 1087.46 313.635ZM993.198 352.099C994.22 352.951 998.948 371.355 998.791 373.871C998.704 375.257 997.131 376.492 994.931 376.901C991.449 377.547 989.479 375.415 987.862 369.257C985.747 361.198 986.217 356.995 989.607 353.668C991.515 351.794 992.379 351.417 993.198 352.099Z" fill="white"></path> <path fill-rule="evenodd" clip-rule="evenodd" d="M440.153 2279.39C419.35 2287.1 397.588 2298.51 375.777 2313.15C367.575 2318.66 356.939 2326.89 353.867 2330.12C353.284 2330.73 353.288 2330.78 354.165 2333.63C361.368 2357 382.949 2375.38 417.277 2387.38C421.008 2388.68 430.837 2391.57 434.316 2392.39L436.259 2392.85L429.998 2397.5C411.086 2411.57 397.671 2426.12 389.342 2441.62C383.173 2453.09 379.897 2466.81 380.91 2476.93C381.027 2478.1 381.134 2479.44 381.147 2479.91C381.169 2480.68 381.401 2480.86 383.473 2481.7C397.267 2487.31 427.849 2493.83 451.028 2496.1C463.258 2497.3 482.383 2497.89 486.197 2497.18L487.32 2496.97L480.71 2460.81C474.643 2427.62 474.11 2424.47 474.222 2422.39C474.606 2415.19 476.282 2408.81 479.576 2402.02C480.902 2399.28 481.103 2399.02 481.846 2399.07C487.732 2399.47 502.122 2399.54 510.249 2399.2C519.747 2398.81 532.178 2397.73 541.044 2396.53C546.88 2395.73 569.749 2391.49 575.339 2390.17C592.924 2385.99 611.438 2379.91 627.776 2372.93L632.35 2370.98L633.534 2371.92C638.385 2375.8 643.407 2382.33 646.576 2388.88L647.976 2391.77L654.823 2428.2L661.669 2464.63L662.82 2464.42C666.556 2463.72 684.144 2456.37 694.907 2450.99C705.119 2445.9 718.319 2438.22 729.718 2430.74C739.307 2424.44 751.704 2415 754.298 2412.01L755.032 2411.16L753.811 2407.39C749.317 2393.5 739.949 2381.81 725.095 2371.56C710.699 2361.63 696.472 2355.56 673.449 2349.53L671.984 2349.14L674.175 2347.59C702.249 2327.77 720.408 2305 725.786 2282.87C727.41 2276.19 727.888 2270 727.303 2263.27L727.131 2261.29L723.686 2259.93C717.148 2257.34 704.316 2253.86 691.987 2251.34C668.558 2246.54 647.478 2244.35 627.557 2244.63C624.542 2244.67 621.812 2244.76 621.49 2244.82C620.915 2244.92 621.006 2245.47 627.546 2281.24C634.833 2321.08 634.44 2318.28 633.618 2324.54C632.943 2329.68 630.32 2337.52 627.909 2341.61L627.1 2342.98L621.982 2342.8C604.866 2342.19 587.771 2342.99 568.716 2345.28C561.284 2346.18 538.865 2350.34 531.427 2352.2C513.222 2356.76 497.482 2361.95 481.425 2368.71L476.03 2370.98L475.125 2370.4C474.628 2370.09 473.022 2368.6 471.557 2367.1C467.203 2362.65 464.213 2358.39 461.62 2352.97L460.261 2350.12L453.41 2313.7L446.559 2277.27L445.748 2277.44C445.301 2277.54 442.784 2278.41 440.153 2279.39ZM567.046 2353.82C579.816 2352.98 590.807 2353.77 601.43 2356.28C606.533 2357.49 613.041 2359.59 613.128 2360.05C613.244 2360.68 605.329 2366.79 600.392 2369.89C586.491 2378.62 570.157 2384.24 550.447 2387.09C535.671 2389.22 523.136 2389.06 510.538 2386.57C504.797 2385.43 495.233 2382.57 495.121 2381.95C495.063 2381.63 499.182 2378.24 502.916 2375.54C512.806 2368.38 524.675 2362.79 537.673 2359.15C539.536 2358.63 541.589 2358.05 542.236 2357.86C545.272 2356.98 563.142 2354.07 567.046 2353.82Z" fill="white"></path> <path fill-rule="evenodd" clip-rule="evenodd" d="M943.54 2235.09L950.529 2272.76L957.71 2271.43L964.89 2270.09L961.977 2253.54L959.064 2236.99L974.72 2249.22C983.33 2255.95 991.311 2262.17 992.455 2263.05L994.535 2264.64L1003.56 2262.79L1012.58 2260.95L1005.46 2255.39C988.32 2242.02 980.906 2236.13 980.665 2235.7C980.522 2235.45 982.531 2234.73 985.128 2234.1C993.437 2232.1 999.12 2226.79 1001.05 2219.21C1001.96 2215.65 1001.94 2214.76 1000.85 2208.98C999.804 2203.39 999.424 2202.32 997.565 2199.71C994.668 2195.63 991.002 2193 986.448 2191.73C979.666 2189.83 976.241 2190.07 955.389 2193.93L936.551 2197.41L943.54 2235.09ZM1129.88 2200.5L1136.87 2238.19L1138.39 2237.91C1139.22 2237.75 1141.11 2236.6 1142.59 2235.34L1145.29 2233.06L1147.02 2233.97C1154.39 2237.84 1168.29 2236.25 1176.3 2230.62C1181.88 2226.69 1184.9 2221.93 1186.06 2215.24C1186.61 2212.08 1186.45 2210.46 1184.49 2199.66C1182.42 2188.26 1182.18 2187.41 1180.12 2183.78C1176.6 2177.61 1171.21 2173.78 1164.01 2172.36C1161.09 2171.78 1159.42 2171.87 1153.62 2172.94C1147.33 2174.09 1146.45 2174.4 1143.7 2176.36C1142.04 2177.55 1140.62 2178.34 1140.56 2178.12C1140.49 2177.91 1139.67 2173.86 1138.74 2169.12L1137.04 2160.52L1129.97 2161.66L1122.89 2162.81L1129.88 2200.5ZM1251.24 2178L1258.23 2215.67L1265.42 2214.34L1272.61 2213L1270.21 2200.06C1268.8 2192.5 1268.03 2187.08 1268.34 2187.02C1268.63 2186.97 1269.76 2187.65 1270.85 2188.54C1271.94 2189.44 1278.13 2194.31 1284.61 2199.38L1296.39 2208.59L1305.54 2206.9L1314.68 2205.2L1308.9 2200.74C1288.66 2185.11 1282.26 2180.06 1282.18 2179.64C1282.13 2179.37 1286.43 2171.78 1291.72 2162.76C1297.01 2153.74 1301.41 2146.03 1301.49 2145.61C1301.59 2145.03 1299.64 2145.29 1292.8 2146.79L1283.97 2148.72L1278.85 2157.44C1276.04 2162.24 1272.25 2168.77 1270.43 2171.95C1268.61 2175.13 1266.89 2177.77 1266.61 2177.83C1266.32 2177.88 1264.48 2169.2 1262.37 2157.79L1258.63 2137.66L1251.44 2138.99L1244.25 2140.33L1251.24 2178ZM978.8 2203.87C984.131 2204.8 986.9 2207.5 987.77 2212.6C989.143 2220.65 985.086 2223.51 967.744 2226.73L957.225 2228.68L955.322 2218.42C954.275 2212.78 953.577 2207.93 953.768 2207.64C954.353 2206.77 976.387 2203.45 978.8 2203.87ZM1022.01 2197.87C1012.91 2202.01 1007.71 2210.14 1007.97 2219.86C1008.12 2225.45 1010.8 2239.15 1012.59 2243.47C1016.23 2252.28 1022.52 2256.9 1032.94 2258.42C1037.99 2259.15 1048.78 2257 1053.84 2254.26C1060.46 2250.66 1064.18 2245.63 1064.83 2239.4C1065.46 2233.49 1065.57 2233.57 1058.36 2234.9L1052.06 2236.07L1051.48 2238.25C1050.61 2241.52 1048.08 2243.49 1043.19 2244.73C1033.04 2247.29 1026.71 2243.99 1025.09 2235.28L1024.63 2232.83L1044.18 2229.21L1063.74 2225.58L1062.64 2219.68C1060.53 2208.38 1057.64 2202.84 1051.77 2198.87C1045.87 2194.87 1039.08 2193.83 1030.23 2195.55C1027.22 2196.14 1023.52 2197.18 1022.01 2197.87ZM1082.4 2186.65C1075.91 2189.56 1071.02 2195.25 1069.23 2201.95L1068.14 2206.02L1070.76 2220.11L1073.37 2234.2L1075.7 2237.34C1082.12 2245.97 1093.44 2249.24 1105.95 2246.07C1111.09 2244.76 1115.72 2242.74 1118.47 2240.61C1122.81 2237.25 1125.75 2230.78 1125.4 2225.4L1125.21 2222.5L1118.94 2223.67L1112.68 2224.83L1111.93 2227.17C1110.85 2230.5 1108.52 2232.27 1103.58 2233.52C1093.4 2236.1 1087.07 2232.67 1085.4 2223.67L1085.02 2221.63L1104.64 2217.99L1124.25 2214.35L1122.43 2205.91C1120.31 2196.12 1118.69 2192.9 1113.81 2188.76C1110.35 2185.83 1103.85 2183.5 1098.9 2183.43C1094.63 2183.37 1085.93 2185.06 1082.4 2186.65ZM1204.32 2164.01C1197.96 2166.99 1192.82 2172.63 1191.25 2178.34C1189.8 2183.65 1190.09 2189.04 1192.42 2199.92C1194.2 2208.25 1194.87 2210.48 1196.43 2213.16C1200.28 2219.77 1206.79 2223.84 1214.78 2224.65C1220.6 2225.24 1229.59 2223.44 1234.48 2220.71C1241.27 2216.92 1245.33 2211.58 1246.67 2204.65C1247.4 2200.87 1247.33 2200.22 1245.02 2187.78C1242.77 2175.64 1242.5 2174.65 1240.71 2171.84C1236.94 2165.93 1231.75 2162.41 1224.9 2161.1C1220.64 2160.29 1208.63 2161.98 1204.32 2164.01ZM1039.67 2207.88C1042.35 2208.66 1043.47 2209.39 1044.86 2211.21C1045.83 2212.49 1046.81 2214.51 1047.03 2215.71L1047.44 2217.89L1035.07 2220.19L1022.71 2222.48L1022.42 2220.9C1021.57 2216.3 1023.76 2211.26 1027.45 2209.28C1031.06 2207.35 1035.95 2206.79 1039.67 2207.88ZM1099.67 2196.23C1103.86 2197.27 1107.86 2201.48 1108.01 2205.01L1108.06 2206.35L1095.58 2208.82L1083.1 2211.3L1082.81 2209.71C1081.96 2205.09 1084.14 2200.06 1087.84 2198.08C1090.86 2196.46 1096.82 2195.53 1099.67 2196.23ZM1162.14 2186.23C1166.84 2187.92 1168 2189.99 1170.24 2200.57C1172.48 2211.17 1172.36 2214.32 1169.59 2217.85C1167.31 2220.74 1165.9 2221.52 1161.32 2222.42C1156.67 2223.32 1153.3 2222.53 1150.31 2219.83L1148.3 2218.02L1146.11 2207.19C1144.07 2197.1 1143.97 2196.17 1144.67 2193.59C1145.46 2190.71 1147.72 2188.17 1150.75 2186.76C1153.71 2185.39 1159.11 2185.13 1162.14 2186.23ZM1222.08 2174.55C1223.21 2174.96 1225.13 2176.14 1226.33 2177.17L1228.53 2179.05L1230.64 2190.4C1232.74 2201.73 1232.74 2201.75 1231.64 2204.35C1228.75 2211.16 1217.48 2213.74 1211.61 2208.92C1208.86 2206.66 1207.93 2204.25 1206.2 2194.94C1204 2183.15 1204.83 2179.26 1210.2 2176.04C1212.99 2174.37 1219.37 2173.57 1222.08 2174.55ZM1312.97 2231.73C1310.33 2232.48 1300.53 2235.21 1291.19 2237.8C1236.91 2252.86 1193.07 2266.65 1159.65 2279.18C1143.97 2285.06 1141.38 2286.15 1142.08 2286.6C1142.78 2287.05 1174.03 2299.86 1181.69 2302.84L1187.25 2305.01L1199.09 2297.39C1235.84 2273.73 1262.62 2258.87 1305.02 2238.58C1309.53 2236.43 1315.92 2233.37 1319.23 2231.78L1325.24 2228.91L1321.51 2229.64C1319.45 2230.04 1315.61 2230.98 1312.97 2231.73ZM1052.26 2280.73C1017.25 2289.57 1011.48 2291.07 984.715 2298.29C966.301 2303.25 949.143 2308.13 948.91 2308.47C948.788 2308.65 948.934 2308.75 949.235 2308.69C950.55 2308.45 983.759 2308.46 997.356 2308.7C1068.24 2309.99 1126.51 2317.07 1206.13 2334.07C1210.22 2334.94 1229.12 2338.99 1248.15 2343.05C1267.17 2347.12 1282.82 2350.32 1282.92 2350.17C1283.25 2349.7 1259.12 2341.01 1207.97 2323.19C1147.99 2302.28 1102.02 2286.58 1080.55 2279.67L1070.98 2276.59L1065.31 2277.73C1062.19 2278.35 1056.32 2279.7 1052.26 2280.73ZM1062.48 2326.2C1058.85 2327.85 1045.27 2335.46 1039.84 2338.88C1013.46 2355.48 990.491 2377.59 977.164 2399.2C974.809 2403.02 972.709 2406.69 972.497 2407.35C972.121 2408.54 972.782 2408.44 1004.26 2402.6L1036.4 2396.64L1038.41 2392.79C1042.71 2384.59 1051.42 2372.83 1060.25 2363.3C1070.07 2352.7 1086.09 2339.31 1098.14 2331.61C1100.55 2330.07 1102.3 2328.67 1102.02 2328.51C1101.48 2328.19 1074.9 2325.83 1068.6 2325.54C1064.52 2325.36 1064.25 2325.39 1062.48 2326.2ZM1110.63 2335.62C1090.41 2351.12 1073.15 2370.08 1063.75 2387.1L1061.19 2391.74L1090.44 2386.47C1115.18 2382.01 1119.74 2381.06 1120.1 2380.28C1120.34 2379.77 1121.75 2376.62 1123.26 2373.29C1126.97 2365.04 1137.1 2350.36 1144.6 2342.35C1147.88 2338.85 1150.73 2335.78 1150.94 2335.52C1151.31 2335.07 1121.58 2331.15 1118.14 2331.21C1116.78 2331.23 1115.01 2332.27 1110.63 2335.62Z" fill="white"></path> <path fill-rule="evenodd" clip-rule="evenodd" d="M1611.45 2047.18C1598.98 2050.61 1589.86 2054.38 1578.49 2060.8C1559.2 2071.68 1537.76 2089.7 1522.38 2107.97L1520.61 2110.06L1521.93 2111.37L1523.25 2112.67L1524.79 2111.09C1527.94 2107.85 1534.05 2102.27 1539.73 2097.45C1542.74 2094.89 1548.14 2090.72 1552.3 2087.73C1575.33 2071.21 1597.12 2062.63 1612.75 2063.92C1617.83 2064.34 1624.08 2066.69 1627.36 2069.41C1629.68 2071.33 1631.69 2073.71 1632.91 2075.95C1634.37 2078.66 1635.58 2083.49 1635.79 2087.45C1636.52 2101.37 1630.85 2120.98 1620.35 2140.87C1619.46 2142.56 1618.7 2143.93 1618.66 2143.9C1618.63 2143.88 1618.7 2142.89 1618.83 2141.72C1619.17 2138.47 1618.1 2132.74 1616.63 2129.95C1613.58 2124.16 1607.97 2120.22 1601.11 2119.09C1586.34 2116.63 1565.82 2124.63 1543.27 2141.65C1525.21 2155.28 1509.54 2171.79 1497.23 2190.17C1481.72 2213.34 1474.23 2235.82 1475.18 2256.33C1475.25 2257.95 1475.78 2261.67 1476.41 2264.98C1477.59 2271.23 1478.62 2274.28 1481.04 2278.64C1487.3 2289.92 1498.5 2296.74 1512.55 2297.83C1538.56 2299.85 1568.58 2283.67 1597.68 2251.94C1618.68 2229.03 1638.61 2198.3 1652.09 2168.03C1665.67 2137.53 1672.3 2110.39 1671.41 2088.96C1671.23 2084.65 1669.74 2076.22 1668.59 2072.94C1661.85 2053.84 1647.23 2044.08 1626.62 2044.94C1623.39 2045.07 1614.16 2046.44 1611.45 2047.18ZM1721.11 2094.99C1720.5 2102.75 1719.97 2109.27 1719.93 2109.48C1719.88 2109.78 1724.74 2108.98 1742.51 2105.76C1763.13 2102.02 1765.3 2101.68 1766.76 2101.88C1769.18 2102.23 1771.03 2103.28 1772.39 2105.08C1774.18 2107.45 1774.54 2109.91 1774.09 2116.61L1773.74 2121.85L1760.06 2124.39C1752.54 2125.78 1744.97 2127.33 1743.24 2127.82C1731.59 2131.14 1719.94 2138.28 1710.71 2147.78C1707.34 2151.25 1701.73 2159.12 1699.92 2162.91C1696.03 2171.05 1694.48 2178.93 1695.15 2187.17C1696.1 2198.91 1703.07 2209.72 1712.83 2214.58C1717.22 2216.76 1722.67 2218.14 1728.47 2218.52C1734.91 2218.93 1735.85 2218.8 1767.69 2212.89L1797.11 2207.43L1798.26 2192.71C1798.89 2184.61 1800.62 2162.47 1802.11 2143.5C1803.59 2124.54 1804.83 2108 1804.86 2106.75C1805.15 2091.88 1798.36 2080.36 1786.27 2075.27C1781.3 2073.16 1777.35 2072.31 1772.2 2072.22C1769.35 2072.17 1768.13 2072.37 1745.71 2076.53L1722.21 2080.89L1721.11 2094.99ZM1848 2057.88C1841.08 2060.11 1833.76 2064.28 1828.69 2068.87C1819.13 2077.56 1814.17 2087.84 1813.27 2100.85C1812.43 2112.97 1815.95 2121.27 1824.98 2128.49C1830.15 2132.62 1836.47 2135.53 1850.56 2140.26C1854.59 2141.61 1859.14 2143.26 1860.68 2143.93C1868.36 2147.25 1871.04 2150.52 1870.44 2155.83C1869.8 2161.48 1867 2164.65 1860.83 2166.73C1859.66 2167.13 1849.84 2169.07 1836.69 2171.51L1814.53 2175.63L1814.38 2177.24C1813.99 2181.56 1812.27 2204.04 1812.32 2204.3C1812.39 2204.72 1861.71 2195.56 1865.46 2194.43C1879.94 2190.07 1890.17 2181.42 1895.45 2169.04C1898.61 2161.62 1900.48 2150.33 1899.83 2142.51C1899.19 2134.68 1895.6 2127.25 1890.03 2122.17C1886.38 2118.85 1879.73 2115.12 1872.89 2112.57C1871.38 2112 1866.68 2110.4 1862.45 2109C1850.41 2105.03 1845.91 2102.87 1843.85 2100.07C1840.78 2095.9 1843.93 2088.7 1849.96 2086.08C1850.72 2085.74 1859.03 2084.09 1872.02 2081.67C1883.49 2079.54 1892.91 2077.68 1892.96 2077.54C1893.02 2077.4 1893.56 2071.04 1894.16 2063.41C1894.76 2055.78 1895.29 2049.36 1895.33 2049.15C1895.38 2048.84 1890.73 2049.63 1872.62 2053.02C1860.1 2055.37 1849.02 2057.55 1848 2057.88ZM1916.83 2045.31C1916.7 2046.44 1906.81 2185.35 1906.8 2186.2L1906.79 2187.09L1921.7 2184.25L1936.61 2181.4L1941.31 2115.57C1943.89 2079.37 1946.17 2047.38 1946.37 2044.49L1946.75 2039.23L1931.82 2042C1917.85 2044.59 1916.88 2044.81 1916.83 2045.31ZM2016.34 2026.66C1999.46 2031.43 1984.31 2040.66 1973.32 2052.86C1958.43 2069.4 1949.82 2092.51 1949.75 2116.11C1949.74 2121.74 1951.25 2131.44 1952.92 2136.43C1959.59 2156.36 1975.55 2168.37 1996.22 2169.02C2002.31 2169.22 2004.76 2168.91 2020.73 2165.95C2029.1 2164.39 2035.93 2163.08 2035.92 2163.01C2035.91 2162.95 2036.4 2156.49 2037.01 2148.66C2037.63 2140.82 2038.12 2134.36 2038.11 2134.29C2038.09 2134.21 2031.79 2135.32 2024.1 2136.75C2011.2 2139.14 2009.89 2139.34 2007.12 2139.29C2001.37 2139.19 1996.54 2137.77 1992.09 2134.87C1985.8 2130.77 1982.41 2125.62 1980.61 2117.39C1979.6 2112.79 1979.38 2110.02 1979.62 2105.14C1980.63 2084.54 1993.43 2066.16 2013.07 2057.11C2017.92 2054.88 2021.04 2054.03 2031.78 2052.03C2037.24 2051.01 2041.76 2050.06 2041.82 2049.91C2041.88 2049.76 2042.42 2043.4 2043.02 2035.78C2043.61 2028.16 2044.14 2021.75 2044.18 2021.53C2044.23 2021.22 2041.62 2021.64 2031.65 2023.52C2024.72 2024.83 2017.83 2026.24 2016.34 2026.66ZM2083.81 2014.3C2072.36 2018.29 2063.16 2025.36 2056.97 2034.91C2052.79 2041.38 2050.46 2049.16 2049.9 2058.59C2049.75 2061.09 2049.85 2062.16 2050.68 2066.56C2051.56 2071.23 2051.74 2071.84 2052.89 2074.06C2057.8 2083.48 2066.93 2089.64 2084.41 2095.34C2095.54 2098.97 2099.08 2100.43 2102.5 2102.79C2105.55 2104.88 2106.74 2106.44 2107.15 2108.85C2107.47 2110.75 2107.16 2113.47 2106.38 2115.63C2105.32 2118.57 2102.53 2120.97 2098.36 2122.51C2096.26 2123.29 2092.31 2124.1 2073.56 2127.57L2051.27 2131.71L2050.17 2145.82C2049.57 2153.58 2049.05 2160.11 2049.02 2160.32C2048.97 2160.63 2054.17 2159.74 2074.4 2155.99C2102.3 2150.81 2103.58 2150.51 2109.97 2147.58C2118.02 2143.88 2124.01 2138.79 2128.67 2131.66C2133.15 2124.82 2136.02 2115.36 2136.63 2105.42C2137.36 2093.52 2133.85 2084.33 2125.98 2077.53C2120.74 2073.01 2114.22 2069.98 2098.93 2064.98C2085.04 2060.44 2080.15 2057.6 2079.39 2053.65C2078.85 2050.84 2080.81 2046.37 2083.56 2044.14C2086.32 2041.9 2086.23 2041.92 2108.96 2037.71L2129.82 2033.84L2129.92 2032.54C2130.98 2019.26 2132.05 2005.25 2132.02 2005.08C2132 2004.96 2121.75 2006.78 2109.24 2009.11C2090.9 2012.54 2085.98 2013.54 2083.81 2014.3ZM1595.51 2133.43C1607.37 2133.63 1612.08 2143.26 1607.71 2158.37C1606.33 2163.15 1604.54 2167.02 1601.22 2172.42C1591.35 2188.45 1575.9 2205.96 1563.02 2215.68C1546.54 2228.13 1532.34 2230.07 1525.36 2220.84C1523.49 2218.37 1522.77 2216.46 1522.21 2212.58C1521.84 2209.97 1521.83 2208.8 1522.16 2206.51C1525.19 2185.62 1548.73 2155 1572.55 2140.95C1575.85 2139 1580.71 2136.7 1583.84 2135.6C1587.31 2134.38 1592.67 2133.39 1595.51 2133.43ZM1771.4 2150.7C1771.41 2150.78 1770.84 2158.28 1770.13 2167.36C1769.41 2176.44 1768.84 2183.93 1768.85 2183.99C1768.86 2184.05 1762.56 2185.27 1754.83 2186.71C1739.66 2189.52 1739.07 2189.58 1735.71 2188.59C1728.02 2186.34 1725.5 2176.47 1730.34 2167.55C1733.08 2162.5 1738.33 2157.97 1743.73 2156C1745.17 2155.47 1771.35 2150.46 1771.4 2150.7ZM2152.43 2113.87C2149.07 2115.35 2145.89 2119.14 2144.84 2122.92C2144.23 2125.1 2144.24 2125.21 2144.92 2128.92C2145.6 2132.59 2145.66 2132.75 2146.91 2134.44C2150.54 2139.32 2155.69 2141.17 2161.66 2139.73C2164.09 2139.15 2164.65 2138.9 2166.36 2137.62C2168.64 2135.91 2170.84 2132.74 2171.56 2130.1C2172.6 2126.32 2171.72 2121.42 2169.43 2118.35C2167.2 2115.34 2163.25 2113.09 2159.53 2112.71C2157.74 2112.52 2154.15 2113.11 2152.43 2113.87ZM2158.58 2114.52C2162.1 2114.67 2165.62 2116.54 2167.73 2119.37C2168.97 2121.03 2169.07 2121.3 2169.63 2124.33C2170.17 2127.19 2170.18 2127.73 2169.76 2129.33C2167.18 2139.23 2154.5 2141.59 2148.5 2133.29C2147.32 2131.65 2147.16 2131.26 2146.67 2128.6C2146.17 2125.93 2146.18 2125.51 2146.69 2123.56C2148.16 2118.04 2153.1 2114.28 2158.58 2114.52ZM2152.63 2127.49L2154 2134.91L2155.31 2134.66L2156.62 2134.42L2156.08 2131.51L2155.54 2128.61L2157.56 2128.23C2161.02 2127.59 2161.78 2128.03 2162.63 2131.2L2163.13 2133.06L2164.37 2132.92L2165.61 2132.79L2165.04 2130.69C2164.38 2128.25 2163.7 2127.23 2162.4 2126.78C2161.88 2126.6 2161.45 2126.38 2161.43 2126.3C2161.41 2126.21 2161.83 2125.89 2162.35 2125.58C2163.49 2124.91 2163.94 2123.65 2163.64 2121.99C2163.32 2120.29 2162.41 2119.26 2160.86 2118.88C2159.76 2118.61 2158.84 2118.68 2155.4 2119.32L2151.25 2120.08L2152.63 2127.49ZM2159.16 2120.75C2159.7 2120.83 2160.31 2121.11 2160.52 2121.38C2161.15 2122.16 2161.31 2123.81 2160.85 2124.66C2160.47 2125.36 2160.14 2125.51 2157.8 2126.04L2155.17 2126.63L2154.68 2123.98L2154.19 2121.34L2156.19 2120.97C2157.28 2120.76 2158.62 2120.67 2159.16 2120.75Z" fill="white"></path> <path fill-rule="evenodd" clip-rule="evenodd" d="M206.041 930.416C204.705 934.138 203.863 937.33 204.169 937.512C204.803 937.885 277.018 929.143 277.356 928.651C277.552 928.365 275.399 923.592 271.254 915.125L269.853 912.262L239.161 917.956L208.47 923.649L206.041 930.416ZM314.137 914.185C311.785 920.946 310.645 925.055 311.106 925.105C311.514 925.149 322.458 923.938 335.428 922.415C348.398 920.892 359.096 919.7 359.202 919.767C359.64 920.04 358.531 923.178 357.955 923.297C350.205 924.907 306.773 936.429 306.398 936.975C305.851 937.772 295.915 965.937 296.13 966.084C296.2 966.132 307.125 964.874 320.408 963.289C333.691 961.704 344.645 960.461 344.752 960.526C345.312 960.871 343.994 963.953 343.217 964.115C337.788 965.244 180.139 1005.56 179.743 1005.92C178.95 1006.64 174.727 1019.18 175.174 1019.48C175.48 1019.7 324.865 1001.91 329.682 1001.09C331.002 1000.87 331.006 1000.88 330.312 1002.78C329.725 1004.39 329.244 1004.77 327.3 1005.16C318.039 1007.03 244.824 1025.62 244.967 1026.07C245.065 1026.37 247.485 1031.57 250.346 1037.62L255.548 1048.63L259.096 1048.31C261.047 1048.14 274.679 1046.48 289.388 1044.64C304.098 1042.8 316.232 1041.34 316.352 1041.4C316.535 1041.5 315.923 1044.01 315.557 1044.67C315.495 1044.78 303.256 1048.04 288.36 1051.91C273.464 1055.78 261.168 1059.1 261.036 1059.3C260.904 1059.49 262.766 1063.99 265.175 1069.3L269.553 1078.95L327.046 1068.1C384.532 1057.25 384.538 1057.25 390.587 1054.75C417.372 1043.71 436.654 1025.02 441.837 1005.08C444.439 995.067 443.324 984.352 439.051 978.29C435.91 973.835 430.713 970.312 424.74 968.59C421.991 967.798 419.203 967.25 418.543 967.372C416.6 967.733 417.939 966.603 422.564 963.982C439.785 954.219 452.91 936.788 455.297 920.511C458.518 898.539 448.062 885.822 426.044 884.934C420.474 884.71 419.227 884.909 369.129 894.025L317.909 903.346L314.137 914.185ZM241.684 952.66C218.713 958.473 198.586 963.496 196.958 963.82L193.999 964.41L191.606 971.427C190.29 975.287 189.331 978.526 189.476 978.625C189.73 978.8 295.009 966.475 295.177 966.251C295.325 966.053 284.082 942.415 283.761 942.249C283.591 942.161 264.656 946.846 241.684 952.66ZM397.983 922.555C400.766 923.742 403.579 927.39 404.171 930.579C405.328 936.82 401.698 944.904 395.674 949.499C390.7 953.294 385.799 955.062 375.477 956.785L366.655 958.258L372.537 941.557L378.419 924.857L387.104 923.238C395.166 921.735 395.946 921.686 397.983 922.555ZM377.254 990.048C378.711 990.545 380.592 991.844 381.689 993.112C385.553 997.575 384.985 1005.66 380.346 1012.24C377.561 1016.19 372.591 1020.11 367.568 1022.32C362.737 1024.45 342.302 1028.32 342.534 1027.07C342.666 1026.35 346.432 1015.6 352.98 997.235L354.513 992.935L364.618 991.06C374.018 989.316 374.9 989.245 377.254 990.048ZM202.531 1036.64C183.36 1041.78 167.118 1046.1 166.439 1046.24C165.487 1046.44 164.654 1048.03 162.812 1053.14C161.496 1056.8 160.472 1060.07 160.535 1060.41C160.601 1060.76 161.823 1060.82 163.385 1060.54C164.889 1060.27 181.552 1058.09 200.414 1055.7C219.276 1053.3 234.838 1051.15 234.996 1050.9C235.154 1050.65 237.228 1044.94 239.605 1038.2L243.926 1025.95L240.656 1026.62C238.858 1027 221.702 1031.5 202.531 1036.64ZM187.454 1077.99L150.716 1087.56L148.225 1094.57L145.734 1101.57L183.758 1094.67C213.716 1089.24 221.892 1087.59 222.298 1086.93C222.902 1085.94 229.202 1068.16 229.115 1067.69C229.022 1067.19 226.475 1067.82 187.454 1077.99ZM253.124 1138.62L258.422 1166.34L262.91 1165.68L267.399 1165.02L266.905 1162.36L266.412 1159.7L269.531 1161.56C279.681 1167.62 294.141 1161.22 297.614 1149.13C298.586 1145.75 299.031 1139.91 298.526 1137.18C297.453 1131.4 292.822 1124.71 287.746 1121.61C279.932 1116.83 268.793 1118.12 263.041 1124.47L261.402 1126.28L259.796 1117.63L258.19 1108.97L253.008 1109.93L247.827 1110.89L253.124 1138.62ZM349.173 1120.8L354.471 1148.52L359.359 1147.61L364.248 1146.71L359.249 1118.93L354.25 1091.15L349.063 1092.11L343.875 1093.07L349.173 1120.8ZM109.27 1149.66C106.352 1150.9 104.779 1152.03 103.071 1154.1L101.521 1155.99L101.191 1154.21L100.861 1152.44L96.2603 1153.29L91.6592 1154.14L95.5538 1175.14L99.4485 1196.13L104.277 1195.23L109.105 1194.34L106.873 1180.92C105.412 1172.14 104.777 1166.86 105.032 1165.64C106.322 1159.51 112.594 1156.45 117.462 1159.57C120.408 1161.46 121.615 1164.89 124.156 1178.59L126.489 1191.16L131.49 1190.06L136.492 1188.96L134.784 1178.86C131.599 1160.03 129.11 1153.91 123.337 1150.71C119.41 1148.54 113.03 1148.06 109.27 1149.66ZM146.696 1143.24C140.797 1146.49 137.391 1150.97 135.543 1157.9C134.556 1161.61 134.554 1162.48 135.528 1167.73C136.519 1173.07 136.788 1173.75 139.164 1176.94C147.27 1187.8 162.404 1189.26 172.208 1180.13C174.757 1177.75 177.189 1173.79 178.189 1170.4C178.515 1169.29 178.755 1168.24 178.723 1168.07C178.691 1167.89 176.308 1168.19 173.427 1168.72C168.459 1169.64 168.143 1169.78 167.283 1171.42C165.418 1174.98 160.675 1177.15 155.727 1176.72C153.161 1176.49 147.968 1173.27 147.063 1171.35L146.499 1170.15L162.783 1167.13L179.066 1164.11L178.925 1161.31C178.483 1152.59 170.822 1143.46 162.111 1141.28C157.406 1140.09 150.895 1140.92 146.696 1143.24ZM314.184 1111.69C300.444 1117.25 296.368 1134.71 305.819 1147.52C308.61 1151.3 312.37 1153.78 317.237 1155.05C322.347 1156.38 328.685 1155.16 333.104 1152C334.838 1150.76 336.841 1148.94 337.557 1147.94L338.858 1146.14L339.358 1148.83L339.858 1151.53L344.459 1150.67L349.06 1149.82L345.166 1128.83L341.271 1107.83L336.67 1108.69L332.069 1109.54L332.538 1112.07L333.008 1114.6L330.812 1113.19C326.297 1110.29 319.214 1109.65 314.184 1111.69ZM376.674 1100.06C370.469 1102.39 365.614 1107.98 363.787 1114.87C362.762 1118.74 362.765 1119.46 363.835 1125.07C365.268 1132.58 367.242 1136.03 372.273 1139.83C377.261 1143.6 381.511 1144.65 387.439 1143.57C392.798 1142.6 396.045 1140.86 399.4 1137.15L401.59 1134.73L402.074 1137.34L402.557 1139.95L406.984 1138.95L411.41 1137.96L407.693 1117.08L403.976 1096.2L399.367 1097.06L394.759 1097.91L395.248 1100.55L395.738 1103.19L392.674 1101.36C388.065 1098.6 381.868 1098.1 376.674 1100.06ZM425.486 1091.24C424.054 1091.94 422.007 1093.54 420.937 1094.78L418.99 1097.04L418.665 1095.29L418.34 1093.54L413.739 1094.39L409.138 1095.24L413.032 1116.24L416.927 1137.23L421.763 1136.33L426.599 1135.43L424.269 1121.74C422.248 1109.86 422.026 1107.73 422.6 1105.7C423.471 1102.61 426.143 1100.22 429.389 1099.62C432.481 1099.04 434.864 1100.07 437.033 1102.9C438.447 1104.75 438.872 1106.3 441.318 1118.57L444.034 1132.2L448.919 1131.29L453.804 1130.39L450.719 1114.75L447.633 1099.11L445.403 1096.11C444.177 1094.47 442.083 1092.51 440.751 1091.78C436.397 1089.36 429.802 1089.13 425.486 1091.24ZM467.965 1083.15C458.511 1086.66 452.451 1096.73 453.67 1106.89C454.853 1116.75 461.208 1123.83 471.18 1126.39C476.179 1127.67 483.64 1126.41 488.271 1123.49C492.246 1120.99 495.687 1116.43 497.193 1111.67L498.404 1107.83L492.659 1108.9C486.968 1109.96 486.904 1109.99 486.03 1111.86C485.545 1112.91 484.132 1114.51 482.892 1115.42C474.612 1121.51 463.344 1114.38 463.582 1103.19C463.68 1098.58 466.762 1093.89 470.772 1092.24C475.326 1090.37 479.495 1091 482.791 1094.08C484.371 1095.55 484.425 1095.55 490.034 1094.51L495.685 1093.47L494.457 1091.59C489.003 1083.25 477.539 1079.6 467.965 1083.15ZM510.723 1075.43C505.1 1078.12 500.452 1083.95 498.767 1090.41C497.941 1093.58 497.968 1094.64 499.016 1100.28C500.086 1106.05 500.386 1106.87 502.415 1109.6C505.483 1113.72 509.921 1116.7 514.966 1118.03C518.712 1119.02 519.739 1119.03 524.35 1118.18C528.824 1117.36 529.956 1116.93 532.679 1114.98C536.46 1112.28 540.057 1107.4 541.28 1103.3L542.174 1100.31L536.767 1101.31C531.586 1102.27 531.33 1102.39 530.661 1103.98C528.494 1109.16 519.63 1111 514.119 1107.42C512.411 1106.31 510.097 1103.89 509.942 1103.06C509.91 1102.89 517.183 1101.32 526.104 1099.58L542.324 1096.41L541.355 1091.22C540.483 1086.54 540.136 1085.69 537.859 1082.65C531.172 1073.71 520.328 1070.82 510.723 1075.43ZM173.038 1139.79C173.262 1140.16 178.174 1148.55 183.953 1158.44C189.732 1168.33 194.721 1176.84 195.04 1177.35C195.49 1178.08 196.297 1178.16 198.627 1177.73L201.635 1177.17L203.053 1162.89C203.832 1155.03 204.705 1148.91 204.991 1149.29C205.277 1149.67 208.228 1155.43 211.548 1162.09L217.584 1174.21L220.562 1173.66C223.272 1173.16 223.571 1172.95 223.885 1171.41C224.692 1167.43 231.01 1129.22 230.931 1128.79C230.883 1128.53 228.525 1128.75 225.692 1129.28L220.541 1130.23L219.869 1136.16C219.5 1139.42 218.844 1145.34 218.41 1149.33C217.976 1153.32 217.552 1156.68 217.467 1156.8C217.381 1156.93 214.749 1151.6 211.617 1144.96L205.922 1132.9L201.912 1133.81L197.903 1134.73L196.869 1147.63C196.301 1154.73 195.76 1160.64 195.668 1160.77C195.576 1160.91 192.777 1155.64 189.448 1149.07L183.395 1137.13L178.013 1138.12C173.945 1138.88 172.73 1139.28 173.038 1139.79ZM159.219 1150.27C162.901 1151.06 165.492 1153.08 167.342 1156.61L167.981 1157.83L156.439 1159.97C147.333 1161.66 144.868 1161.96 144.759 1161.37C144.682 1160.95 145.171 1159.24 145.844 1157.56C147.941 1152.34 153.862 1149.11 159.219 1150.27ZM280.014 1128.94C281.39 1129.38 283.503 1130.71 284.708 1131.89C286.512 1133.66 287.069 1134.73 287.855 1137.94C288.994 1142.6 288.705 1145.49 286.778 1148.73C283.103 1154.9 275.5 1156.51 269.507 1152.4C264.59 1149.02 262.465 1142.32 264.482 1136.57C266.815 1129.92 273.247 1126.76 280.014 1128.94ZM325.941 1119.63C326.637 1119.75 328.175 1120.4 329.358 1121.07C336.769 1125.27 338.135 1137.27 331.825 1142.73C324.222 1149.31 313.091 1145.14 311.212 1135.01C309.51 1125.84 316.945 1118.07 325.941 1119.63ZM390.231 1108.78C399.387 1112.12 401.175 1126.57 393.129 1132.19C384.613 1138.14 373.085 1131.27 373.387 1120.43C373.64 1111.31 381.772 1105.68 390.231 1108.78ZM523.742 1083.21C526.26 1083.88 530.263 1087.53 530.626 1089.48C530.805 1090.44 530.029 1090.66 519.603 1092.6C511.837 1094.04 508.351 1094.48 508.27 1094.05C508.038 1092.79 509.265 1089.3 510.58 1087.47C513.354 1083.61 518.723 1081.87 523.742 1083.21ZM547.97 1102.44C545.087 1104.82 545.229 1108.84 548.278 1111.2C549.944 1112.49 550.708 1112.68 552.709 1112.31C558.457 1111.24 559.107 1103.09 553.578 1101.42C551.436 1100.77 549.586 1101.11 547.97 1102.44ZM554.298 1103.09C555.353 1103.81 556.094 1104.9 556.301 1106.02C556.509 1107.14 556.206 1108.41 555.481 1109.47C554.757 1110.52 553.674 1111.26 552.554 1111.47C551.434 1111.68 550.158 1111.38 549.103 1110.65C548.047 1109.93 547.307 1108.85 547.099 1107.72C546.891 1106.6 547.194 1105.33 547.919 1104.27C548.644 1103.22 549.726 1102.48 550.847 1102.27C551.967 1102.06 553.243 1102.37 554.298 1103.09ZM549.34 1106.98C549.659 1108.7 550.209 1110.22 550.562 1110.35C550.925 1110.5 551.085 1109.97 550.93 1109.13C550.577 1107.23 551.343 1107.12 553.185 1108.83C554.162 1109.73 554.608 1109.89 554.511 1109.29C554.43 1108.8 554.015 1108.16 553.589 1107.87C553.012 1107.47 553.01 1107.05 553.581 1106.22C554.519 1104.86 554.521 1104.87 553.2 1103.96C552.61 1103.55 551.37 1103.36 550.444 1103.53C548.788 1103.84 548.769 1103.9 549.34 1106.98ZM552.991 1105C552.832 1106.17 550.491 1106.77 550.291 1105.69C550.182 1105.1 550.643 1104.69 551.609 1104.51C552.54 1104.34 553.056 1104.52 552.991 1105Z" fill="white"></path> <path fill-rule="evenodd" clip-rule="evenodd" d="M1439.95 721.661C1394.23 731.941 1375.23 740.576 1361.83 757.16C1355.94 764.455 1351.93 773.218 1348.1 787.145C1342.97 805.755 1343.26 817.239 1348.99 823.867C1353.72 829.324 1362.99 831.651 1376.79 830.841C1387.06 830.238 1408.67 826.886 1455.73 818.603C1500.01 810.809 1504.43 810.12 1507.68 810.501C1512.66 811.085 1515.05 812.838 1515.71 816.386C1516.72 821.834 1513.02 829.9 1507.77 833.698C1504.18 836.3 1500.36 837.744 1490.67 840.169C1476.61 843.686 1410.74 855.889 1405.86 855.881C1396.45 855.864 1392.84 852.471 1394.22 844.923C1394.56 843.06 1394.83 841.471 1394.81 841.392C1394.8 841.313 1381.52 843.714 1365.31 846.727L1335.84 852.207L1334.2 859.192C1331.21 871.945 1330.83 875.864 1331.97 882.351C1333.16 889.119 1334.39 891.079 1339.44 894.258C1349.54 900.604 1366.58 899.427 1427 888.212C1471.67 879.921 1498.05 874.049 1516.7 868.245C1551.02 857.563 1566.49 842.864 1575.1 812.725C1582.4 787.195 1578.64 773.139 1563.31 768.624C1551.23 765.068 1541.17 766.159 1470.93 778.65C1418.87 787.906 1415.41 788.274 1410.72 785.051C1408.85 783.765 1408.39 783.072 1408.01 780.996C1407.1 775.915 1409.99 769.895 1415.05 766.345C1422.57 761.064 1431.96 758.633 1478.39 749.942C1511.13 743.813 1514.02 743.354 1517.36 743.742C1519.67 744.012 1521.81 744.741 1523.31 745.773C1525.55 747.311 1525.67 747.535 1525.99 750.731C1526.17 752.572 1526.21 754.567 1526.08 755.165C1525.85 756.191 1527.46 755.951 1555.16 750.812L1584.47 745.373L1586.04 737.497C1588.8 723.62 1588.29 716.699 1584.1 711.233C1578.87 704.413 1570.63 701.485 1557.07 701.626C1551.39 701.685 1546 702.351 1528.68 705.139C1503.52 709.188 1456.41 717.961 1439.95 721.661ZM1355.57 952.962C1349.54 955.849 1345.13 960.296 1342.8 965.848C1340.74 970.742 1336.2 990.072 1336.35 993.287C1336.51 996.637 1337.98 998.395 1341.29 999.206C1343.24 999.683 1346.35 999.277 1362.3 996.458C1381.62 993.046 1383.64 992.804 1383.84 993.884C1384.16 995.625 1382.1 1001.77 1380.92 1002.6C1380.03 1003.22 1373.09 1004.71 1359.08 1007.3C1340.45 1010.74 1338.23 1011.04 1335.18 1010.58C1333.34 1010.31 1331.75 1010.19 1331.66 1010.32C1331.57 1010.45 1331.3 1013.56 1331.07 1017.23L1330.64 1023.9L1363.79 1017.74C1399.54 1011.09 1401.03 1010.71 1406.3 1006.64C1408.72 1004.77 1412.87 999.05 1414.07 995.921C1414.41 995.039 1415.95 989.265 1417.5 983.089C1420.53 970.975 1420.65 968.238 1418.28 965.755C1417.54 964.98 1415.62 964.014 1414.02 963.609C1411.28 962.917 1409.97 963.065 1392.26 966.065C1381.9 967.821 1373.19 969.104 1372.92 968.916C1372.29 968.48 1373.19 963.489 1374.26 961.525L1375.07 960.026L1397.12 955.946C1416.19 952.42 1419.52 951.935 1421.72 952.37L1424.26 952.873L1424.49 946.788C1424.61 943.441 1424.78 940.357 1424.85 939.934C1425.05 938.737 1359.56 951.054 1355.57 952.962ZM1432.68 939.672C1433.28 942.977 1432.73 945.729 1426.02 972.514C1419.25 999.599 1418.15 1003.22 1415.76 1006.47L1414.36 1008.36L1433.61 1004.79L1452.86 1001.22L1452.54 997.859C1452.33 995.537 1452.77 992.286 1453.98 987.349C1454.95 983.419 1455.93 979.855 1456.17 979.432C1456.72 978.437 1465.23 970.764 1465.52 970.994C1465.64 971.089 1467.89 975.989 1470.52 981.882C1473.14 987.775 1475.73 993.521 1476.26 994.65L1477.22 996.703L1533.19 986.318L1589.16 975.934L1592.34 968.95C1594.08 965.108 1595.46 961.921 1595.4 961.866C1595.34 961.812 1593.16 962.554 1590.56 963.517C1586.97 964.846 1581.72 965.99 1568.76 968.275L1551.69 971.285L1553.95 962.104L1556.21 952.923L1570.3 950.315C1579.93 948.535 1585.9 947.698 1589.14 947.674C1591.75 947.656 1594.02 947.427 1594.17 947.167C1594.6 946.458 1598.01 932.517 1597.79 932.397C1597.68 932.341 1595.46 933.04 1592.85 933.952C1587.73 935.74 1559.7 941.272 1559.55 940.526C1559.5 940.289 1560.35 936.653 1561.42 932.444L1563.38 924.792L1579.57 921.789C1593.62 919.182 1599.77 918.431 1603.8 918.831C1604.6 918.911 1604.83 917.835 1605.03 913.065C1605.17 909.84 1605.35 906.855 1605.43 906.431C1605.54 905.82 1597.85 907.095 1568.13 912.608L1530.68 919.556L1531.04 921.478C1531.59 924.457 1530.8 928.34 1524.71 952.603C1518.82 976.064 1516.97 982.852 1515.85 985.072C1515.22 986.324 1515.08 986.228 1512.8 982.961C1510.55 979.736 1493.17 948.227 1492.93 946.934C1492.74 945.923 1515.76 926.371 1520.64 923.399L1525.22 920.607L1509.95 923.421L1494.68 926.235L1494.34 928.266C1494.16 929.382 1493.42 931.107 1492.7 932.099C1491.67 933.523 1476.96 947.276 1462.06 960.738L1460.17 962.437L1463.09 951.011C1466.01 939.561 1468.16 933.621 1470.09 931.656C1471 930.731 1468.8 931.036 1451.73 934.203L1432.33 937.802L1432.68 939.672ZM1627.31 902.559C1621.91 904.98 1618.36 907.947 1615.09 912.772C1613.42 915.238 1611.53 918.959 1610.89 921.04C1608.16 929.861 1601.55 958.11 1601.58 960.839C1601.62 965.171 1602.82 967.965 1605.3 969.465C1609.56 972.056 1610.92 971.923 1643.37 965.734L1672.92 960.097L1676.45 952.304C1681.38 941.391 1681.35 942.223 1676.74 944.014C1668.01 947.403 1643.49 952.872 1639.93 952.224C1638.55 951.972 1638.28 951.656 1638.3 950.295C1638.34 947.417 1646.73 915.196 1647.86 913.543C1649.42 911.28 1651.98 910.562 1667.89 907.932C1678.55 906.169 1682.61 905.711 1684.91 906.01C1686.57 906.226 1687.97 906.338 1688.01 906.259C1688.06 906.181 1688.37 902.519 1688.7 898.121L1689.31 890.126L1659.9 895.632C1636.79 899.958 1629.81 901.443 1627.31 902.559ZM1697.34 889.701C1698.4 891.69 1697.2 897.932 1690.86 923.314C1684.23 949.886 1683.42 952.593 1680.93 956.784L1679.5 959.173L1698.54 955.641L1717.58 952.109L1717.28 950.475C1716.79 947.828 1717.41 944.089 1720.22 932.713L1722.88 921.974L1734.87 919.749C1741.47 918.526 1746.89 917.667 1746.92 917.842C1747.05 918.553 1741.74 939.011 1740.84 941.278C1740.3 942.623 1739.22 944.799 1738.44 946.113L1737.02 948.503L1756.06 944.971L1775.1 941.439L1774.74 939.516C1774.19 936.537 1774.98 932.684 1781.22 907.879C1788.45 879.108 1788.93 877.498 1791.22 873.846L1793.09 870.872L1773.82 874.447L1754.55 878.022L1754.92 881.374C1755.21 883.978 1754.73 887.02 1752.76 895.014L1750.21 905.302L1738.06 907.717L1725.91 910.132L1726.4 907.863C1728.35 898.791 1731.9 887.387 1733.62 884.651L1735.58 881.542L1716.2 885.137C1697.84 888.543 1696.85 888.784 1697.34 889.701ZM1795.72 873.837C1795.98 876.635 1794.98 881.507 1789.99 901.524C1782.64 931.038 1782.04 933.139 1779.75 937.483L1777.94 940.919L1816.01 933.703L1854.08 926.487L1857.15 919.709C1858.83 915.98 1860.13 912.874 1860.03 912.806C1859.93 912.737 1857.86 913.431 1855.42 914.347C1852.27 915.531 1846.04 916.938 1833.85 919.214C1817.29 922.306 1816.71 922.376 1816.85 921.265C1816.92 920.632 1817.89 916.503 1819 912.09L1821.01 904.066L1834.95 901.32C1845.22 899.298 1850.22 898.557 1853.94 898.511C1856.72 898.476 1859.01 898.391 1859.02 898.323C1859.04 898.254 1859.93 894.735 1861.01 890.502L1862.97 882.805L1861.45 883.426C1856.45 885.482 1850.53 886.966 1838.1 889.282C1830.34 890.729 1824.15 891.65 1824.21 891.351C1824.26 891.054 1825.15 887.416 1826.18 883.265L1828.05 875.719L1844.73 872.623C1856.68 870.405 1862.51 869.554 1865.29 869.623C1867.43 869.676 1869.27 869.585 1869.39 869.422C1869.64 869.077 1870.29 858.401 1870.13 857.324C1870.04 856.752 1862.18 858.054 1832.71 863.522L1795.41 870.442L1795.72 873.837ZM1878.65 856.715C1879.03 857.61 1879.25 859.461 1879.14 860.828C1878.91 863.628 1866.49 913.796 1864.99 917.936C1864.46 919.406 1863.29 921.721 1862.38 923.079L1860.74 925.55L1879.95 921.985L1899.17 918.42L1898.85 915.027C1898.61 912.425 1899.2 908.947 1901.4 900.127L1904.26 888.622L1909.17 887.539L1914.08 886.457L1914.88 888.86C1915.32 890.181 1916.95 895.845 1918.51 901.446C1920.07 907.047 1921.57 912.19 1921.85 912.874L1922.35 914.119L1940.77 910.702C1958.13 907.482 1959.14 907.234 1958.46 906.379C1958.06 905.881 1955.83 900.388 1953.5 894.175C1951.17 887.961 1949 882.305 1948.68 881.608C1948.13 880.404 1948.29 880.282 1951.79 879.236C1956.52 877.825 1960.57 874.762 1962.29 871.283C1964.14 867.574 1968.25 850.887 1968.1 847.722C1967.94 844.263 1966.1 842.155 1962.34 841.096L1959.5 840.296L1918.73 847.692L1877.96 855.089L1878.65 856.715ZM1986.42 835.946C1979.69 839.168 1974.9 845.028 1972.66 852.784C1969.48 863.837 1967.5 873.419 1967.8 876.361C1968.07 879.107 1968.29 879.534 1970.08 880.762C1973.08 882.82 1977.21 882.524 1997.16 878.823C2008.44 876.729 2014.64 875.794 2014.95 876.136C2015.21 876.425 2014.95 878.483 2014.38 880.708C2013.63 883.562 2012.91 885.006 2011.93 885.606C2011.1 886.109 2002.5 887.946 1990.84 890.108C1971.68 893.664 1968.46 894.017 1963.6 893.098C1962.8 892.946 1962.58 894.01 1962.39 899.08C1962.26 902.472 1962.1 905.593 1962.03 906.015C1961.92 906.624 1968.67 905.523 1994.59 900.706C2029.95 894.135 2032 893.602 2037.27 889.574C2043.17 885.062 2044.81 881.736 2048.64 866.492C2052.53 850.974 2052.09 848.117 2045.52 846.443C2042.78 845.744 2041.51 845.887 2023.77 848.899C2013.4 850.658 2004.7 851.94 2004.42 851.749C2003.53 851.138 2004.41 846.402 2005.79 844.401L2007.11 842.47L2027.39 838.707C2044.07 835.613 2048.36 834.987 2051.52 835.184C2053.63 835.315 2055.42 835.319 2055.49 835.191C2055.56 835.063 2056.03 832.005 2056.52 828.395L2057.43 821.831L2023.4 828.183C1995.56 833.38 1988.83 834.792 1986.42 835.946ZM1934.13 856.931C1934.76 857.96 1932.09 869.049 1930.8 870.733C1929.98 871.818 1928.46 872.256 1918.66 874.236C1909.61 876.065 1907.49 876.343 1907.62 875.69C1907.7 875.245 1908.59 871.584 1909.58 867.554L1911.4 860.227L1922.51 858.166C1932 856.404 1933.69 856.225 1934.13 856.931Z" fill="white"></path> </g> </svg> 