<?xml version="1.0" encoding="UTF-8"?> <svg xmlns="http://www.w3.org/2000/svg" width="225" height="147" viewBox="0 0 225 147" fill="none"> <path opacity="0.05" d="M56.4475 146.763C38.8411 146.763 24.9979 140.11 14.9179 126.805C4.97233 113.23 -0.000464066 95.4224 -0.000464066 73.3808C-0.000464066 51.3393 4.97233 33.5985 14.9179 20.1585C24.9979 6.71849 38.8411 -0.0015063 56.4475 -0.0015063C74.3227 -0.0015063 88.1659 6.71849 97.9771 20.1585C107.923 33.5985 112.895 51.3393 112.895 73.3808C112.895 95.4224 107.923 113.23 97.9771 126.805C88.1659 140.11 74.3227 146.763 56.4475 146.763ZM85.2763 73.3808C85.2763 58.3281 82.7899 46.8369 77.8171 38.9073C72.9787 30.9777 65.8555 27.0129 56.4475 27.0129C47.0395 27.0129 39.9163 30.9777 35.0779 38.9073C30.2395 46.8369 27.8203 58.3281 27.8203 73.3808C27.8203 88.4336 30.2395 99.9248 35.0779 107.854C39.9163 115.65 47.0395 119.547 56.4475 119.547C65.8555 119.547 72.9787 115.582 77.8171 107.653C82.7899 99.7232 85.2763 88.2992 85.2763 73.3808ZM162.302 54.2289H176.817C190.526 54.2289 201.95 58.3281 211.089 66.5265C220.362 74.5904 224.999 85.88 224.999 100.395C224.999 114.91 220.094 126.267 210.282 134.466C200.74 142.664 188.846 146.763 174.599 146.763C163.041 146.763 152.894 144.21 144.158 139.102C135.556 133.861 129.306 126.334 125.409 116.523L149.198 102.613C152.558 113.902 161.025 119.547 174.599 119.547C181.722 119.547 187.233 117.867 191.13 114.507C195.162 111.013 197.178 106.309 197.178 100.395C197.178 94.616 195.23 89.9792 191.332 86.4848C187.434 82.9904 182.126 81.2432 175.406 81.2432H132.666L138.311 2.82089H218.346V28.8273H164.116L162.302 54.2289Z" fill="white"></path> </svg> 