<?xml version="1.0" encoding="UTF-8"?> <svg xmlns="http://www.w3.org/2000/svg" width="212" height="147" viewBox="0 0 212 147" fill="none"> <path opacity="0.05" d="M56.5145 146.937C38.8872 146.937 25.0276 140.277 14.9356 126.955C4.97824 113.365 -0.000464617 95.5357 -0.000464617 73.468C-0.000464617 51.4002 4.97824 33.6384 14.9356 20.1824C25.0276 6.72647 38.8872 -0.00150809 56.5145 -0.00150809C74.4109 -0.00150809 88.2706 6.72647 98.0934 20.1824C108.051 33.6384 113.029 51.4002 113.029 73.468C113.029 95.5357 108.051 113.365 98.0934 126.955C88.2706 140.277 74.4109 146.937 56.5145 146.937ZM85.3775 73.468C85.3775 58.3973 82.8882 46.8925 77.9095 38.9535C73.0653 31.0145 65.9337 27.0449 56.5145 27.0449C47.0954 27.0449 39.9637 31.0145 35.1196 38.9535C30.2754 46.8925 27.8533 58.3973 27.8533 73.468C27.8533 88.5386 30.2754 100.043 35.1196 107.982C39.9637 115.787 47.0954 119.689 56.5145 119.689C65.9337 119.689 73.0653 115.72 77.9095 107.781C82.8882 99.8416 85.3775 88.4041 85.3775 73.468ZM120.77 29.467V2.82424H212.002V26.4394L164.166 144.112H134.697L181.12 29.467H120.77Z" fill="white"></path> </svg> 