<?xml version="1.0" encoding="UTF-8"?> <svg xmlns="http://www.w3.org/2000/svg" width="54" height="55" viewBox="0 0 54 55" fill="none"> <rect x="1.95355" y="2.20355" width="50.8093" height="50.8093" rx="8.65725" stroke="white" stroke-width="2.4735"></rect> <path fill-rule="evenodd" clip-rule="evenodd" d="M26.4511 14.2792C23.9445 14.5202 21.9298 15.407 20.2492 17.0093C17.2879 19.8325 16.5236 24.0769 18.3308 27.6626C18.7086 28.4122 26.5114 40.4461 26.7817 40.6962C27.1228 41.0116 27.6586 40.9715 27.9568 40.6082C28.178 40.3386 35.6885 28.363 35.9623 27.8433C36.4116 26.9904 36.7056 26.1384 36.8967 25.136C37.0116 24.5332 37.0256 22.9246 36.9213 22.2969C36.5769 20.2233 35.6408 18.4512 34.1283 17.0093C32.6234 15.5745 30.7164 14.6566 28.6132 14.3547C28.1782 14.2923 26.8116 14.2446 26.4511 14.2792ZM26.3 19.0157C24.4503 19.3501 22.9289 20.7005 22.4274 22.4532C22.2575 23.047 22.2566 24.1978 22.4256 24.7974C22.7938 26.1037 23.757 27.2259 25.0175 27.8175C25.7941 28.182 26.2434 28.2775 27.1888 28.2792C28.1315 28.2808 28.5726 28.1871 29.3592 27.8179C30.6242 27.2243 31.5825 26.1078 31.9519 24.7974C32.1209 24.1978 32.12 23.047 31.9501 22.4532C31.4851 20.8279 30.1 19.5094 28.4182 19.0908C27.8397 18.9468 26.8709 18.9125 26.3 19.0157Z" fill="white"></path> </svg> 