<?xml version="1.0" encoding="UTF-8"?> <svg xmlns="http://www.w3.org/2000/svg" width="109" height="669" viewBox="0 0 109 669" fill="none"> <g opacity="0.1" filter="url(#filter0_i_1_1583)"> <path d="M107.117 610.565L107.117 627.215L88.0672 630.065L88.0672 650.315L107.117 653.165L107.117 668.315L2.11724 651.515L2.11724 627.365L107.117 610.565ZM73.8172 648.215L73.8172 632.315L20.7172 640.265L73.8172 648.215ZM76.6672 561.931L2.11724 550.681L2.11724 527.731L107.117 527.731L107.117 543.331L31.8172 543.331L107.117 554.731L107.117 570.331L32.8672 582.631L107.117 582.631L107.117 597.031L2.11724 597.031L2.11724 574.081L76.6672 561.931ZM2.11724 484.829C2.11724 476.229 4.11724 470.029 8.11724 466.229C12.1172 462.329 18.1672 460.379 26.2672 460.379L30.0172 460.379C35.4172 460.379 39.8672 461.229 43.3672 462.929C46.8672 464.629 49.4672 467.329 51.1672 471.029C52.8672 466.529 55.6672 463.379 59.5672 461.579C63.3672 459.679 68.0672 458.729 73.6672 458.729L82.2172 458.729C90.3172 458.729 96.5172 460.829 100.817 465.029C105.017 469.229 107.117 475.479 107.117 483.779L107.117 509.729L2.11724 509.729L2.11724 484.829ZM59.8672 493.229L92.1172 493.229L92.1172 483.779C92.1172 480.979 91.3672 478.879 89.8672 477.479C88.3672 475.979 85.6672 475.229 81.7672 475.229L72.6172 475.229C67.7172 475.229 64.3672 476.079 62.5672 477.779C60.7672 479.379 59.8672 482.079 59.8672 485.879L59.8672 493.229ZM17.1172 493.229L44.8672 493.229L44.8672 486.779C44.8672 483.679 44.0672 481.279 42.4672 479.579C40.8672 477.779 37.9672 476.879 33.7672 476.879L27.9172 476.879C24.1172 476.879 21.3672 477.579 19.6672 478.979C17.9672 480.279 17.1172 482.379 17.1172 485.279L17.1172 493.229ZM107.117 389.391L107.117 406.041L88.0672 408.891L88.0672 429.141L107.117 431.991L107.117 447.141L2.11723 430.341L2.11723 406.191L107.117 389.391ZM73.8172 427.041L73.8172 411.141L20.7172 419.091L73.8172 427.041ZM27.3172 377.807C18.8172 377.807 12.3172 375.807 7.81723 371.807C3.21723 367.707 0.917238 361.607 0.917238 353.507C0.917237 345.407 3.21723 339.357 7.81722 335.357C12.3172 331.257 18.8172 329.207 27.3172 329.207L31.3672 329.207L31.3672 344.807L26.2672 344.807C22.4672 344.807 19.8172 345.557 18.3172 347.057C16.7172 348.457 15.9172 350.457 15.9172 353.057C15.9172 355.657 16.7172 357.707 18.3172 359.207C19.8172 360.607 22.4672 361.307 26.2672 361.307C29.8672 361.307 33.0672 360.507 35.8672 358.907C38.5672 357.307 41.1672 355.307 43.6672 352.907C46.0672 350.507 48.5172 347.957 51.0172 345.257C53.4172 342.457 56.0672 339.857 58.9672 337.457C61.8672 335.057 65.1672 333.057 68.8672 331.457C72.5672 329.857 76.9172 329.057 81.9172 329.057C90.4172 329.057 96.9672 331.157 101.567 335.357C106.067 339.457 108.317 345.557 108.317 353.657C108.317 361.757 106.067 367.907 101.567 372.107C96.9672 376.207 90.4172 378.257 81.9172 378.257L74.7172 378.257L74.7172 362.657L82.9672 362.657C86.7672 362.657 89.4172 361.907 90.9172 360.407C92.4172 358.807 93.1672 356.707 93.1672 354.107C93.1672 351.507 92.4172 349.457 90.9172 347.957C89.4172 346.357 86.7672 345.557 82.9672 345.557C79.3672 345.557 76.2172 346.357 73.5172 347.957C70.7172 349.557 68.1172 351.557 65.7172 353.957C63.2172 356.357 60.7672 358.957 58.3672 361.757C55.8672 364.457 53.1672 367.007 50.2672 369.407C47.3672 371.807 44.0672 373.807 40.3672 375.407C36.6672 377.007 32.3172 377.807 27.3172 377.807ZM27.3172 315.704C18.8172 315.704 12.3172 313.704 7.81722 309.704C3.21723 305.604 0.917235 299.504 0.917235 291.404C0.917235 283.304 3.21723 277.254 7.81722 273.254C12.3172 269.154 18.8172 267.104 27.3172 267.104L31.3672 267.104L31.3672 282.704L26.2672 282.704C22.4672 282.704 19.8172 283.454 18.3172 284.954C16.7172 286.354 15.9172 288.354 15.9172 290.954C15.9172 293.554 16.7172 295.604 18.3172 297.104C19.8172 298.504 22.4672 299.204 26.2672 299.204C29.8672 299.204 33.0672 298.404 35.8672 296.804C38.5672 295.204 41.1672 293.204 43.6672 290.804C46.0672 288.404 48.5172 285.854 51.0172 283.154C53.4172 280.354 56.0672 277.754 58.9672 275.354C61.8672 272.954 65.1672 270.954 68.8672 269.354C72.5672 267.754 76.9172 266.954 81.9172 266.954C90.4172 266.954 96.9672 269.054 101.567 273.254C106.067 277.354 108.317 283.454 108.317 291.554C108.317 299.654 106.067 305.804 101.567 310.004C96.9672 314.104 90.4172 316.154 81.9172 316.154L74.7172 316.154L74.7172 300.554L82.9672 300.554C86.7672 300.554 89.4172 299.804 90.9172 298.304C92.4172 296.704 93.1672 294.604 93.1672 292.004C93.1672 289.404 92.4172 287.354 90.9172 285.854C89.4172 284.254 86.7672 283.454 82.9672 283.454C79.3672 283.454 76.2172 284.254 73.5172 285.854C70.7172 287.454 68.1172 289.454 65.7172 291.854C63.2172 294.254 60.7672 296.854 58.3672 299.654C55.8672 302.354 53.1672 304.904 50.2672 307.304C47.3672 309.704 44.0672 311.704 40.3672 313.304C36.6672 314.904 32.3172 315.704 27.3172 315.704ZM107.117 198.1L107.117 214.75L88.0672 217.6L88.0672 237.85L107.117 240.7L107.117 255.85L2.11723 239.05L2.11722 214.9L107.117 198.1ZM73.8172 235.75L73.8172 219.85L20.7172 227.8L73.8172 235.75ZM2.11722 184.416L2.11722 158.316C2.11722 150.016 4.31722 143.866 8.71722 139.866C13.1172 135.766 19.5672 133.716 28.0672 133.716L81.1672 133.716C89.6672 133.716 96.1172 135.766 100.517 139.866C104.917 143.866 107.117 150.016 107.117 158.316L107.117 184.416L2.11722 184.416ZM17.1172 167.916L92.1172 167.916L92.1172 158.616C92.1172 156.016 91.3672 153.966 89.8672 152.466C88.3672 150.966 85.7172 150.216 81.9172 150.216L27.3172 150.216C23.5172 150.216 20.8672 150.966 19.3672 152.466C17.8672 153.966 17.1172 156.016 17.1172 158.616L17.1172 167.916ZM82.9672 102.036C86.7672 102.036 89.4672 101.286 91.0672 99.7859C92.5672 98.1859 93.3172 96.0859 93.3172 93.4859C93.3172 90.8859 92.5672 88.8359 91.0672 87.3359C89.4672 85.7359 86.7672 84.9359 82.9672 84.9359L26.2672 84.9359C22.4672 84.9359 19.8172 85.7359 18.3172 87.3359C16.7172 88.8359 15.9172 90.8859 15.9172 93.4859C15.9172 96.0859 16.7172 98.1859 18.3172 99.7859C19.8172 101.286 22.4672 102.036 26.2672 102.036L82.9672 102.036ZM27.3172 118.536C18.8172 118.536 12.3172 116.386 7.81721 112.086C3.21722 107.786 0.917227 101.586 0.917226 93.4859C0.917226 85.3859 3.21722 79.1859 7.81721 74.8859C12.3172 70.5859 18.8172 68.4359 27.3172 68.4359L81.9172 68.4359C90.4172 68.4359 96.9672 70.5859 101.567 74.8859C106.067 79.1859 108.317 85.3859 108.317 93.4859C108.317 101.586 106.067 107.786 101.567 112.086C96.9672 116.386 90.4172 118.536 81.9172 118.536L27.3172 118.536ZM107.117 17.2133C106.417 17.4133 105.767 17.6133 105.167 17.8133C104.567 18.0133 103.817 18.2133 102.917 18.4133C102.017 18.5133 100.867 18.6133 99.4672 18.7133C98.0672 18.7133 96.3172 18.7133 94.2172 18.7133L77.7172 18.7133C72.8172 18.7133 69.3672 19.5633 67.3672 21.2633C65.3672 22.9633 64.3672 25.7133 64.3672 29.5133L64.3672 35.2133L107.117 35.2133L107.117 51.7133L2.11722 51.7133L2.11722 26.8133C2.11722 18.2133 4.11722 12.0133 8.11722 8.21328C12.1172 4.31329 18.1672 2.36329 26.2672 2.36329L34.5172 2.36329C45.3172 2.36329 52.4172 5.96328 55.8172 13.1633C57.5172 8.96328 60.3172 6.11328 64.2172 4.61329C68.0172 3.01329 72.6672 2.21329 78.1672 2.21329L94.3672 2.21329C96.9672 2.21329 99.2672 2.11328 101.267 1.91328C103.167 1.71328 105.117 1.21328 107.117 0.413282L107.117 17.2133ZM17.1172 35.2133L49.3672 35.2133L49.3672 28.7633C49.3672 25.6633 48.5672 23.2633 46.9672 21.5633C45.3672 19.7633 42.4672 18.8633 38.2672 18.8633L27.9172 18.8633C24.1172 18.8633 21.3672 19.5633 19.6672 20.9633C17.9672 22.2633 17.1172 24.3633 17.1172 27.2633L17.1172 35.2133Z" fill="url(#paint0_linear_1_1583)"></path> </g> <defs> <filter id="filter0_i_1_1583" x="0.917236" y="0.41333" width="107.4" height="685.372" filterUnits="userSpaceOnUse" color-interpolation-filters="sRGB"> <feFlood flood-opacity="0" result="BackgroundImageFix"></feFlood> <feBlend mode="normal" in="SourceGraphic" in2="BackgroundImageFix" result="shape"></feBlend> <feColorMatrix in="SourceAlpha" type="matrix" values="0 0 0 0 0 0 0 0 0 0 0 0 0 0 0 0 0 0 127 0" result="hardAlpha"></feColorMatrix> <feOffset dy="17.4702"></feOffset> <feGaussianBlur stdDeviation="9.24891"></feGaussianBlur> <feComposite in2="hardAlpha" operator="arithmetic" k2="-1" k3="1"></feComposite> <feColorMatrix type="matrix" values="0 0 0 0 1 0 0 0 0 1 0 0 0 0 1 0 0 0 0.19 0"></feColorMatrix> <feBlend mode="normal" in2="shape" result="effect1_innerShadow_1_1583"></feBlend> </filter> <linearGradient id="paint0_linear_1_1583" x1="-12.8828" y1="333.465" x2="152.117" y2="333.465" gradientUnits="userSpaceOnUse"> <stop stop-color="#3D3D3D"></stop> <stop offset="1" stop-color="#3D3D3D" stop-opacity="0.3"></stop> </linearGradient> </defs> </svg> 