<?xml version="1.0" encoding="UTF-8"?> <svg xmlns="http://www.w3.org/2000/svg" width="220" height="147" viewBox="0 0 220 147" fill="none"> <path opacity="0.05" d="M56.539 146.991C38.9052 146.991 25.0405 140.328 14.9449 127.002C4.98383 113.406 0.003304 95.5707 0.003304 73.4949C0.003304 51.419 4.98383 33.6507 14.9449 20.1898C25.0405 6.72893 38.9052 -0.00150864 56.539 -0.00150864C74.4419 -0.00150864 88.3066 6.72893 98.1331 20.1898C108.094 33.6507 113.075 51.419 113.075 73.4949C113.075 95.5707 108.094 113.406 98.1331 127.002C88.3066 140.328 74.4419 146.991 56.539 146.991ZM85.4125 73.4949C85.4125 58.4187 82.9223 46.9096 77.9418 38.9677C73.0958 31.0258 65.9616 27.0548 56.539 27.0548C47.1164 27.0548 39.9821 31.0258 35.1362 38.9677C30.2903 46.9096 27.8673 58.4187 27.8673 73.4949C27.8673 88.571 30.2903 100.08 35.1362 108.022C39.9821 115.829 47.1164 119.733 56.539 119.733C65.9616 119.733 73.0958 115.762 77.9418 107.82C82.9223 99.8782 85.4125 88.4364 85.4125 73.4949ZM214.145 25.8434L187.694 60.1686C197.521 62.9954 205.328 67.9759 211.116 75.1102C217.039 82.2444 220 90.7248 220 100.551C220 115.089 215.087 126.463 205.261 134.675C195.703 142.886 183.79 146.991 169.522 146.991C158.349 146.991 148.456 144.434 139.841 139.319C131.226 134.069 124.966 126.665 121.063 117.108L144.889 103.378C148.254 114.281 156.465 119.733 169.522 119.733C176.656 119.733 182.175 118.05 186.079 114.685C190.117 111.185 192.136 106.474 192.136 100.551C192.136 94.763 190.117 90.119 186.079 86.6192C182.175 83.1194 176.656 81.3695 169.522 81.3695H163.465L152.763 65.2164L180.627 28.8721H125.303V2.82527H214.145V25.8434Z" fill="white"></path> </svg> 