<?xml version="1.0" encoding="UTF-8"?> <svg xmlns="http://www.w3.org/2000/svg" width="26" height="26" viewBox="0 0 26 26" fill="none"> <path fill-rule="evenodd" clip-rule="evenodd" d="M5.90103 1.0405C4.50467 1.24871 3.40296 1.80609 2.38733 2.81805C1.35385 3.84779 0.781136 5.01369 0.592456 6.47208C0.518661 7.04243 0.518661 19.8525 0.592456 20.4228C0.781038 21.8802 1.35073 23.0392 2.38874 24.0774C3.42675 25.1155 4.58563 25.6853 6.04282 25.8739C6.6131 25.9477 19.4216 25.9477 19.9919 25.8739C21.449 25.6853 22.6079 25.1155 23.6459 24.0774C24.6839 23.0392 25.2536 21.8802 25.4422 20.4228C25.516 19.8525 25.516 7.04243 25.4422 6.47208C25.2535 5.01369 24.6808 3.84779 23.6474 2.81805C22.6029 1.77733 21.4477 1.20946 19.9919 1.02105C19.3673 0.94023 6.45391 0.958023 5.90103 1.0405ZM20.4585 5.31184C21.5133 5.81384 21.6249 7.30289 20.6564 7.95368C20.3079 8.18786 20.0883 8.24767 19.6761 8.22077C19.1112 8.18386 18.6566 7.8866 18.3879 7.37835C18.2764 7.16762 18.2588 7.07524 18.258 6.69588C18.2569 6.18077 18.3556 5.92635 18.6837 5.59818C18.9319 5.35005 19.1057 5.25544 19.4513 5.18056C19.8108 5.10266 20.0975 5.14 20.4585 5.31184ZM14.0165 8.36028C15.5911 8.65925 16.9384 9.68447 17.6592 11.1319C18.0345 11.8856 18.1929 12.5727 18.1929 13.4475C18.1929 14.8223 17.7198 16.0244 16.7948 17.0002C15.7779 18.073 14.4967 18.6236 13.0173 18.6236C10.5091 18.6236 8.44594 16.9318 7.92377 14.4468C7.81483 13.9284 7.81483 12.9665 7.92377 12.4481C8.13662 11.4352 8.56214 10.6097 9.23985 9.89472C9.67077 9.44014 10.0345 9.15984 10.544 8.88968C11.6655 8.29501 12.779 8.12527 14.0165 8.36028Z" fill="white"></path> </svg> 