<?xml version="1.0" encoding="UTF-8"?> <svg xmlns="http://www.w3.org/2000/svg" width="136" height="136" viewBox="0 0 136 136" fill="none"> <path fill-rule="evenodd" clip-rule="evenodd" d="M29.2259 0.390964C21.6177 1.52538 15.6149 4.56234 10.0811 10.0761C4.45012 15.6868 1.3296 22.0394 0.301561 29.9856C-0.10052 33.0932 -0.10052 102.89 0.301561 105.998C1.32907 113.938 4.43312 120.254 10.0888 125.91C15.7445 131.566 22.0589 134.671 29.9985 135.698C33.1057 136.101 102.894 136.101 106.001 135.698C113.941 134.671 120.255 131.566 125.911 125.91C131.567 120.254 134.671 113.938 135.698 105.998C136.101 102.89 136.101 33.0932 135.698 29.9856C134.67 22.0394 131.55 15.6868 125.919 10.0761C120.228 4.40563 113.934 1.31156 106.001 0.284986C102.599 -0.155392 32.2384 -0.0584449 29.2259 0.390964ZM108.544 23.6638C114.291 26.399 114.899 34.5123 109.622 38.0582C107.723 39.3342 106.527 39.6601 104.281 39.5135C101.203 39.3124 98.7263 37.6927 97.2619 34.9235C96.6546 33.7753 96.559 33.2719 96.5544 31.205C96.5486 28.3983 97.0861 27.0121 98.874 25.224C100.226 23.8721 101.173 23.3565 103.056 22.9485C105.015 22.5241 106.577 22.7275 108.544 23.6638ZM73.4443 40.2736C82.0232 41.9026 89.3645 47.4886 93.2916 55.3753C95.3365 59.4819 96.1994 63.2256 96.1994 67.9917C96.1994 75.4826 93.6219 82.0325 88.5821 87.3492C83.0414 93.1945 76.0602 96.1945 68 96.1945C54.3335 96.1945 43.0922 86.9766 40.2471 73.4367C39.6535 70.6122 39.6535 65.3712 40.2471 62.5467C41.4068 57.0279 43.7253 52.5296 47.4179 48.6342C49.7658 46.1574 51.7476 44.6301 54.5239 43.1581C60.6345 39.918 66.7013 38.9931 73.4443 40.2736Z" fill="url(#paint0_linear_902_82)"></path> <defs> <linearGradient id="paint0_linear_902_82" x1="12.8148" y1="9.3763e-06" x2="111.039" y2="179.453" gradientUnits="userSpaceOnUse"> <stop stop-color="white"></stop> <stop offset="1" stop-color="#EAEAEA"></stop> </linearGradient> </defs> </svg> 