<?xml version="1.0" encoding="UTF-8"?> <svg xmlns="http://www.w3.org/2000/svg" width="20" height="18" viewBox="0 0 20 18" fill="none"> <path fill-rule="evenodd" clip-rule="evenodd" d="M9.97168 3.68239C4.95666 5.7025 0.81165 7.3839 0.760534 7.41883C0.636681 7.50356 0.521635 7.70681 0.521485 7.84121C0.52126 8.00644 0.61296 8.20069 0.732578 8.28839C0.791601 8.33165 1.82638 8.74992 3.03212 9.21786C4.23786 9.68585 5.24267 10.0887 5.26504 10.1131C5.28737 10.1376 5.68138 11.4249 6.14059 12.9739C6.5998 14.5229 7.00176 15.8496 7.0338 15.922C7.06587 15.9945 7.14405 16.0868 7.20753 16.1272C7.3376 16.2101 7.6039 16.2248 7.72704 16.156C7.77137 16.1312 8.34784 15.6506 9.00806 15.0879C10.4498 13.8591 10.4015 13.8967 10.5968 13.8509C10.9052 13.7786 10.9653 13.8154 12.778 15.1887C15.9587 17.5983 15.727 17.4332 15.9281 17.4332C16.1365 17.4332 16.2836 17.3373 16.3832 17.1366C16.4826 16.9366 19.7198 0.611584 19.6914 0.453712C19.6482 0.213343 19.4068 0.00485488 19.1754 0.00821886C19.1284 0.00888384 14.9867 1.66224 9.97168 3.68239ZM15.5411 3.65258C15.5658 3.6784 15.5861 3.72816 15.5861 3.76316C15.5861 3.79817 14.208 5.16325 12.5236 6.79662C8.4268 10.7695 8.26461 10.9302 8.15548 11.1246C8.01105 11.3818 7.95563 11.6411 7.82694 12.661C7.75949 13.1955 7.68563 13.6377 7.65539 13.6878C7.60045 13.7789 7.44504 13.8058 7.34738 13.7412C7.31958 13.7228 7.07655 12.909 6.80734 11.9327C6.28723 10.0467 6.25736 9.88162 6.38204 9.58148C6.41536 9.50126 6.49735 9.38172 6.56424 9.31589C6.71433 9.16811 15.3574 3.60686 15.438 3.60615C15.47 3.60588 15.5164 3.62677 15.5411 3.65258Z" fill="#6D6D6D"></path> </svg> 