<?xml version="1.0" encoding="UTF-8"?> <svg xmlns="http://www.w3.org/2000/svg" width="32" height="22" viewBox="0 0 32 22" fill="none"> <path fill-rule="evenodd" clip-rule="evenodd" d="M6.41202 0.952058C2.9177 1.21984 1.24296 2.24869 0.678823 4.47426C0.416042 5.51126 0.402344 5.83079 0.402344 10.9387C0.402344 16.1707 0.417423 16.4772 0.733795 17.6786C1.44896 20.3948 3.25666 21.6189 7.01094 21.9294C7.55068 21.974 10.4553 21.987 16.4132 21.9712C25.5696 21.947 25.3396 21.9537 26.6565 21.6717C28.9485 21.1808 30.2448 19.9424 30.7709 17.7412C31.0726 16.4789 31.0895 16.1823 31.1164 11.6713C31.1491 6.19955 31.0709 5.03771 30.5876 3.81791C29.9356 2.17233 28.6704 1.4211 25.8755 1.02016C25.2925 0.936528 24.145 0.923927 16.1428 0.913495C11.1533 0.906931 6.77447 0.924337 6.41202 0.952058ZM13.4356 7.10609C13.7106 7.18052 19.9525 10.3286 20.2432 10.5394C20.734 10.8954 20.7653 11.592 20.3089 12.0035C20.2314 12.0734 18.6811 12.8891 16.8638 13.8161C14.0438 15.2547 13.5154 15.5049 13.2591 15.523C12.8532 15.5518 12.5276 15.3709 12.3429 15.014L12.2077 14.7527V11.358C12.2077 8.9806 12.2283 7.8963 12.2764 7.7397C12.3606 7.46559 12.5986 7.23438 12.9068 7.12719C13.1926 7.02779 13.1525 7.02938 13.4356 7.10609Z" fill="white"></path> </svg> 