<?xml version="1.0" encoding="UTF-8"?> <svg xmlns="http://www.w3.org/2000/svg" width="336" height="110" viewBox="0 0 336 110" fill="none"> <g filter="url(#filter0_d_960_422)"> <path d="M0.966797 3.31643C0.966797 1.95745 0.966797 1.27796 1.38898 0.855775C1.81116 0.433594 2.49065 0.433594 3.84963 0.433594H297.631C315.297 0.433594 324.131 0.433594 329.619 5.92196C335.107 11.4103 335.107 20.2437 335.107 37.9105V69.1564C335.107 86.8232 335.107 95.6566 329.619 101.145C324.131 106.633 315.297 106.633 297.631 106.633H38.4437C20.7769 106.633 11.9435 106.633 6.45516 101.145C0.966797 95.6566 0.966797 86.8232 0.966797 69.1564V3.31643Z" fill="#FBFBFB"></path> <path d="M3.84963 0.793948H297.631C306.474 0.793948 313.071 0.794714 318.144 1.47678C323.206 2.15745 326.698 3.5107 329.364 6.17677C332.03 8.84283 333.384 12.3346 334.064 17.3973C334.746 22.4705 334.747 29.0669 334.747 37.9105V69.1564C334.747 78 334.746 84.5964 334.064 89.6696C333.384 94.7324 332.03 98.2241 329.364 100.89C326.698 103.556 323.206 104.909 318.144 105.59C313.071 106.272 306.474 106.273 297.631 106.273H38.4437C29.6001 106.273 23.0037 106.272 17.9305 105.59C12.8678 104.909 9.37604 103.556 6.70997 100.89C4.0439 98.2241 2.69066 94.7324 2.00998 89.6696C1.32792 84.5964 1.32715 78 1.32715 69.1564V3.31643C1.32715 2.62675 1.32792 2.14575 1.37671 1.78282C1.42411 1.43026 1.51081 1.24356 1.64379 1.11058C1.77676 0.977608 1.96346 0.890908 2.31602 0.843508C2.67895 0.794714 3.15996 0.793948 3.84963 0.793948Z" stroke="url(#paint0_linear_960_422)" stroke-width="0.720709"></path> </g> <defs> <filter id="filter0_d_960_422" x="0.966797" y="0.433594" width="334.141" height="109.082" filterUnits="userSpaceOnUse" color-interpolation-filters="sRGB"> <feFlood flood-opacity="0" result="BackgroundImageFix"></feFlood> <feColorMatrix in="SourceAlpha" type="matrix" values="0 0 0 0 0 0 0 0 0 0 0 0 0 0 0 0 0 0 127 0" result="hardAlpha"></feColorMatrix> <feOffset dy="2.88284"></feOffset> <feComposite in2="hardAlpha" operator="out"></feComposite> <feColorMatrix type="matrix" values="0 0 0 0 0.95 0 0 0 0 0.95 0 0 0 0 0.95 0 0 0 1 0"></feColorMatrix> <feBlend mode="normal" in2="BackgroundImageFix" result="effect1_dropShadow_960_422"></feBlend> <feBlend mode="normal" in="SourceGraphic" in2="effect1_dropShadow_960_422" result="shape"></feBlend> </filter> <linearGradient id="paint0_linear_960_422" x1="376.318" y1="102.171" x2="0.508591" y2="-48.4465" gradientUnits="userSpaceOnUse"> <stop stop-color="#8B8B8B" stop-opacity="0.79"></stop> <stop offset="1" stop-color="#8B8B8B" stop-opacity="0.25"></stop> </linearGradient> </defs> </svg> 