<?xml version="1.0" encoding="UTF-8"?> <svg xmlns="http://www.w3.org/2000/svg" width="35" height="24" viewBox="0 0 35 24" fill="none"> <path fill-rule="evenodd" clip-rule="evenodd" d="M1.47644 0.685334C1.03886 0.837047 0.695832 1.10704 0.416502 1.51949C0.229661 1.79534 0.0172878 2.34066 0.0787258 2.38688C0.421422 2.64462 16.9483 13.5011 17.0054 13.506C17.0512 13.5098 20.8877 11.0105 25.531 7.95198L33.9734 2.39094L33.9339 2.19114C33.8248 1.6393 33.351 1.05336 32.791 0.777907L32.4146 0.592761L17.1215 0.577976C2.44289 0.56379 1.81435 0.568119 1.47644 0.685334ZM0 12.2728C0 16.3431 0.0179527 19.6734 0.0398948 19.6734C0.0918246 19.6734 11.2432 12.62 11.3572 12.5151C11.4265 12.4513 10.3024 11.6824 5.80516 8.71753C2.70374 6.67287 0.12886 4.97119 0.0831142 4.93603C0.0167558 4.88495 0 6.36252 0 12.2728ZM28.3049 8.66938C23.7523 11.6741 22.617 12.4512 22.6863 12.515C22.851 12.6666 33.9856 19.6872 34.0149 19.6578C34.031 19.6417 34.0365 16.3154 34.0272 12.2661L34.0103 4.9038L28.3049 8.66938ZM6.74888 17.9692C0.345356 22.0321 0.100535 22.1948 0.120615 22.3735C0.176202 22.8683 0.688385 23.5064 1.25263 23.7839L1.62904 23.9691H17.0218H32.4146L32.791 23.7839C33.355 23.5065 33.8673 22.8683 33.923 22.3738C33.9431 22.1955 33.6949 22.0307 27.283 17.966L20.6222 13.7435L19.1528 14.7096C17.4066 15.8578 17.371 15.8773 17.0218 15.8773C16.6729 15.8773 16.6455 15.8622 14.8983 14.7131C14.0897 14.1813 13.4214 13.747 13.413 13.7482C13.4048 13.7494 10.4059 15.6488 6.74888 17.9692Z" fill="#3D3D3D"></path> </svg> 