<?xml version="1.0" encoding="UTF-8"?> <svg xmlns="http://www.w3.org/2000/svg" width="182" height="147" viewBox="0 0 182 147" fill="none"> <path opacity="0.05" d="M56.5369 146.999C38.9023 146.999 25.0368 140.336 14.9406 127.009C4.97905 113.412 -0.00173646 95.5758 -0.00173646 73.4988C-0.00173646 51.4218 4.97905 33.6525 14.9406 20.1909C25.0368 6.72929 38.9023 -0.00150872 56.5369 -0.00150872C74.4408 -0.00150872 88.3063 6.72929 98.1332 20.1909C108.095 33.6525 113.076 51.4218 113.076 73.4988C113.076 95.5758 108.095 113.412 98.1332 127.009C88.3063 140.336 74.4408 146.999 56.5369 146.999ZM85.412 73.4988C85.412 58.4218 82.9216 46.9121 77.9409 38.9698C73.0947 31.0275 65.96 27.0563 56.5369 27.0563C47.1138 27.0563 39.9792 31.0275 35.133 38.9698C30.2868 46.9121 27.8637 58.4218 27.8637 73.4988C27.8637 88.5757 30.2868 100.085 35.133 108.028C39.9792 115.835 47.1138 119.739 56.5369 119.739C65.96 119.739 73.0947 115.768 77.9409 107.826C82.9216 99.8835 85.412 88.4411 85.412 73.4988ZM120.416 15.9505L157.57 2.82542H181.801V144.172H153.935V32.3063L127.281 39.7775L120.416 15.9505Z" fill="white"></path> </svg> 