<?xml version="1.0" encoding="UTF-8"?> <svg xmlns="http://www.w3.org/2000/svg" width="417" height="1421" viewBox="0 0 417 1421" fill="none"> <path opacity="0.1" d="M412.337 192.19L356.427 192.19L4.65773 97.8413L4.65773 33.7774L354.097 127.544L354.097 -0.00178989L412.337 -0.00178734L412.337 192.19ZM314.494 334.737C347.497 334.737 372.734 342.502 390.206 358.033C408.066 373.952 416.997 397.636 416.997 429.086C416.997 460.535 408.066 484.025 390.206 499.556C372.734 515.475 347.497 523.434 314.494 523.434L298.769 523.434L298.769 462.865L318.571 462.865C333.325 462.865 343.614 459.953 349.438 454.129C355.65 448.693 358.757 440.928 358.757 430.833C358.757 420.738 355.65 412.778 349.438 406.954C343.614 401.519 333.325 398.801 318.571 398.801C304.593 398.801 292.169 401.907 281.297 408.119C270.814 414.331 260.719 422.097 251.013 431.415C241.694 440.734 232.182 450.634 222.475 461.118C213.157 471.989 202.868 482.084 191.608 491.402C180.348 500.721 167.535 508.486 153.17 514.698C138.804 520.911 121.914 524.017 102.501 524.017C69.4982 524.017 44.0667 515.863 26.2065 499.556C8.73451 483.637 -0.00148355 459.953 -0.00148217 428.503C-0.0014808 397.054 8.73451 373.175 26.2065 356.868C44.0668 340.949 69.4982 332.99 102.501 332.99L130.456 332.99L130.456 393.559L98.424 393.559C83.6699 393.559 73.3809 396.471 67.5569 402.295C61.7329 408.507 58.8209 416.661 58.8209 426.756C58.8209 436.851 61.7329 444.81 67.5569 450.634C73.3809 456.847 83.6699 459.953 98.424 459.953C112.402 459.953 124.632 456.847 135.115 450.634C145.987 444.422 156.082 436.657 165.4 427.338C175.107 418.02 184.619 407.925 193.938 397.054C203.644 386.57 214.127 376.67 225.387 367.351C236.647 358.033 249.46 350.267 263.825 344.055C278.191 337.843 295.081 334.737 314.494 334.737ZM412.337 551.985L412.337 750.001L354.097 750.001L354.097 683.025L4.6577 683.025L4.65771 618.961L354.097 618.961L354.097 551.985L412.337 551.985ZM240.53 852.126L240.529 940.068L182.29 940.068L182.29 852.126L62.8976 852.126L62.8976 962.782L4.65769 962.782L4.6577 788.062L412.337 788.062L412.337 962.782L354.097 962.782L354.097 852.126L240.53 852.126ZM412.337 1105.57C412.337 1137.79 403.795 1161.67 386.712 1177.2C369.628 1193.12 344.585 1201.08 311.582 1201.08L258.584 1201.08C225.581 1201.08 200.538 1193.12 183.454 1177.2C166.371 1161.67 157.829 1137.79 157.829 1105.57L157.829 1075.28L4.65769 1075.28L4.65769 1011.22L412.337 1011.22L412.337 1105.57ZM354.097 1075.28L216.069 1075.28L216.069 1105.57C216.069 1115.66 218.787 1123.43 224.222 1128.86C229.658 1134.3 239.753 1137.01 254.507 1137.01L315.659 1137.01C330.413 1137.01 340.508 1134.3 345.944 1128.86C351.38 1123.43 354.097 1115.66 354.097 1105.57L354.097 1075.28ZM314.494 1231.34C347.497 1231.34 372.734 1239.1 390.206 1254.63C408.066 1270.55 416.997 1294.24 416.997 1325.68C416.997 1357.13 408.066 1380.62 390.206 1396.16C372.734 1412.07 347.497 1420.03 314.494 1420.03L298.769 1420.03L298.769 1359.46L318.571 1359.46C333.325 1359.46 343.614 1356.55 349.438 1350.73C355.65 1345.29 358.757 1337.53 358.757 1327.43C358.757 1317.34 355.65 1309.38 349.438 1303.55C343.614 1298.12 333.325 1295.4 318.571 1295.4C304.593 1295.4 292.169 1298.51 281.297 1304.72C270.814 1310.93 260.719 1318.7 251.013 1328.01C241.694 1337.33 232.182 1347.23 222.475 1357.72C213.157 1368.59 202.868 1378.68 191.608 1388C180.348 1397.32 167.535 1405.09 153.17 1411.3C138.804 1417.51 121.914 1420.62 102.501 1420.62C69.4982 1420.62 44.0667 1412.46 26.2065 1396.16C8.73447 1380.24 -0.00152274 1356.55 -0.00152136 1325.1C-0.00151999 1293.65 8.73447 1269.77 26.2065 1253.47C44.0667 1237.55 69.4982 1229.59 102.501 1229.59L130.456 1229.59L130.456 1290.16L98.424 1290.16C83.6699 1290.16 73.3808 1293.07 67.5568 1298.89C61.7328 1305.11 58.8208 1313.26 58.8208 1323.36C58.8208 1333.45 61.7328 1341.41 67.5568 1347.23C73.3808 1353.45 83.6699 1356.55 98.424 1356.55C112.402 1356.55 124.632 1353.45 135.115 1347.23C145.987 1341.02 156.082 1333.26 165.4 1323.94C175.107 1314.62 184.619 1304.52 193.938 1293.65C203.644 1283.17 214.127 1273.27 225.387 1263.95C236.647 1254.63 249.46 1246.87 263.825 1240.65C278.191 1234.44 295.081 1231.34 314.494 1231.34Z" fill="#A8A8A8"></path> </svg> 