<?xml version="1.0" encoding="UTF-8"?> <svg xmlns="http://www.w3.org/2000/svg" width="21" height="20" viewBox="0 0 21 20" fill="none"> <path fill-rule="evenodd" clip-rule="evenodd" d="M4.75174 0.173847C3.65152 0.337893 2.78346 0.777067 1.98322 1.57441C1.16892 2.38577 0.717664 3.30441 0.568999 4.4535C0.510854 4.90289 0.510854 14.9962 0.568999 15.4456C0.717587 16.5939 1.16646 17.5071 1.98433 18.3251C2.8022 19.143 3.71531 19.592 4.86346 19.7406C5.31279 19.7987 15.4049 19.7987 15.8542 19.7406C17.0024 19.592 17.9155 19.143 18.7333 18.3251C19.5512 17.5071 20.0001 16.5939 20.1487 15.4456C20.2068 14.9962 20.2068 4.90289 20.1487 4.4535C20 3.30441 19.5487 2.38577 18.7344 1.57441C17.9115 0.754405 17.0013 0.306974 15.8542 0.158521C15.3621 0.0948384 5.18736 0.108858 4.75174 0.173847ZM16.2219 3.53932C17.053 3.93486 17.1409 5.10812 16.3778 5.62088C16.1032 5.8054 15.9302 5.85253 15.6054 5.83133C15.1603 5.80225 14.8021 5.56803 14.5904 5.16757C14.5026 5.00153 14.4887 4.92874 14.4881 4.62984C14.4872 4.22397 14.565 4.02351 14.8235 3.76494C15.019 3.56943 15.156 3.49488 15.4283 3.43588C15.7115 3.37451 15.9374 3.40393 16.2219 3.53932ZM11.1461 5.94126C12.3867 6.17682 13.4483 6.98461 14.0162 8.1251C14.3119 8.71895 14.4367 9.26033 14.4367 9.94955C14.4367 11.0328 14.064 11.98 13.3352 12.7488C12.534 13.5941 11.5244 14.0279 10.3588 14.0279C8.38252 14.0279 6.75693 12.6949 6.3455 10.7369C6.25966 10.3285 6.25966 9.5706 6.3455 9.16216C6.51321 8.36408 6.84848 7.71358 7.38246 7.15027C7.722 6.7921 8.00858 6.57125 8.41006 6.35838C9.29372 5.88983 10.171 5.75608 11.1461 5.94126Z" fill="#6D6D6D"></path> </svg> 