<?xml version="1.0" encoding="UTF-8"?> <svg xmlns="http://www.w3.org/2000/svg" width="25" height="18" viewBox="0 0 25 18" fill="none"> <path fill-rule="evenodd" clip-rule="evenodd" d="M4.78203 0.679914C2.02877 0.890902 0.709212 1.70156 0.264719 3.45513C0.0576678 4.27221 0.046875 4.52397 0.046875 8.54863C0.046875 12.671 0.0587566 12.9125 0.308032 13.8591C0.87153 15.9993 2.29585 16.9638 5.25393 17.2084C5.6792 17.2436 7.96784 17.2538 12.6621 17.2414C19.8767 17.2223 19.6955 17.2276 20.7331 17.0053C22.539 16.6185 23.5604 15.6428 23.9749 13.9084C24.2126 12.9139 24.2259 12.6802 24.2472 9.12586C24.2729 4.81453 24.2112 3.89909 23.8305 2.93798C23.3168 1.64139 22.3199 1.04948 20.1177 0.733573C19.6584 0.667677 18.7542 0.657749 12.4491 0.649529C8.5178 0.644357 5.06761 0.658072 4.78203 0.679914ZM10.316 5.52881C10.5327 5.58746 15.4509 8.06792 15.6799 8.23398C16.0666 8.51446 16.0913 9.06334 15.7317 9.3876C15.6706 9.44264 14.4491 10.0854 13.0172 10.8158C10.7953 11.9492 10.3789 12.1464 10.177 12.1607C9.85715 12.1834 9.60059 12.0409 9.45507 11.7596L9.34856 11.5537V8.87899C9.34856 7.00577 9.3648 6.15143 9.40267 6.02804C9.46904 5.81207 9.65654 5.62989 9.89942 5.54543C10.1246 5.46712 10.093 5.46836 10.316 5.52881Z" fill="#6D6D6D"></path> </svg> 