<?xml version="1.0" encoding="UTF-8"?> <svg xmlns="http://www.w3.org/2000/svg" width="31" height="30" viewBox="0 0 31 30" fill="none"> <circle cx="15.3483" cy="14.9409" r="14.4345" fill="white" fill-opacity="0.02"></circle> <circle cx="15.3483" cy="14.9409" r="14.4345" fill="url(#paint0_linear_27_23)" fill-opacity="0.07"></circle> <circle cx="15.3483" cy="14.9409" r="14.4345" stroke="#444444" stroke-width="0.577378"></circle> <path d="M16.4621 16.7508H14.2435L13.6562 10.9867V6.63645H17.0277V10.9867L16.4621 16.7508ZM17.2017 20.2962C17.2017 20.8037 17.0204 21.2388 16.6579 21.6013C16.2954 21.9638 15.8604 22.1451 15.3528 22.1451C14.8453 22.1451 14.4103 21.9638 14.0478 21.6013C13.6852 21.2388 13.504 20.8037 13.504 20.2962C13.504 19.7887 13.6852 19.3537 14.0478 18.9911C14.4103 18.6286 14.8453 18.4474 15.3528 18.4474C15.8604 18.4474 16.2954 18.6286 16.6579 18.9911C17.0204 19.3537 17.2017 19.7887 17.2017 20.2962Z" fill="white"></path> <defs> <linearGradient id="paint0_linear_27_23" x1="-0.240946" y1="0.865836" x2="31.7147" y2="19.4276" gradientUnits="userSpaceOnUse"> <stop stop-color="white" stop-opacity="0"></stop> <stop offset="0.553502" stop-color="white"></stop> <stop offset="1" stop-color="white" stop-opacity="0"></stop> </linearGradient> </defs> </svg> 