<?xml version="1.0" encoding="UTF-8"?> <svg xmlns="http://www.w3.org/2000/svg" width="218" height="147" viewBox="0 0 218 147" fill="none"> <path opacity="0.05" d="M56.3985 146.633C38.8078 146.633 24.9769 139.986 14.9059 126.692C4.96916 113.13 0.000789544 95.3375 0.000789544 73.3155C0.000789544 51.2936 4.96916 33.5686 14.9059 20.1405C24.9769 6.71251 38.8078 -0.00150496 56.3985 -0.00150496C74.2578 -0.00150496 88.0887 6.71251 97.8911 20.1405C107.828 33.5686 112.796 51.2936 112.796 73.3155C112.796 95.3375 107.828 113.13 97.8911 126.692C88.0887 139.986 74.2578 146.633 56.3985 146.633ZM85.2016 73.3155C85.2016 58.2762 82.7175 46.7952 77.7491 38.8726C72.915 30.9501 65.7981 26.9888 56.3985 26.9888C46.9989 26.9888 39.882 30.9501 35.0479 38.8726C30.2139 46.7952 27.7968 58.2762 27.7968 73.3155C27.7968 88.3549 30.2139 99.8359 35.0479 107.758C39.882 115.547 46.9989 119.441 56.3985 119.441C65.7981 119.441 72.915 115.48 77.7491 107.557C82.7175 99.6345 85.2016 88.2207 85.2016 73.3155ZM217.999 143.813H123.734V123.066L171.874 73.517C182.616 62.1031 187.987 52.7035 187.987 45.3181C187.987 39.8126 186.242 35.3814 182.751 32.0244C179.394 28.6673 175.029 26.9888 169.658 26.9888C158.916 26.9888 151.06 32.4943 146.092 43.5053L122.727 29.8087C127.024 20.2748 133.268 12.9565 141.459 7.8539C149.785 2.61696 159.05 -0.00150496 169.255 -0.00150496C182.012 -0.00150496 192.956 4.0269 202.087 12.0837C211.218 20.0063 215.783 30.7487 215.783 44.311C215.783 58.9476 208.062 73.9869 192.62 89.4292L165.026 117.024H217.999V143.813Z" fill="white"></path> </svg> 