<?xml version="1.0" encoding="UTF-8"?> <svg xmlns="http://www.w3.org/2000/svg" width="236" height="147" viewBox="0 0 236 147" fill="none"> <path opacity="0.05" d="M56.4354 146.732C38.8328 146.732 24.9926 140.08 14.9147 126.778C4.97126 113.206 -0.000463966 95.4019 -0.000463966 73.3651C-0.000463966 51.3282 4.97126 33.5913 14.9147 20.1542C24.9926 6.71705 38.8328 -0.00150598 56.4354 -0.00150598C74.3067 -0.00150598 88.1469 6.71705 97.956 20.1542C107.899 33.5913 112.871 51.3282 112.871 73.3651C112.871 95.4019 107.899 113.206 97.956 126.778C88.1469 140.08 74.3067 146.732 56.4354 146.732ZM85.258 73.3651C85.258 58.3155 82.7721 46.8268 77.8004 38.8989C72.963 30.971 65.8414 27.0071 56.4354 27.0071C47.0294 27.0071 39.9077 30.971 35.0704 38.8989C30.233 46.8268 27.8143 58.3155 27.8143 73.3651C27.8143 88.4146 30.233 99.9034 35.0704 107.831C39.9077 115.625 47.0294 119.522 56.4354 119.522C65.8414 119.522 72.963 115.558 77.8004 107.63C82.7721 99.7018 85.258 88.2803 85.258 73.3651ZM220.882 94.1254H235.999V119.925H220.882V143.91H192.866V119.925H126.15V94.1254L173.113 2.82029H202.943L156.182 94.1254H192.866V60.667H220.882V94.1254Z" fill="white"></path> </svg> 