<?xml version="1.0" encoding="UTF-8"?> <svg xmlns="http://www.w3.org/2000/svg" width="31" height="31" viewBox="0 0 31 31" fill="none"> <path fill-rule="evenodd" clip-rule="evenodd" d="M6.58234 0.0880539C4.8688 0.343549 3.51683 1.02754 2.2705 2.26937C1.00227 3.53302 0.299457 4.96376 0.0679184 6.75342C-0.0226395 7.45333 -0.0226395 23.1732 0.0679184 23.8731C0.299337 25.6615 0.99844 27.0838 2.27223 28.3578C3.54602 29.6317 4.96815 30.3309 6.75634 30.5623C7.45616 30.6529 23.1741 30.6529 23.8739 30.5623C25.6621 30.3309 27.0842 29.6317 28.358 28.3578C29.6318 27.0838 30.3309 25.6615 30.5624 23.8731C30.6529 23.1732 30.6529 7.45333 30.5624 6.75342C30.3308 4.96376 29.628 3.53302 28.3598 2.26937C27.078 0.992248 25.6605 0.295393 23.8739 0.0641854C23.1075 -0.0349978 7.26081 -0.0131631 6.58234 0.0880539ZM24.4465 5.32963C25.741 5.94566 25.8779 7.77295 24.6894 8.57156C24.2618 8.85894 23.9923 8.93234 23.4865 8.89932C22.7933 8.85404 22.2354 8.48925 21.9056 7.86556C21.7688 7.60695 21.7473 7.49359 21.7462 7.02806C21.7449 6.39593 21.866 6.08373 22.2687 5.68101C22.5732 5.37653 22.7865 5.26041 23.2105 5.16853C23.6517 5.07293 24.0035 5.11876 24.4465 5.32963ZM16.5413 9.07053C18.4735 9.43741 20.1269 10.6955 21.0114 12.4718C21.4719 13.3967 21.6663 14.2398 21.6663 15.3133C21.6663 17.0004 21.0858 18.4756 19.9507 19.673C18.7028 20.9895 17.1305 21.6652 15.3151 21.6652C12.2371 21.6652 9.70533 19.5891 9.06455 16.5396C8.93087 15.9035 8.93087 14.7231 9.06455 14.0869C9.32576 12.844 9.84793 11.8308 10.6796 10.9535C11.2084 10.3957 11.6547 10.0517 12.28 9.72018C13.6563 8.99043 15.0226 8.78213 16.5413 9.07053Z" fill="white"></path> </svg> 