<?xml version="1.0" encoding="UTF-8"?> <svg xmlns="http://www.w3.org/2000/svg" width="22" height="19" viewBox="0 0 22 19" fill="none"> <path fill-rule="evenodd" clip-rule="evenodd" d="M10.8382 4.29791C5.553 6.42684 1.1847 8.19882 1.13083 8.23563C1.00031 8.32492 0.879065 8.53912 0.878907 8.68076C0.87867 8.85489 0.975309 9.0596 1.10137 9.15202C1.16357 9.19762 2.2541 9.63842 3.52479 10.1316C4.79548 10.6248 5.85441 11.0493 5.87798 11.0751C5.90152 11.1008 6.31675 12.4575 6.8007 14.09C7.28465 15.7224 7.70825 17.1205 7.74202 17.1969C7.77583 17.2732 7.85821 17.3706 7.92511 17.4131C8.06219 17.5004 8.34283 17.5159 8.4726 17.4434C8.51932 17.4173 9.12685 16.9108 9.82264 16.3178C11.3421 15.0228 11.2911 15.0625 11.4969 15.0142C11.8219 14.938 11.8853 14.9768 13.7956 16.424C17.1477 18.9634 16.9035 18.7894 17.1155 18.7894C17.335 18.7894 17.4901 18.6884 17.5951 18.4769C17.6998 18.2661 21.1114 1.06169 21.0815 0.895314C21.036 0.641998 20.7815 0.422278 20.5377 0.425824C20.4881 0.426524 16.1233 2.16894 10.8382 4.29791ZM16.7076 4.2665C16.7337 4.29371 16.755 4.34615 16.755 4.38304C16.755 4.41993 15.3027 5.85854 13.5276 7.5799C9.21006 11.7668 9.03913 11.9362 8.92413 12.141C8.77192 12.4121 8.71351 12.6853 8.57789 13.7602C8.5068 14.3235 8.42896 14.7895 8.39709 14.8423C8.3392 14.9383 8.17542 14.9666 8.0725 14.8986C8.04319 14.8792 7.78708 14.0215 7.50336 12.9926C6.95524 11.0051 6.92376 10.8311 7.05516 10.5148C7.09027 10.4302 7.17668 10.3043 7.24717 10.2349C7.40534 10.0791 16.514 4.21831 16.599 4.21757C16.6327 4.21728 16.6815 4.23929 16.7076 4.2665Z" fill="#525252"></path> </svg> 