<?xml version="1.0" encoding="UTF-8"?> <svg xmlns="http://www.w3.org/2000/svg" width="36" height="36" viewBox="0 0 36 36" fill="none"> <rect opacity="0.44" x="0.843535" y="0.843535" width="33.4585" height="33.4585" rx="7.59181" stroke="white" stroke-width="1.68707"></rect> <path fill-rule="evenodd" clip-rule="evenodd" d="M27.1114 7.36685C27.0376 7.40796 24.5802 10.1528 21.6504 13.4665C18.7207 16.7802 16.2721 19.5345 16.2091 19.5873C16.0827 19.6932 15.8671 19.7135 15.7179 19.6337C15.6666 19.6062 14.8096 18.8419 13.8135 17.9352C12.8174 17.0285 11.9232 16.2336 11.8265 16.1688C11.2685 15.7947 10.513 15.7445 9.88462 16.0396C9.52971 16.2063 9.13689 16.6015 8.9497 16.9803C8.80818 17.2666 8.7895 17.3435 8.77369 17.7056C8.75284 18.1826 8.8339 18.5455 9.03063 18.8557C9.26683 19.2282 14.421 25.5046 14.5964 25.6333C15.3484 26.1854 16.3902 26.0922 17.0433 25.4143C17.2175 25.2336 18.5866 23.0603 22.5916 16.6071C27.3361 8.96259 27.9088 8.02143 27.9089 7.86893C27.909 7.64964 27.7887 7.45385 27.5981 7.36344C27.4062 7.27238 27.2795 7.27328 27.1114 7.36685Z" fill="white"></path> </svg> 