<?xml version="1.0" encoding="UTF-8"?> <svg xmlns="http://www.w3.org/2000/svg" width="133" height="121" viewBox="0 0 133 121" fill="none"> <path fill-rule="evenodd" clip-rule="evenodd" d="M65.5655 25.4917C30.7713 39.5072 2.01317 51.1728 1.65853 51.4151C0.799236 52.003 0.00104285 53.4131 2.86259e-06 54.3456C-0.00155712 55.4919 0.634658 56.8396 1.46457 57.4481C1.87407 57.7482 9.05339 60.6502 17.4188 63.8968C25.7842 67.1437 32.7556 69.9387 32.9108 70.1083C33.0657 70.2779 35.7994 79.2095 38.9854 89.9565C42.1714 100.703 44.9601 109.908 45.1824 110.41C45.405 110.913 45.9473 111.554 46.3878 111.834C47.2902 112.409 49.1378 112.511 49.9921 112.034C50.2997 111.862 54.2993 108.527 58.8799 104.623C68.8828 96.0977 68.5476 96.3588 69.9022 96.041C72.042 95.5392 72.4593 95.7948 85.0354 105.322C107.104 122.04 105.496 120.895 106.891 120.895C108.337 120.895 109.357 120.229 110.049 118.837C110.738 117.449 133.198 4.18643 133.001 3.09111C132.701 1.42343 131.026 -0.0230607 129.421 0.00027858C129.095 0.00489216 100.36 11.4759 65.5655 25.4917ZM104.206 25.2849C104.378 25.464 104.518 25.8092 104.518 26.0521C104.518 26.295 94.9569 35.7659 83.2708 47.0982C54.8471 74.6622 53.7218 75.7773 52.9647 77.1258C51.9627 78.9105 51.5781 80.7092 50.6853 87.7854C50.2173 91.4939 49.7048 94.5617 49.495 94.9093C49.1139 95.5411 48.0356 95.7278 47.3581 95.2797C47.1652 95.1522 45.4791 89.5057 43.6113 82.7322C40.0028 69.6475 39.7955 68.502 40.6605 66.4196C40.8917 65.863 41.4606 65.0336 41.9247 64.5769C42.9659 63.5516 102.931 24.9676 103.491 24.9628C103.713 24.9609 104.034 25.1058 104.206 25.2849Z" fill="url(#paint0_linear_902_83)"></path> <defs> <linearGradient id="paint0_linear_902_83" x1="12.5324" y1="8.33603e-06" x2="95.2287" y2="166.193" gradientUnits="userSpaceOnUse"> <stop stop-color="white"></stop> <stop offset="1" stop-color="#EAEAEA"></stop> </linearGradient> </defs> </svg> 