<?xml version="1.0" encoding="UTF-8"?> <svg xmlns="http://www.w3.org/2000/svg" width="229" height="147" viewBox="0 0 229 147" fill="none"> <path opacity="0.05" d="M56.4992 146.898C38.8767 146.898 25.0208 140.239 14.9316 126.921C4.97688 113.334 -0.00046449 95.5098 -0.00046449 73.448C-0.00046449 51.3863 4.97688 33.6292 14.9316 20.1769C25.0208 6.72464 38.8767 -0.00150768 56.4992 -0.00150768C74.3907 -0.00150768 88.2466 6.72464 98.0667 20.1769C108.021 33.6292 112.999 51.3863 112.999 73.448C112.999 95.5098 108.021 113.334 98.0667 126.921C88.2466 140.239 74.3907 146.898 56.4992 146.898ZM85.3543 73.448C85.3543 58.3814 82.8657 46.8797 77.8883 38.9429C73.0455 31.006 65.9158 27.0376 56.4992 27.0376C47.0826 27.0376 39.9528 31.006 35.11 38.9429C30.2672 46.8797 27.8458 58.3814 27.8458 73.448C27.8458 88.5146 30.2672 100.016 35.11 107.953C39.9528 115.755 47.0826 119.657 56.4992 119.657C65.9158 119.657 73.0455 115.688 77.8883 107.751C82.8657 99.8145 85.3543 88.38 85.3543 73.448ZM210.841 2.82347L179.564 48.6285C194.227 49.0321 206.132 53.8077 215.28 62.9552C224.427 72.1028 229.001 83.6717 229.001 97.6621C229.001 112.056 224.226 123.894 214.674 133.176C205.123 142.324 192.814 146.898 177.748 146.898C162.681 146.898 150.372 142.324 140.821 133.176C131.405 124.163 126.696 112.325 126.696 97.6621C126.696 87.0348 129.454 77.551 134.97 69.2105L178.959 2.82347H210.841ZM201.357 97.6621C201.357 90.936 199.137 85.4878 194.698 81.3176C190.259 77.0129 184.609 74.8605 177.748 74.8605C170.887 74.8605 165.237 76.9456 160.798 81.1158C156.493 85.286 154.341 90.8015 154.341 97.6621C154.341 104.523 156.493 110.106 160.798 114.41C165.237 118.58 170.887 120.666 177.748 120.666C184.609 120.666 190.259 118.58 194.698 114.41C199.137 110.106 201.357 104.523 201.357 97.6621Z" fill="white"></path> </svg> 