<?xml version="1.0" encoding="UTF-8"?> <svg xmlns="http://www.w3.org/2000/svg" width="58" height="58" viewBox="0 0 58 58" fill="none"> <circle cx="29" cy="29" r="28.4314" fill="white" fill-opacity="0.02"></circle> <circle cx="29" cy="29" r="28.4314" fill="url(#paint0_linear_27_12)" fill-opacity="0.07"></circle> <circle cx="29" cy="29" r="28.4314" stroke="#444444" stroke-width="1.13725"></circle> <path d="M31.1934 34.0813H26.8235L25.6667 22.7279V14.1592H32.3074V22.7279L31.1934 34.0813ZM32.6501 41.0647C32.6501 42.0644 32.2931 42.9212 31.579 43.6353C30.865 44.3493 30.0081 44.7064 29.0085 44.7064C28.0088 44.7064 27.1519 44.3493 26.4379 43.6353C25.7238 42.9212 25.3668 42.0644 25.3668 41.0647C25.3668 40.065 25.7238 39.2082 26.4379 38.4941C27.1519 37.7801 28.0088 37.423 29.0085 37.423C30.0081 37.423 30.865 37.7801 31.579 38.4941C32.2931 39.2082 32.6501 40.065 32.6501 41.0647Z" fill="white"></path> <defs> <linearGradient id="paint0_linear_27_12" x1="-1.70588" y1="1.27648" x2="61.2367" y2="37.8373" gradientUnits="userSpaceOnUse"> <stop stop-color="white" stop-opacity="0"></stop> <stop offset="0.553502" stop-color="white"></stop> <stop offset="1" stop-color="white" stop-opacity="0"></stop> </linearGradient> </defs> </svg> 