<?xml version="1.0" encoding="UTF-8"?> <svg xmlns="http://www.w3.org/2000/svg" width="683" height="223" viewBox="0 0 683 223" fill="none"> <g filter="url(#filter0_d_1_1686)"> <path d="M0 5.89265C0 3.11483 0 1.72592 0.86296 0.86296C1.72592 0 3.11483 0 5.89266 0H606.395C642.507 0 660.563 0 671.782 11.2185C683 22.437 683 40.4929 683 76.6046V140.473C683 176.585 683 194.641 671.782 205.859C660.563 217.078 642.507 217.078 606.395 217.078H76.6046C40.4929 217.078 22.437 217.078 11.2185 205.859C0 194.641 0 176.585 0 140.473V5.89265Z" fill="#FBFBFB"></path> <path d="M5.89266 0.736583H606.395C624.472 0.736583 637.956 0.738147 648.325 2.13233C658.674 3.52365 665.811 6.28975 671.261 11.7393C676.71 17.1889 679.476 24.3261 680.868 34.6747C682.262 45.0445 682.263 58.5279 682.263 76.6046V140.473C682.263 158.55 682.262 172.033 680.868 182.403C679.476 192.751 676.71 199.889 671.261 205.338C665.811 210.788 658.674 213.554 648.325 214.945C637.956 216.339 624.472 216.341 606.395 216.341H76.6046C58.5279 216.341 45.0445 216.339 34.6747 214.945C24.3261 213.554 17.1889 210.788 11.7393 205.338C6.28975 199.889 3.52365 192.751 2.13233 182.403C0.738147 172.033 0.736583 158.55 0.736583 140.473V5.89265C0.736583 4.48292 0.738147 3.49972 0.837884 2.75788C0.934773 2.03724 1.11199 1.65562 1.3838 1.3838C1.65561 1.11199 2.03724 0.934773 2.75788 0.837885C3.49972 0.738147 4.48293 0.736583 5.89266 0.736583Z" stroke="url(#paint0_linear_1_1686)" stroke-width="1.47317"></path> </g> <defs> <filter id="filter0_d_1_1686" x="0" y="0" width="683" height="222.97" filterUnits="userSpaceOnUse" color-interpolation-filters="sRGB"> <feFlood flood-opacity="0" result="BackgroundImageFix"></feFlood> <feColorMatrix in="SourceAlpha" type="matrix" values="0 0 0 0 0 0 0 0 0 0 0 0 0 0 0 0 0 0 127 0" result="hardAlpha"></feColorMatrix> <feOffset dy="5.89266"></feOffset> <feComposite in2="hardAlpha" operator="out"></feComposite> <feColorMatrix type="matrix" values="0 0 0 0 0.95 0 0 0 0 0.95 0 0 0 0 0.95 0 0 0 1 0"></feColorMatrix> <feBlend mode="normal" in2="BackgroundImageFix" result="effect1_dropShadow_1_1686"></feBlend> <feBlend mode="normal" in="SourceGraphic" in2="effect1_dropShadow_1_1686" result="shape"></feBlend> </filter> <linearGradient id="paint0_linear_1_1686" x1="767.237" y1="207.957" x2="-0.936598" y2="-99.9133" gradientUnits="userSpaceOnUse"> <stop stop-color="#8B8B8B" stop-opacity="0.79"></stop> <stop offset="1" stop-color="#8B8B8B" stop-opacity="0.25"></stop> </linearGradient> </defs> </svg> 