<?xml version="1.0" encoding="UTF-8"?> <svg xmlns="http://www.w3.org/2000/svg" width="26" height="23" viewBox="0 0 26 23" fill="none"> <path fill-rule="evenodd" clip-rule="evenodd" d="M12.7204 4.76083C6.35552 7.32467 1.09483 9.45865 1.02996 9.50298C0.872766 9.61051 0.726753 9.86846 0.726563 10.039C0.726278 10.2487 0.84266 10.4953 0.994475 10.6066C1.06938 10.6615 2.38269 11.1923 3.91297 11.7862C5.44325 12.3802 6.71851 12.8915 6.7469 12.9225C6.77525 12.9535 7.27531 14.5874 7.85812 16.5533C8.44094 18.5192 8.95108 20.203 8.99174 20.2949C9.03245 20.3869 9.13167 20.5041 9.21224 20.5554C9.37732 20.6605 9.71529 20.6791 9.87158 20.5919C9.92784 20.5604 10.6595 19.9504 11.4974 19.2362C13.3272 17.6767 13.2659 17.7245 13.5137 17.6663C13.9051 17.5746 13.9815 17.6213 16.282 19.3641C20.3189 22.4223 20.0248 22.2128 20.2801 22.2128C20.5445 22.2128 20.7312 22.0911 20.8577 21.8364C20.9838 21.5826 25.0923 0.863476 25.0563 0.66311C25.0015 0.358044 24.6951 0.0934378 24.4015 0.0977072C24.3418 0.0985512 19.0853 2.19693 12.7204 4.76083ZM19.7889 4.723C19.8203 4.75576 19.846 4.81891 19.846 4.86334C19.846 4.90777 18.0969 6.64027 15.9592 8.71328C10.7597 13.7555 10.5538 13.9595 10.4153 14.2062C10.232 14.5327 10.1617 14.8617 9.99837 16.1562C9.91276 16.8345 9.81902 17.3957 9.78064 17.4593C9.71091 17.5749 9.51368 17.6091 9.38973 17.5271C9.35444 17.5038 9.04601 16.4709 8.70433 15.2318C8.04423 12.8382 8.00632 12.6287 8.16456 12.2477C8.20684 12.1459 8.3109 11.9942 8.3958 11.9106C8.58628 11.7231 19.5557 4.66496 19.6581 4.66407C19.6987 4.66372 19.7575 4.69023 19.7889 4.723Z" fill="white"></path> </svg> 