<?xml version="1.0" encoding="UTF-8"?> <svg xmlns="http://www.w3.org/2000/svg" width="125" height="280" viewBox="0 0 125 280" fill="none"> <path opacity="0.16" d="M90.6558 26.583L83.6569 26.583C79.3923 26.583 76.1061 25.5294 73.7982 23.4222C71.5405 21.3652 70.4116 18.3047 70.4116 14.2408C70.4116 10.177 71.5405 7.09141 73.7982 4.98421C76.1061 2.92719 79.3923 1.89867 83.6569 1.89867L111.05 1.89867C115.315 1.89867 118.576 2.92719 120.834 4.98421C123.142 7.09141 124.296 10.177 124.296 14.2408C124.296 18.3047 123.142 21.3652 120.834 23.4222C118.576 25.5294 115.315 26.583 111.05 26.583L105.933 26.583L105.933 18.7563L111.577 18.7563C113.484 18.7563 114.813 18.3549 115.566 17.5521C116.369 16.7996 116.77 15.7711 116.77 14.4666C116.77 13.1622 116.369 12.1086 115.566 11.3058C114.813 10.5532 113.484 10.177 111.577 10.177L83.1301 10.177C81.2235 10.177 79.894 10.5532 79.1414 11.3058C78.3889 12.1085 78.0126 13.1621 78.0126 14.4666C78.0126 15.7711 78.3889 16.7996 79.1414 17.5521C79.894 18.3549 81.2235 18.7563 83.1301 18.7563L90.6558 18.7563L90.6558 26.583ZM71.0137 59.5262L71.0137 51.1727L80.5713 49.7428L80.5713 39.5831L71.0137 38.1532L71.0137 30.5522L123.694 38.981L123.694 51.0974L71.0137 59.5262ZM87.7207 40.6367L87.7207 48.6139L114.362 44.6253L87.7207 40.6367ZM109.169 71.8854L71.0137 71.8854L71.0137 64.435L123.694 64.435L123.694 74.8204L92.1609 83.3245L123.694 83.3245L123.694 90.6997L71.0137 90.6997L71.0137 82.1956L109.169 71.8854ZM123.694 97.5298L123.694 105.507L108.191 104.303L108.191 98.6587L123.694 97.5298ZM123.694 110.15L123.694 135.737L116.168 135.737L116.168 127.082L71.0137 127.082L71.0137 118.804L116.168 118.804L116.168 110.15L123.694 110.15ZM111.05 152.416C115.315 152.416 118.576 153.419 120.834 155.426C123.142 157.483 124.296 160.544 124.296 164.607C124.296 168.671 123.142 171.707 120.834 173.714C118.576 175.771 115.315 176.799 111.05 176.799L109.018 176.799L109.018 168.972L111.577 168.972C113.484 168.972 114.813 168.596 115.566 167.843C116.369 167.141 116.77 166.138 116.77 164.833C116.77 163.529 116.369 162.5 115.566 161.748C114.813 161.045 113.484 160.694 111.577 160.694C109.771 160.694 108.166 161.095 106.761 161.898C105.406 162.701 104.102 163.704 102.847 164.908C101.643 166.113 100.414 167.392 99.1598 168.747C97.9557 170.151 96.6262 171.456 95.1712 172.66C93.7162 173.864 92.0606 174.867 90.2042 175.67C88.3479 176.473 86.1654 176.874 83.6569 176.874C79.3923 176.874 76.1061 175.821 73.7982 173.714C71.5405 171.657 70.4116 168.596 70.4116 164.532C70.4116 160.468 71.5405 157.383 73.7982 155.276C76.1061 153.219 79.3923 152.19 83.6569 152.19L87.2692 152.19L87.2692 160.017L83.1301 160.017C81.2235 160.017 79.894 160.393 79.1414 161.146C78.3889 161.948 78.0126 163.002 78.0126 164.306C78.0126 165.611 78.3889 166.639 79.1414 167.392C79.894 168.195 81.2235 168.596 83.1301 168.596C84.9362 168.596 86.5166 168.195 87.8713 167.392C89.276 166.589 90.5805 165.586 91.7846 164.382C93.0389 163.178 94.2681 161.873 95.4722 160.468C96.7265 159.114 98.0811 157.834 99.5361 156.63C100.991 155.426 102.647 154.423 104.503 153.62C106.359 152.817 108.542 152.416 111.05 152.416ZM123.694 180.488L123.694 206.076L116.168 206.076L116.168 197.421L71.0137 197.421L71.0137 189.143L116.168 189.143L116.168 180.488L123.694 180.488ZM83.1301 218.595C81.2235 218.595 79.8689 218.971 79.0662 219.724C78.3136 220.527 77.9373 221.58 77.9373 222.885C77.9373 224.189 78.3136 225.218 79.0662 225.97C79.8689 226.773 81.2235 227.174 83.1301 227.174L111.577 227.174C113.484 227.174 114.813 226.773 115.566 225.97C116.369 225.218 116.77 224.189 116.77 222.885C116.77 221.58 116.369 220.527 115.566 219.724C114.813 218.971 113.484 218.595 111.577 218.595L83.1301 218.595ZM111.05 210.317C115.315 210.317 118.576 211.395 120.834 213.553C123.142 215.71 124.296 218.821 124.296 222.885C124.296 226.949 123.142 230.059 120.834 232.217C118.576 234.374 115.315 235.453 111.05 235.453L83.6569 235.453C79.3923 235.453 76.1061 234.374 73.7982 232.216C71.5405 230.059 70.4116 226.949 70.4116 222.885C70.4116 218.821 71.5405 215.71 73.7982 213.553C76.1061 211.395 79.3923 210.317 83.6569 210.317L111.05 210.317ZM123.694 254.153C123.694 258.317 122.59 261.403 120.382 263.409C118.175 265.466 114.939 266.495 110.674 266.495L103.826 266.495C99.5612 266.495 96.3251 265.466 94.1176 263.409C91.91 261.403 90.8063 258.317 90.8063 254.153L90.8063 250.239L71.0137 250.239L71.0137 241.961L123.694 241.961L123.694 254.153ZM116.168 250.239L98.332 250.239L98.332 254.153C98.332 255.457 98.6832 256.461 99.3856 257.163C100.088 257.865 101.392 258.217 103.299 258.217L111.201 258.217C113.107 258.217 114.412 257.865 115.114 257.163C115.817 256.461 116.168 255.457 116.168 254.153L116.168 250.239ZM29.0846 21.0622L1.01367 18.0519L1.01367 6.68808L53.6936 0.818032L53.6936 8.87054L12.1517 13.3107L53.6936 17.2993L53.6936 25.2766L11.8507 29.4157L53.6936 33.7054L53.6936 40.9301L1.01367 35.06L1.01367 24.0725L29.0846 21.0622ZM13.1301 53.8349C11.2235 53.8349 9.86892 54.2112 9.06618 54.9637C8.31361 55.7665 7.93732 56.8201 7.93732 58.1245C7.93732 59.429 8.31361 60.4575 9.06618 61.2101C9.86892 62.0128 11.2235 62.4142 13.1301 62.4142L41.5772 62.4142C43.4837 62.4142 44.8133 62.0128 45.5659 61.2101C46.3686 60.4575 46.77 59.429 46.77 58.1245C46.77 56.8201 46.3686 55.7665 45.5659 54.9637C44.8133 54.2112 43.4838 53.8349 41.5772 53.8349L13.1301 53.8349ZM41.0504 45.5566C45.315 45.5566 48.5761 46.6353 50.8339 48.7927C53.1417 50.95 54.2957 54.0607 54.2957 58.1245C54.2957 62.1884 53.1417 65.299 50.8339 67.4564C48.5761 69.6138 45.315 70.6925 41.0504 70.6925L13.6569 70.6925C9.39229 70.6925 6.10606 69.6138 3.79818 67.4564C1.54047 65.299 0.411612 62.1884 0.411613 58.1245C0.411613 54.0607 1.54047 50.95 3.79818 48.7927C6.10607 46.6353 9.39229 45.5566 13.6569 45.5566L41.0504 45.5566ZM39.169 84.5762L1.01367 84.5762L1.01367 77.1258L53.6936 77.1258L53.6936 87.5113L22.1609 96.0153L53.6936 96.0153L53.6936 103.39L1.01367 103.39L1.01367 94.8864L39.169 84.5762ZM53.6936 110.221L53.6936 118.198L38.1907 116.994L38.1907 111.35L53.6936 110.221ZM53.6936 122.84L53.6936 148.428L46.1679 148.428L46.1679 139.773L1.01367 139.773L1.01367 131.495L46.1679 131.495L46.1679 122.84L53.6936 122.84ZM41.0504 165.107C45.315 165.107 48.5761 166.11 50.8339 168.117C53.1417 170.174 54.2957 173.234 54.2957 177.298C54.2957 181.362 53.1417 184.397 50.8339 186.404C48.5761 188.461 45.315 189.49 41.0504 189.49L39.0185 189.49L39.0185 181.663L41.5772 181.663C43.4837 181.663 44.8133 181.287 45.5659 180.534C46.3686 179.832 46.77 178.828 46.77 177.524C46.77 176.22 46.3686 175.191 45.5659 174.438C44.8133 173.736 43.4837 173.385 41.5772 173.385C39.7711 173.385 38.1656 173.786 36.7608 174.589C35.4062 175.392 34.1017 176.395 32.8474 177.599C31.6433 178.803 30.4141 180.083 29.1598 181.437C27.9557 182.842 26.6262 184.147 25.1712 185.351C23.7162 186.555 22.0606 187.558 20.2042 188.361C18.3479 189.164 16.1654 189.565 13.6569 189.565C9.39229 189.565 6.10606 188.512 3.79818 186.404C1.54046 184.347 0.411607 181.287 0.411607 177.223C0.411608 173.159 1.54046 170.074 3.79818 167.966C6.10606 165.909 9.39229 164.881 13.6569 164.881L17.2692 164.881L17.2692 172.708L13.1301 172.708C11.2235 172.708 9.894 173.084 9.14143 173.836C8.38886 174.639 8.01257 175.693 8.01257 176.997C8.01257 178.302 8.38886 179.33 9.14143 180.083C9.894 180.885 11.2235 181.287 13.1301 181.287C14.9362 181.287 16.5166 180.885 17.8713 180.083C19.276 179.28 20.5805 178.277 21.7846 177.072C23.0389 175.868 24.2681 174.564 25.4722 173.159C26.7265 171.804 28.0811 170.525 29.5361 169.321C30.9911 168.117 32.6467 167.113 34.5031 166.311C36.3594 165.508 38.5419 165.107 41.0504 165.107ZM53.6936 193.179L53.6936 218.767L46.1679 218.767L46.1679 210.112L1.01366 210.112L1.01366 201.834L46.1679 201.834L46.1679 193.179L53.6936 193.179ZM13.1301 231.286C11.2235 231.286 9.86891 231.662 9.06617 232.415C8.3136 233.217 7.93731 234.271 7.93731 235.575C7.93731 236.88 8.3136 237.908 9.06617 238.661C9.86891 239.464 11.2235 239.865 13.1301 239.865L41.5772 239.865C43.4837 239.865 44.8133 239.464 45.5659 238.661C46.3686 237.908 46.77 236.88 46.77 235.575C46.77 234.271 46.3686 233.217 45.5659 232.415C44.8133 231.662 43.4837 231.286 41.5772 231.286L13.1301 231.286ZM41.0504 223.008C45.315 223.008 48.5761 224.086 50.8339 226.244C53.1417 228.401 54.2957 231.512 54.2957 235.575C54.2957 239.639 53.1417 242.75 50.8339 244.907C48.5761 247.065 45.315 248.143 41.0504 248.143L13.6569 248.143C9.39228 248.143 6.10606 247.065 3.79817 244.907C1.54046 242.75 0.411605 239.639 0.411605 235.575C0.411605 231.512 1.54046 228.401 3.79817 226.244C6.10606 224.086 9.39228 223.008 13.6569 223.008L41.0504 223.008ZM53.6936 266.844C53.6936 271.008 52.5898 274.093 50.3823 276.1C48.1748 278.157 44.9387 279.186 40.6741 279.186L33.8257 279.186C29.5612 279.186 26.3251 278.157 24.1176 276.1C21.91 274.093 20.8063 271.008 20.8063 266.844L20.8063 262.93L1.01366 262.93L1.01366 254.652L53.6936 254.652L53.6936 266.844ZM46.1679 262.93L28.332 262.93L28.332 266.844C28.332 268.148 28.6832 269.151 29.3856 269.854C30.088 270.556 31.3924 270.907 33.2989 270.907L41.2009 270.907C43.1075 270.907 44.4119 270.556 45.1143 269.854C45.8167 269.151 46.1679 268.148 46.1679 266.844L46.1679 262.93Z" fill="#A8A8A8"></path> </svg> 